#N canvas 286 50 1550 918 10;
#N canvas 0 50 450 278 (subpatch) 0;
#X array \$1-array 41349 float 2;
#X coords 0 1 41349 -1 335 251 1 0 0;
#X restore 882 260 graph;
#X obj 1238 395 soundfiler;
#X floatatom 1238 426 10 0 0 0 - - -, f 10;
#X floatatom 1238 485 10 0 0 0 - - -, f 10;
#X obj 1238 454 / 44.1;
#X text 1294 454 sample rate / 1000;
#X obj 202 693 line~;
#X obj 140 219 inlet;
#X obj 140 285 bng 15 250 50 0 empty empty empty 17 7 0 10 -262144
-1 -1;
#X msg 280 383 0 0;
#X obj 111 532 pack 0 0;
#X floatatom 167 474 5 0 0 0 - - -, f 5;
#X floatatom 175 407 5 0 0 0 - - -, f 5;
#X obj 121 430 f;
#X obj 107 482 * 44.1;
#X obj 1238 516 s \$1-duration;
#X obj 203 720 tabread4~ \$1-array;
#X obj 166 443 r \$1-duration;
#X obj 175 382 r \$1-duration;
#X obj 1238 197 bng 15 250 50 0 empty empty empty 17 7 0 10 -262144
-1 -1;
#X obj 1238 223 symbol \$1-array;
#X obj 1238 309 list prepend -resize;
#X obj 1238 337 list prepend read;
#X obj 1238 365 list trim;
#X obj 1238 170 loadbang;
#X text 1118 125 construct the read message using the sound file name
(\$1);
#X obj 1238 245 list;
#X obj 1238 276 list prepend \$1;
#X text 416 27 loads and plays sound file;
#X text 417 49 argument 1: soundfile to load;
#X text 418 70 argument 2: key number to play;
#X obj 192 332 t b b b;
#X text 1314 484 milliseconds;
#X obj 203 798 hip~ 5;
#X text 283 800 cut DC;
#X obj 203 843 outlet~;
#X connect 1 0 2 0;
#X connect 2 0 4 0;
#X connect 3 0 15 0;
#X connect 4 0 3 0;
#X connect 6 0 16 0;
#X connect 7 0 8 0;
#X connect 8 0 31 0;
#X connect 9 0 6 0;
#X connect 10 0 6 0;
#X connect 11 0 10 1;
#X connect 12 0 13 1;
#X connect 13 0 14 0;
#X connect 14 0 10 0;
#X connect 16 0 33 0;
#X connect 17 0 11 0;
#X connect 18 0 12 0;
#X connect 19 0 20 0;
#X connect 20 0 26 0;
#X connect 21 0 22 0;
#X connect 22 0 23 0;
#X connect 23 0 1 0;
#X connect 24 0 19 0;
#X connect 26 0 27 0;
#X connect 27 0 21 0;
#X connect 31 0 13 0;
#X connect 31 1 9 0;
#X connect 33 0 35 0;
