#N canvas 0 22 908 878 10;
#X obj 278 488 *~;
#X floatatom 264 384 5 0 0 0 - - -;
#X floatatom 362 523 5 0 0 0 - - -;
#X obj 276 436 osc~;
#X msg 221 329 414;
#X msg 193 349 328;
#X msg 181 373 439;
#X msg 261 321 276;
#X msg 337 345 368;
#X msg 303 329 216;
#X msg 371 363 244;
#X obj 254 198 random 7;
#X obj 228 254 select 1 2 3 4 5 6 7;
#X obj 300 164 bng 15 250 50 0 empty empty empty 17 7 0 10 -262144
-1 -1;
#X obj 214 142 metro 150;
#X obj 160 126 bng 35 250 50 0 startup empty empty 17 7 0 10 -24198
-1 -1;
#X obj 116 384 + 60;
#X floatatom 168 436 5 0 0 0 - - -;
#X obj 160 410 pipe 400;
#X obj 175 489 osc~;
#X obj 355 438 pipe 400;
#X obj 312 470 osc~;
#X obj 395 416 * 2;
#X msg 514 261 stop;
#X obj 516 203 line;
#X obj 424 120 bng 35 250 50 0 empty empty empty 17 7 0 10 -258699
-1 -1;
#X msg 429 179 0 7000;
#X obj 514 243 bng 15 250 50 0 empty empty empty 17 7 0 10 -262144
-1 -1;
#X obj 513 222 select 0;
#X floatatom 360 130 5 0 0 2 Slowness - -;
#X floatatom 260 221 5 0 0 0 - - -;
#X obj 312 227 + 7;
#X msg 413 387 122;
#X floatatom 303 589 0 0 0 0 - - -;
#X obj 302 611 sig~;
#X obj 309 672 *~;
#X obj 317 721 hip~ 5;
#X obj 278 551 delwrite~ spilledasebuf 100000;
#X obj 303 636 vd~ spilledasebuf;
#X obj 432 757 *~;
#X floatatom 426 588 0 0 0 0 - - -;
#X obj 425 610 sig~;
#X obj 438 674 *~;
#X floatatom 469 657 5 0 1 0 - - -;
#X obj 440 720 hip~ 5;
#X obj 426 635 vd~ spilledasebuf;
#X floatatom 541 587 0 0 0 0 - - -;
#X obj 540 609 sig~;
#X obj 553 673 *~;
#X floatatom 584 656 5 0 1 0 - - -;
#X obj 555 719 hip~ 5;
#X obj 541 634 vd~ spilledasebuf;
#X floatatom 656 588 0 0 0 0 - - -;
#X obj 655 610 sig~;
#X obj 668 674 *~;
#X floatatom 699 657 5 0 1 0 - - -;
#X obj 670 720 hip~ 5;
#X obj 656 635 vd~ spilledasebuf;
#X floatatom 775 589 0 0 0 0 - - -;
#X obj 774 611 sig~;
#X obj 787 675 *~;
#X floatatom 818 658 5 0 1 0 - - -;
#X obj 789 721 hip~ 5;
#X obj 775 636 vd~ spilledasebuf;
#X floatatom 356 456 5 0 0 0 - - -;
#X obj 356 494 line~;
#X msg 355 475 \$1 10;
#X obj 173 472 line~;
#X msg 172 453 \$1 10;
#X floatatom 323 132 5 0 0 2 Seed - -;
#X msg 328 172 seed \$1;
#X obj 326 151 t b f;
#X obj 557 409 random 1000;
#X obj 678 402 + 1;
#X obj 643 403 f;
#X obj 353 608 / 1000;
#X obj 461 609 / 1000;
#X obj 582 609 / 1000;
#X obj 698 610 / 1000;
#X obj 817 611 / 1000;
#X msg 707 403 0;
#X obj 155 556 s fundamental;
#X obj 170 672 *~;
#X floatatom 193 646 5 0 0 0 - - -;
#X obj 345 227 s random;
#X obj 429 837 dac~;
#X obj 435 793 *~ 0.2;
#X msg 499 167 0.7 1000;
#N canvas 0 22 450 300 spektra 1;
#X obj 47 129 osc~;
#X obj 109 131 osc~;
#X obj 185 132 osc~;
#X obj 255 129 osc~;
#X obj 317 128 osc~;
#X obj 48 189 *~;
#X obj 103 189 *~;
#X obj 185 189 *~;
#X obj 257 199 *~;
#X obj 317 184 *~;
#X obj 68 163 tgl 15 0 empty empty empty 0 -6 0 8 -262144 -1 -1 0 1
;
#X obj 119 165 tgl 15 0 empty empty empty 0 -6 0 8 -262144 -1 -1 0
1;
#X obj 205 163 tgl 15 0 empty empty empty 0 -6 0 8 -262144 -1 -1 0
1;
#X obj 327 161 tgl 15 0 empty empty empty 0 -6 0 8 -262144 -1 -1 0
23;
#X obj 106 282 osc~;
#X obj 48 275 *~;
#X obj 50 24 r fundamental;
#X obj 27 394 outlet~;
#X obj 203 87 / 2;
#X obj 315 90 / 4;
#X obj 110 84 * 0.5;
#X obj 256 87 * 0.25;
#X obj 261 24 r random;
#X obj 259 49 select 0 1 2 3 4 5;
#X obj 323 328 line;
#X floatatom 325 382 5 0 0 0 - - -;
#X obj 324 356 spigot;
#X obj 388 331 tgl 15 0 empty empty empty 17 7 0 10 -262144 -1 -1 0
1;
#X obj 278 172 tgl 15 0 empty empty empty 17 7 0 10 -262144 -1 -1 0
1;
#X obj 388 282 t f b;
#X obj 419 305 f;
#X obj 388 307 <;
#X msg 324 303 \$1 500;
#X obj 51 83 * 0.5;
#X connect 0 0 5 0;
#X connect 1 0 6 0;
#X connect 2 0 7 0;
#X connect 3 0 8 0;
#X connect 4 0 9 0;
#X connect 5 0 15 0;
#X connect 6 0 15 0;
#X connect 7 0 14 0;
#X connect 8 0 15 0;
#X connect 9 0 14 0;
#X connect 10 0 5 1;
#X connect 11 0 6 1;
#X connect 12 0 7 1;
#X connect 13 0 9 1;
#X connect 14 0 15 1;
#X connect 15 0 17 0;
#X connect 16 0 18 0;
#X connect 16 0 19 0;
#X connect 16 0 20 0;
#X connect 16 0 32 0;
#X connect 16 0 29 0;
#X connect 18 0 2 0;
#X connect 19 0 4 0;
#X connect 20 0 1 0;
#X connect 21 0 3 0;
#X connect 22 0 23 0;
#X connect 23 0 10 0;
#X connect 23 0 28 0;
#X connect 23 1 11 0;
#X connect 23 2 12 0;
#X connect 23 3 28 0;
#X connect 23 3 10 0;
#X connect 23 4 13 0;
#X connect 24 0 26 0;
#X connect 25 0 21 0;
#X connect 25 0 33 0;
#X connect 26 0 25 0;
#X connect 27 0 26 1;
#X connect 28 0 8 1;
#X connect 29 0 30 1;
#X connect 29 0 31 0;
#X connect 29 1 30 0;
#X connect 30 0 31 1;
#X connect 31 0 27 0;
#X connect 32 0 24 0;
#X connect 33 0 0 0;
#X restore 120 642 pd spektra;
#X text 5 137 Press twice to begin --->;
#X text 468 130 <--- Press to stop;
#X obj 360 83 * 3;
#X obj 464 17 ctlin 19;
#X obj 171 19 ctlin 114;
#X obj 364 18 ctlin 18;
#X obj 283 18 ctlin 16;
#X obj 749 35 ctlin 7;
#X obj 750 70 / 635;
#X obj 649 455 cyclone/gate 6;
#X connect 0 0 37 0;
#X connect 1 0 16 0;
#X connect 1 0 3 0;
#X connect 1 0 18 0;
#X connect 1 0 20 0;
#X connect 1 0 22 0;
#X connect 1 0 81 0;
#X connect 2 0 0 1;
#X connect 3 0 0 0;
#X connect 4 0 1 0;
#X connect 5 0 1 0;
#X connect 6 0 1 0;
#X connect 7 0 1 0;
#X connect 8 0 1 0;
#X connect 9 0 1 0;
#X connect 10 0 1 0;
#X connect 11 0 30 0;
#X connect 11 0 12 0;
#X connect 11 0 84 0;
#X connect 12 0 6 0;
#X connect 12 1 5 0;
#X connect 12 2 4 0;
#X connect 12 3 7 0;
#X connect 12 4 9 0;
#X connect 12 5 8 0;
#X connect 12 6 10 0;
#X connect 12 7 32 0;
#X connect 13 0 11 0;
#X connect 13 0 72 0;
#X connect 13 0 74 0;
#X connect 14 0 13 0;
#X connect 15 0 14 0;
#X connect 15 0 87 0;
#X connect 16 0 18 1;
#X connect 16 0 14 1;
#X connect 17 0 68 0;
#X connect 18 0 17 0;
#X connect 19 0 0 0;
#X connect 20 0 64 0;
#X connect 21 0 0 0;
#X connect 22 0 20 1;
#X connect 23 0 14 0;
#X connect 24 0 28 0;
#X connect 25 0 26 0;
#X connect 26 0 24 0;
#X connect 27 0 23 0;
#X connect 28 0 27 0;
#X connect 28 1 2 0;
#X connect 28 1 39 1;
#X connect 28 1 83 0;
#X connect 29 0 16 1;
#X connect 30 0 31 0;
#X connect 31 0 11 1;
#X connect 32 0 1 0;
#X connect 33 0 34 0;
#X connect 33 0 75 0;
#X connect 34 0 38 0;
#X connect 35 0 37 0;
#X connect 35 0 36 0;
#X connect 36 0 39 0;
#X connect 38 0 35 0;
#X connect 39 0 86 0;
#X connect 40 0 41 0;
#X connect 40 0 76 0;
#X connect 41 0 45 0;
#X connect 42 0 44 0;
#X connect 43 0 42 1;
#X connect 44 0 39 0;
#X connect 45 0 42 0;
#X connect 46 0 47 0;
#X connect 46 0 77 0;
#X connect 47 0 51 0;
#X connect 48 0 50 0;
#X connect 49 0 48 1;
#X connect 50 0 39 0;
#X connect 51 0 48 0;
#X connect 52 0 53 0;
#X connect 52 0 78 0;
#X connect 53 0 57 0;
#X connect 54 0 56 0;
#X connect 55 0 54 1;
#X connect 56 0 39 0;
#X connect 57 0 54 0;
#X connect 58 0 59 0;
#X connect 58 0 79 0;
#X connect 59 0 63 0;
#X connect 60 0 62 0;
#X connect 61 0 60 1;
#X connect 62 0 39 0;
#X connect 63 0 60 0;
#X connect 64 0 66 0;
#X connect 65 0 21 0;
#X connect 66 0 65 0;
#X connect 67 0 19 0;
#X connect 68 0 67 0;
#X connect 69 0 71 0;
#X connect 70 0 11 0;
#X connect 71 0 70 0;
#X connect 71 1 70 0;
#X connect 72 0 98 1;
#X connect 73 0 74 1;
#X connect 74 0 73 0;
#X connect 74 0 98 0;
#X connect 75 0 35 1;
#X connect 76 0 43 0;
#X connect 77 0 49 0;
#X connect 78 0 55 0;
#X connect 79 0 61 0;
#X connect 80 0 73 1;
#X connect 82 0 39 0;
#X connect 83 0 82 1;
#X connect 86 0 85 0;
#X connect 86 0 85 1;
#X connect 87 0 24 0;
#X connect 88 0 82 0;
#X connect 91 0 29 0;
#X connect 92 0 25 0;
#X connect 93 0 15 0;
#X connect 94 0 91 0;
#X connect 95 0 69 0;
#X connect 96 0 97 0;
#X connect 97 0 86 1;
#X connect 98 0 33 0;
#X connect 98 1 40 0;
#X connect 98 2 46 0;
#X connect 98 3 52 0;
#X connect 98 4 58 0;
#X connect 98 5 80 0;
