#N canvas 193 197 854 716 12;
#X obj 57 26 inlet~;
#X obj 324 32 inlet;
#X obj 255 499 outlet~;
#X text 319 1 target pitch;
#X obj 361 205 *~ 2051;
#X obj 360 304 tabread~;
#X msg 401 263 set waveform1;
#X obj 367 168 phasor~;
#X obj 429 224 delay 300;
#X obj 432 127 loadbang;
#X obj 324 75 mtof;
#N canvas 1000 170 676 712 fft-analyse 0;
#X obj 63 508 *~;
#X obj 28 507 *~;
#X obj 492 284 *~;
#X obj 451 284 *~;
#X obj 451 307 +~;
#X obj 27 127 *~;
#X obj 28 74 inlet~;
#X obj 27 150 rfft~;
#X obj 27 591 *~;
#X obj 118 188 *~;
#X obj 450 252 rfft~;
#X obj 27 541 rifft~;
#X obj 27 614 outlet~;
#X obj 84 188 *~;
#X obj 107 215 +~;
#X obj 82 427 *~;
#X obj 30 20 block~ 1024 4;
#X obj 84 237 +~ 1e-20;
#X obj 83 476 *~ 0.00065;
#X obj 451 226 *~;
#X obj 450 177 inlet~;
#X obj 85 328 q8_rsqrt~;
#X obj 451 330 q8_sqrt~;
#X obj 470 200 tabreceive~ hanning;
#X obj 47 566 tabreceive~ hanning;
#X obj 45 100 tabreceive~ hanning;
#X text 165 195 Analyse;
#X text 176 233 Addition eines winzigen;
#X text 177 250 Wertes \, damit keine Division;
#X text 174 267 durch 0 entstehen kann.;
#X text 169 320 ein effizienter arbeitendes;
#X text 169 337 "sqrt"-Objekt;
#X text 178 477 Normalisierung;
#X text 522 265 Analyse;
#X text 121 433 wie ein Filter weden hier die Werte des anderen Inputs
;
#X text 119 450 angebracht;
#X text 216 115 Fensterung;
#X text 492 222 Fensterung;
#X text 206 585 abschlieﬂende Gesamt-Fensterung;
#X text 143 21 Standard-fft-Einstellung;
#X obj 83 385 *~;
#X obj 131 390 expr $f1*$f1*0.01;
#X obj 130 367 r squelch;
#X connect 0 0 11 1;
#X connect 1 0 11 0;
#X connect 2 0 4 1;
#X connect 3 0 4 0;
#X connect 4 0 22 0;
#X connect 5 0 7 0;
#X connect 6 0 5 0;
#X connect 7 0 13 0;
#X connect 7 0 13 1;
#X connect 7 0 1 0;
#X connect 7 1 9 0;
#X connect 7 1 9 1;
#X connect 7 1 0 0;
#X connect 8 0 12 0;
#X connect 9 0 14 1;
#X connect 10 0 3 0;
#X connect 10 0 3 1;
#X connect 10 1 2 0;
#X connect 10 1 2 1;
#X connect 11 0 8 0;
#X connect 13 0 14 0;
#X connect 14 0 17 0;
#X connect 15 0 18 0;
#X connect 17 0 21 0;
#X connect 18 0 0 1;
#X connect 18 0 1 1;
#X connect 19 0 10 0;
#X connect 20 0 19 0;
#X connect 21 0 40 0;
#X connect 22 0 15 1;
#X connect 23 0 19 1;
#X connect 24 0 8 1;
#X connect 25 0 5 1;
#X connect 40 0 15 0;
#X connect 41 0 40 1;
#X connect 42 0 41 0;
#X restore 255 406 pd fft-analyse;
#X floatatom 287 134 5 0 0 0 - - -, f 5;
#X connect 0 0 11 1;
#X connect 1 0 10 0;
#X connect 4 0 5 0;
#X connect 5 0 11 0;
#X connect 6 0 5 0;
#X connect 7 0 4 0;
#X connect 8 0 6 0;
#X connect 9 0 8 0;
#X connect 10 0 7 0;
#X connect 10 0 12 0;
#X connect 11 0 2 0;
