#N canvas 1672 131 1251 1026 10;
#X obj 30 503 mtof;
#X obj 30 479 nbx 5 14 -1e+37 1e+37 0 1 empty empty empty 0 -8 0 10
-262144 -1 -1 70.1143 256;
#X obj 1019 503 mtof;
#X obj 1019 479 nbx 5 14 -1e+37 1e+37 0 1 empty empty empty 0 -8 0
10 -262144 -1 -1 70.1143 256;
#X obj 140 503 mtof;
#X obj 140 479 nbx 5 14 -1e+37 1e+37 0 1 empty empty empty 0 -8 0 10
-262144 -1 -1 80.4857 256;
#X obj 250 503 mtof;
#X obj 250 479 nbx 5 14 -1e+37 1e+37 0 1 empty empty empty 0 -8 0 10
-262144 -1 -1 49.0286 256;
#X obj 360 503 mtof;
#X obj 360 479 nbx 5 14 -1e+37 1e+37 0 1 empty empty empty 0 -8 0 10
-262144 -1 -1 39.2571 256;
#X obj 469 503 mtof;
#X obj 469 479 nbx 5 14 -1e+37 1e+37 0 1 empty empty empty 0 -8 0 10
-262144 -1 -1 46.1143 256;
#X obj 580 503 mtof;
#X obj 580 479 nbx 5 14 -1e+37 1e+37 0 1 empty empty empty 0 -8 0 10
-262144 -1 -1 46.1143 256;
#X obj 689 503 mtof;
#X obj 689 479 nbx 5 14 -1e+37 1e+37 0 1 empty empty empty 0 -8 0 10
-262144 -1 -1 70.1143 256;
#X obj 800 503 mtof;
#X obj 800 479 nbx 5 14 -1e+37 1e+37 0 1 empty empty empty 0 -8 0 10
-262144 -1 -1 82.1143 256;
#X obj 910 503 mtof;
#X obj 910 479 nbx 5 14 -1e+37 1e+37 0 1 empty empty empty 0 -8 0 10
-262144 -1 -1 46.1143 256;
#X obj 337 397 snapshot~;
#X obj 265 267 +~ 1;
#X obj 203 241 loadbang;
#X obj 203 267 metro 50;
#X obj 227 453 stream~ 18000 50;
#X obj 265 241 osc~ 0.05;
#X obj 424 267 until;
#X msg 424 215 10;
#X obj 424 345 i;
#X obj 456 345 + 1;
#X obj 424 241 t f b;
#X obj 424 371 pack f f;
#X obj 424 397 route 1 2 3 4 5 6 7 8 9 10;
#X msg 439 319 1;
#N canvas 0 50 450 300 (subpatch) 0;
#X array scale 7 float 1;
#A 0 1.02857 3.25714 4.8 5.57143 6.77143 8.48572 10.1143;
#X coords 0 12 6 0 200 140 1;
#X restore 580 215 graph;
#X obj 488 241 tabread scale;
#X obj 424 293 t b b b;
#X obj 488 345 +;
#X obj 424 189 metro 5000;
#X obj 291 806 hsl 128 15 0 1 0 1 empty empty FreezeVerb -2 -8 0 10
-262144 -1 -1 8300 1;
#X obj 447 556 autopan;
#X obj 8 980 writesf~ 2;
#X msg 82 980 start;
#X msg 130 980 stop;
#X obj 503 319 + 36;
#X obj 503 293 * 12;
#X obj 503 267 random 3;
#X obj 46 738 random 2;
#X obj 8 738 lop~;
#X obj 8 764 lop~;
#X obj 8 790 hip~;
#X obj 8 816 hip~;
#X obj 209 816 hip~;
#X obj 209 790 hip~;
#X obj 209 764 lop~;
#X obj 209 738 lop~;
#X obj 46 764 sel 0 1;
#X obj 65 842 line;
#X obj 118 738 random 2;
#X obj 118 764 sel 0 1;
#X obj 137 842 line;
#X obj 7 453 stream~ 19500 44;
#X obj 777 453 stream~ 15500 60;
#X obj 667 453 stream~ 16000 58;
#X obj 557 453 stream~ 16500 56;
#X obj 447 453 stream~ 17000 54;
#X obj 337 453 stream~ 17500 52;
#X obj 117 453 stream~ 18500 48;
#X obj 997 453 stream~ 19000 46;
#X obj 887 453 stream~ 20000 42;
#X obj 8 556 autopan;
#X obj 118 556 autopan;
#X obj 228 556 autopan;
#X obj 338 556 autopan;
#X obj 558 556 autopan;
#X obj 667 556 autopan;
#X obj 778 556 autopan;
#X obj 888 556 autopan;
#X obj 997 556 autopan;
#X obj 265 293 *~ 500;
#X obj 333 241 random 2;
#X obj 333 267 sel 0 1;
#X obj 352 345 line;
#X obj 337 371 +~;
#X msg 333 319 3000 5000;
#X msg 352 293 50 5000;
#X msg 82 954 open -bytes 4 Song_0000.wav;
#X obj 8 660 catch~ \$0-l_fx;
#X obj 209 660 catch~ \$0-r_fx;
#X obj 8 582 throw~ \$0-l_fx;
#X obj 118 582 throw~ \$0-l_fx;
#X obj 228 582 throw~ \$0-l_fx;
#X obj 338 582 throw~ \$0-l_fx;
#X obj 447 582 throw~ \$0-l_fx;
#X obj 558 582 throw~ \$0-l_fx;
#X obj 667 582 throw~ \$0-l_fx;
#X obj 778 582 throw~ \$0-l_fx;
#X obj 888 582 throw~ \$0-l_fx;
#X obj 997 582 throw~ \$0-l_fx;
#X obj 47 608 throw~ \$0-r_fx;
#X obj 157 608 throw~ \$0-r_fx;
#X obj 267 608 throw~ \$0-r_fx;
#X obj 377 608 throw~ \$0-r_fx;
#X obj 486 608 throw~ \$0-r_fx;
#X obj 597 608 throw~ \$0-r_fx;
#X obj 706 608 throw~ \$0-r_fx;
#X obj 817 608 throw~ \$0-r_fx;
#X obj 927 608 throw~ \$0-r_fx;
#X obj 1036 608 throw~ \$0-r_fx;
#X obj 209 898 freezeverb 300;
#X obj 8 898 freezeverb 299;
#X obj 433 794 osc~;
#X obj 433 716 vline~;
#X obj 433 664 * 4;
#X obj 433 742 +~;
#X obj 493 716 *~;
#X msg 433 690 \$1 2500;
#X obj 493 664 osc~ 1864;
#X obj 564 794 osc~;
#X obj 564 716 vline~;
#X obj 564 664 * 4;
#X obj 564 742 +~;
#X obj 508 690 *~ 2000;
#X obj 209 712 *~;
#X obj 8 712 *~;
#X obj 558 529 vcf~ 800;
#X msg 118 816 300 2500;
#X msg 137 790 1500 2500;
#X msg 65 790 1500 2500;
#X msg 46 816 300 2500;
#X obj 8 529 vcf~ 300;
#X obj 118 529 vcf~ 400;
#X obj 228 529 vcf~ 500;
#X obj 338 529 vcf~ 600;
#X obj 447 529 vcf~ 700;
#X obj 667 529 vcf~ 300;
#X obj 778 529 vcf~ 400;
#X obj 888 529 vcf~ 500;
#X obj 997 529 vcf~ 600;
#X obj 224 634 min 500;
#X obj 224 686 / 500;
#X obj 165 898 *~ 24;
#X obj 121 898 *~ 24;
#X obj 209 842 *~ 3;
#X obj 8 842 *~ 3;
#X obj 433 768 +~;
#X obj 564 768 +~;
#X obj 493 742 osc~ 4;
#X obj 493 768 *~ 30;
#X msg 564 690 \$1 2000;
#X obj 433 820 *~ 8e-06;
#X obj 564 820 *~ 8e-06;
#X obj 8 954 master;
#X obj 489 213 random 17;
#X obj 290 768 / 127;
#X obj 290 768 / 127;
#X obj 551 172 hsl 128 15 0 127 0 1 empty empty Random_2 -2 -8 0 10
-262144 -1 -1 6800 1;
#X obj 548 138 / 1;
#X obj 374 128 hsl 128 15 0 12700 0 1 empty empty Metro -2 -8 0 10
-262144 -1 -1 7200 1;
#X obj 371 92 * 100;
#X obj 511 78 hsl 128 15 0 12.7 0 1 empty empty Random_1 -2 -8 0 10
-262144 -1 -1 4400 1;
#X obj 507 40 / 10;
#X obj 506 13 ctlin 2;
#X obj 370 65 ctlin 4;
#X obj 547 111 ctlin 3;
#X obj 289 737 ctlin 1;
#X connect 0 0 113 0;
#X connect 0 0 130 1;
#X connect 1 0 0 0;
#X connect 2 0 138 1;
#X connect 3 0 2 0;
#X connect 4 0 120 0;
#X connect 4 0 131 1;
#X connect 5 0 4 0;
#X connect 6 0 132 1;
#X connect 7 0 6 0;
#X connect 8 0 133 1;
#X connect 9 0 8 0;
#X connect 10 0 134 1;
#X connect 11 0 10 0;
#X connect 12 0 125 1;
#X connect 13 0 12 0;
#X connect 14 0 135 1;
#X connect 15 0 14 0;
#X connect 16 0 136 1;
#X connect 17 0 16 0;
#X connect 18 0 137 1;
#X connect 19 0 18 0;
#X connect 20 0 24 0;
#X connect 20 0 61 0;
#X connect 20 0 62 0;
#X connect 20 0 63 0;
#X connect 20 0 64 0;
#X connect 20 0 65 0;
#X connect 20 0 66 0;
#X connect 20 0 67 0;
#X connect 20 0 68 0;
#X connect 20 0 69 0;
#X connect 21 0 79 0;
#X connect 21 0 122 0;
#X connect 22 0 23 0;
#X connect 22 0 38 0;
#X connect 23 0 20 0;
#X connect 24 0 132 0;
#X connect 25 0 21 0;
#X connect 26 0 36 0;
#X connect 27 0 30 0;
#X connect 28 0 29 0;
#X connect 28 0 31 0;
#X connect 29 0 28 1;
#X connect 30 0 26 0;
#X connect 30 1 33 0;
#X connect 31 0 32 0;
#X connect 32 0 1 0;
#X connect 32 1 5 0;
#X connect 32 2 7 0;
#X connect 32 3 9 0;
#X connect 32 4 11 0;
#X connect 32 5 13 0;
#X connect 32 6 15 0;
#X connect 32 7 17 0;
#X connect 32 8 19 0;
#X connect 32 9 3 0;
#X connect 33 0 28 1;
#X connect 35 0 37 0;
#X connect 36 0 28 0;
#X connect 36 1 153 0;
#X connect 36 2 46 0;
#X connect 37 0 31 1;
#X connect 38 0 27 0;
#X connect 38 0 47 0;
#X connect 38 0 58 0;
#X connect 38 0 80 0;
#X connect 39 0 109 1;
#X connect 39 0 110 1;
#X connect 40 0 93 0;
#X connect 40 1 103 0;
#X connect 42 0 41 0;
#X connect 43 0 41 0;
#X connect 44 0 37 1;
#X connect 45 0 44 0;
#X connect 46 0 45 0;
#X connect 47 0 56 0;
#X connect 48 0 49 0;
#X connect 49 0 50 0;
#X connect 50 0 51 0;
#X connect 51 0 144 0;
#X connect 52 0 143 0;
#X connect 53 0 52 0;
#X connect 54 0 53 0;
#X connect 55 0 54 0;
#X connect 56 0 129 0;
#X connect 56 1 128 0;
#X connect 57 0 48 1;
#X connect 57 0 49 1;
#X connect 57 0 50 1;
#X connect 57 0 51 1;
#X connect 58 0 59 0;
#X connect 59 0 126 0;
#X connect 59 1 127 0;
#X connect 60 0 55 1;
#X connect 60 0 54 1;
#X connect 60 0 53 1;
#X connect 60 0 52 1;
#X connect 61 0 130 0;
#X connect 62 0 136 0;
#X connect 63 0 135 0;
#X connect 64 0 125 0;
#X connect 65 0 134 0;
#X connect 66 0 133 0;
#X connect 67 0 131 0;
#X connect 68 0 138 0;
#X connect 69 0 137 0;
#X connect 70 0 89 0;
#X connect 70 1 99 0;
#X connect 71 0 90 0;
#X connect 71 1 100 0;
#X connect 72 0 91 0;
#X connect 72 1 101 0;
#X connect 73 0 92 0;
#X connect 73 1 102 0;
#X connect 74 0 94 0;
#X connect 74 1 104 0;
#X connect 75 0 95 0;
#X connect 75 1 105 0;
#X connect 76 0 96 0;
#X connect 76 1 106 0;
#X connect 77 0 97 0;
#X connect 77 1 107 0;
#X connect 78 0 98 0;
#X connect 78 1 108 0;
#X connect 79 0 83 0;
#X connect 80 0 81 0;
#X connect 81 0 84 0;
#X connect 81 1 85 0;
#X connect 82 0 83 1;
#X connect 82 0 139 0;
#X connect 83 0 20 0;
#X connect 84 0 82 0;
#X connect 85 0 82 0;
#X connect 86 0 41 0;
#X connect 87 0 124 0;
#X connect 88 0 123 0;
#X connect 109 0 152 1;
#X connect 109 1 152 0;
#X connect 110 0 152 0;
#X connect 110 1 152 1;
#X connect 111 0 150 0;
#X connect 112 0 114 0;
#X connect 113 0 116 0;
#X connect 114 0 145 0;
#X connect 115 0 114 1;
#X connect 115 0 121 1;
#X connect 116 0 112 0;
#X connect 117 0 115 0;
#X connect 118 0 151 0;
#X connect 119 0 121 0;
#X connect 120 0 149 0;
#X connect 121 0 146 0;
#X connect 122 0 115 1;
#X connect 123 0 55 0;
#X connect 123 0 141 0;
#X connect 124 0 48 0;
#X connect 124 0 142 0;
#X connect 125 0 74 0;
#X connect 126 0 60 0;
#X connect 127 0 60 0;
#X connect 128 0 57 0;
#X connect 129 0 57 0;
#X connect 130 0 70 0;
#X connect 131 0 71 0;
#X connect 132 0 72 0;
#X connect 133 0 73 0;
#X connect 134 0 40 0;
#X connect 135 0 75 0;
#X connect 136 0 76 0;
#X connect 137 0 77 0;
#X connect 138 0 78 0;
#X connect 139 0 140 0;
#X connect 140 0 123 1;
#X connect 140 0 124 1;
#X connect 141 0 152 1;
#X connect 142 0 152 0;
#X connect 143 0 109 0;
#X connect 144 0 110 0;
#X connect 145 0 111 0;
#X connect 146 0 118 0;
#X connect 147 0 148 0;
#X connect 148 0 145 1;
#X connect 148 0 146 1;
#X connect 149 0 119 0;
#X connect 150 0 110 0;
#X connect 151 0 109 0;
#X connect 152 0 41 0;
#X connect 152 1 41 1;
#X connect 153 0 35 0;
#X connect 154 0 39 0;
#X connect 156 0 153 1;
#X connect 157 0 156 0;
#X connect 158 0 38 1;
#X connect 159 0 158 0;
#X connect 160 0 46 1;
#X connect 161 0 160 0;
#X connect 162 0 161 0;
#X connect 163 0 159 0;
#X connect 164 0 157 0;
#X connect 165 0 155 0;
