#N canvas 8 60 1905 988 10;
#X obj 165 197 grids, f 38;
#X obj 379 26 vsl 15 128 0 127 0 0 empty empty empty 0 -9 0 10 -262144
-1 -1 0 1;
#X text 382 5 random;
#X obj 334 26 vsl 15 128 0 127 0 0 empty empty empty 0 -9 0 10 -262144
-1 -1 0 1;
#X text 322 1 map y;
#X obj 291 26 vsl 15 128 0 127 0 0 empty empty empty 0 -9 0 10 -262144
-1 -1 0 1;
#X text 276 1 map x;
#X obj 250 29 vsl 15 128 0 127 0 0 empty empty empty 0 -9 0 10 -262144
-1 -1 0 1;
#X text 231 2 hihat;
#X obj 205 32 vsl 15 128 0 127 0 0 empty empty empty 0 -9 0 10 -262144
-1 -1 0 1;
#X text 185 1 snare;
#X obj 159 32 vsl 15 128 0 127 0 0 empty empty empty 0 -9 0 10 -262144
-1 -1 0 1;
#X obj 62 97 f;
#X obj 95 124 + 1;
#X obj 166 228 bng 15 250 50 0 empty empty empty 17 7 0 10 -262144
-1 -1;
#X obj 213 229 bng 15 250 50 0 empty empty empty 17 7 0 10 -262144
-1 -1;
#X obj 255 230 bng 15 250 50 0 empty empty empty 17 7 0 10 -262144
-1 -1;
#X obj 300 230 bng 15 250 50 0 empty empty empty 17 7 0 10 -262144
-1 -1;
#X obj 345 231 bng 15 250 50 0 empty empty empty 17 7 0 10 -262144
-1 -1;
#X obj 390 232 bng 15 250 50 0 empty empty empty 17 7 0 10 -262144
-1 -1;
#X obj 129 429 efficient-kick;
#X obj 172 498 *~;
#X obj 313 426 efficient-snare;
#X obj 468 428 efficient-fmhh;
#X obj 365 495 *~;
#X obj 505 502 *~;
#X obj 231 398 / 127;
#X obj 598 445 / 127;
#X obj 410 392 / 127;
#X obj 4 -67 master-metronome;
#X obj 3 -132 tgl 15 0 empty empty empty 17 7 0 10 -262144 -1 -1 1
1;
#X floatatom 99 -121 5 0 0 0 - - -, f 5;
#X obj 37 -217 loadbang;
#X msg 3 -177 1;
#X obj 264 670 dac~;
#X msg 55 -178 127;
#X text -14 -146 on/off;
#X obj 497 224 vline~;
#X obj 497 193 / 127;
#X obj 521 36 vsl 15 128 0 127 0 0 empty empty empty 0 -9 0 10 -262144
-1 -1 6000 1;
#X obj 120 -307 vsl 15 64 0 127 0 0 empty empty empty 0 -9 0 10 -262144
-1 -1 0 1;
#X text 111 -339 tempo;
#X obj 102 -181 * 2;
#X floatatom 158 -198 5 0 0 0 - - -, f 5;
#X obj 277 624 *~;
#X obj 29 257 vsl 15 128 0 127 0 0 empty empty empty 0 -9 0 10 -262144
-1 -1 6000 1;
#X obj 51 470 vline~;
#X obj 27 415 / 127;
#X obj 562 224 vline~;
#X obj 562 193 / 127;
#X obj 627 34 vsl 15 128 0 127 0 0 empty empty empty 0 -9 0 10 -262144
-1 -1 6000 1;
#X obj 628 193 / 127;
#X obj 724 33 vsl 15 128 0 127 0 0 empty empty empty 0 -9 0 10 -262144
-1 -1 6000 1;
#X obj 13 173 ctlin 7;
#X text 2 229 masster volume;
#X text 144 1 kick;
#X text 483 7 kick volume;
#X text 594 7 snare volume;
#X obj 495 -27 ctlin 74;
#X obj 591 -27 ctlin 71;
#X obj 694 -28 ctlin 76;
#X obj 1322 534 ctlin;
#X floatatom 1356 584 5 0 0 0 - - -, f 5;
#X obj 167 -335 ctlin 114;
#X obj 455 -106 ctlin 18;
#X obj 534 -113 ctlin 19;
#X obj 609 -109 ctlin 16;
#X obj 228 -113 ctlin 93;
#X obj 302 -114 ctlin 73;
#X obj 382 -120 ctlin 75;
#X obj -213 -480 bng 15 250 50 0 empty empty empty 17 7 0 10 -262144
-1 -1;
#X obj -65 -409 vsl 15 64 0 127 0 0 empty empty empty 0 -9 0 10 -262144
-1 -1 2139 1;
#X obj -78 -242 i;
#X obj -86 -204 moses 2;
#X obj -72 -164 spigot;
#X obj -33 -196 < 1;
#X obj -2 -360 ctlin 77;
#X floatatom -131 -245 5 0 0 0 - - -, f 5;
#X floatatom -14 -231 5 0 0 0 - - -, f 5;
#X obj 101 -151 + 0;
#X obj 96 -94 moses 10;
#X msg 647 -340 60;
#X msg 78 48 -1;
#X obj 301 -252 grid-help;
#X obj 103 457 sampler-voice bd.wav;
#X obj 262 457 sampler-voice snare.wav;
#X obj 439 457 sampler-voice hats.wav;
#X obj -121 221 hsl 30 15 0 2 0 0 empty empty empty -2 -8 0 10 -262144
-1 -1 0 1;
#X msg 136 298 1;
#X msg 280 307 1;
#X msg 411 296 1;
#X obj 127 339 moses 0;
#X obj 294 334 moses 0;
#X obj 473 337 moses 0;
#X obj -85 182 / 64;
#X floatatom -135 302 5 0 0 0 - - -, f 5;
#X floatatom -67 310 5 0 0 0 - - -, f 5;
#X obj -63 334 s hat;
#X obj -138 328 s snare;
#X obj 1010 29 osc~;
#X obj 1226 573 *~;
#X obj 1010 -2 +~;
#X text 972 -458 Carrier;
#X floatatom 1009 -25 5 0 0 0 - - -, f 5;
#X floatatom 1093 -28 5 0 0 0 - - -, f 5;
#X obj 1095 -4 osc~;
#X obj 1099 44 *~;
#X floatatom 1132 26 5 0 0 0 - - -, f 5;
#X text 1204 -455 Mod Index;
#X text 1077 -459 Mod Freq;
#X obj 1242 201 tgl 15 0 empty empty empty 17 7 0 10 -262144 -1 -1
0 1;
#X obj 1239 318 s ndx;
#X obj 1318 318 s freq;
#X obj 1301 -51 hsl 128 15 0 1 0 0 empty empty empty -2 -8 0 10 -262144
-1 -1 3000 1;
#X obj 1453 -48 hsl 128 15 0 1 0 0 empty empty empty -2 -8 0 10 -262144
-1 -1 3000 1;
#X obj 1404 254 sig~;
#X obj 1402 371 +~;
#X obj 1401 398 osc~;
#X obj 1419 279 *~;
#X obj 1378 204 mtof;
#X obj 1419 298 osc~;
#X obj 1417 341 *~;
#X obj 1446 -6 * 2000;
#X obj 1303 67 notein;
#X obj 1241 224 metro 50;
#X floatatom 1281 195 5 0 0 0 - - -, f 5;
#X obj 1240 256 random 50;
#X obj 1239 280 + 40;
#X obj 1317 274 + 40;
#X obj 1317 255 random 100;
#X obj 1335 -83 / 127;
#X obj 1461 -82 / 127;
#X floatatom 1305 0 5 0 0 0 - - -, f 5;
#X obj 1307 -25 * 2.1;
#X obj 1363 155 stripnote;
#X obj 1028 426 pack f f f f;
#X msg 1031 459 1 \$2 \, \$4 \$3 \$2;
#X obj 974 509 vline~;
#X floatatom 1067 382 5 0 0 0 - - -, f 5;
#X floatatom 1113 383 5 0 0 0 - - -, f 5;
#X floatatom 1268 384 5 0 0 0 - - -, f 5;
#X floatatom 1026 382 5 0 0 0 - - -, f 5;
#X obj 1220 420 sel 0;
#X obj 1221 454 pack f f;
#X msg 1221 494 0 \$2;
#X obj 1061 293 vsl 15 64 0 1 0 0 empty empty empty 0 -9 0 10 -262144
-1 -1 2480 1;
#X obj 835 189 / 127;
#X obj 832 36 vsl 15 128 0 127 0 0 empty empty empty 0 -9 0 10 -262144
-1 -1 6000 1;
#X obj 592 483 *~;
#X floatatom 1452 36 5 0 0 0 - - -, f 5;
#X floatatom 1277 137 5 0 0 0 - - -, f 5;
#X obj 1108 -147 r hat;
#X obj 927 -114 r snare;
#X obj 974 -74 *;
#X floatatom 999 -97 5 0 0 0 - - -, f 5;
#X obj 1114 -98 *;
#X floatatom 1132 -119 5 0 0 0 - - -, f 5;
#X obj 905 170 / 127;
#X obj 907 28 vsl 15 128 0 127 0 0 empty empty empty 0 -9 0 10 -262144
-1 -1 5100 1;
#X obj 778 442 *~;
#X floatatom -58 381 5 0 0 0 - - -, f 5;
#X obj -54 405 s bd;
#X obj 1224 -381 vsl 15 128 0 1000 0 0 empty empty empty 0 -9 0 10
-262144 -1 -1 0 1;
#X obj 1209 -430 ctlin 77;
#X obj 1220 -408 * 10;
#X floatatom 1140 -210 5 0 0 0 - - -, f 5;
#X floatatom 1200 -61 5 0 0 0 - - -, f 5;
#X obj 1175 -231 moses 670;
#X obj 1202 -34 - 670;
#X obj 1201 -4 * 2;
#X obj 1001 -371 vsl 15 128 0 14 0 0 empty empty empty 0 -9 0 10 -262144
-1 -1 3024 1;
#X obj 1099 -364 vsl 15 128 0 14 0 0 empty empty empty 0 -9 0 10 -262144
-1 -1 3024 1;
#X obj 997 130 lop~;
#X msg 539 -212 0;
#X obj -105 127 ctlin 17;
#X obj 800 -328 ctlin 17;
#X floatatom 800 -306 5 0 0 0 - - -, f 5;
#X obj 1032 292 vsl 15 64 0 1016 0 0 empty empty empty 0 -9 0 10 -262144
-1 -1 2480 1;
#X obj 1092 292 vsl 15 64 0 1500 0 0 empty empty empty 0 -9 0 10 -262144
-1 -1 2520 1;
#X obj 1002 292 vsl 15 64 0 1016 0 0 empty empty empty 0 -9 0 10 -262144
-1 -1 2480 1;
#X text 1003 272 A;
#X text 1030 271 D;
#X text 1061 271 S;
#X text 1091 270 R;
#X floatatom 952 293 5 0 0 0 - - -, f 5;
#X obj 1053 251 / 127;
#X obj 993 257 * 8;
#X obj 1024 251 * 8;
#X obj 1100 256 * 12;
#X msg 1041 98 94;
#X obj 961 231 ctlin 41;
#X obj 1007 202 ctlin 42;
#X obj 1045 178 ctlin 43;
#X obj 1098 152 ctlin 44;
#X floatatom 939 263 5 0 0 0 - - -, f 5;
#X obj 1154 54 loadbang;
#X msg 1185 165 50;
#X floatatom 1230 165 5 0 0 0 - - -, f 5;
#X msg 1194 101 30;
#X text 819 2 synth volume;
#X text 712 1 hihat volume;
#X text 908 -3 seq volume;
#X obj 978 -411 / 9;
#X obj 1088 -413 / 9;
#X obj 630 229 vline~;
#X obj 731 228 vline~;
#X obj 760 287 / 4;
#X obj 879 -74 bng 15 250 50 0 empty empty empty 17 7 0 10 -262144
-1 -1;
#X floatatom -137 -336 5 0 0 0 - - -, f 5;
#X obj 973 -435 ctlin 79;
#X obj 1083 -438 ctlin 72;
#X obj 1317 -111 ctlin 45;
#X obj 1443 -110 ctlin 46;
#X obj 827 -215 r bd;
#X obj 853 -372 metro 1000;
#X floatatom 915 -304 5 0 0 0 - - -, f 5;
#X obj 889 -296 bng 15 250 50 0 empty empty empty 17 7 0 10 -262144
-1 -1;
#X obj 933 -211 tgl 15 0 empty empty empty 17 7 0 10 -262144 -1 -1
0 1;
#X msg 889 -276 75;
#X obj 892 -239 spigot;
#X obj 466 -432 == 0;
#X floatatom 492 -397 5 0 0 0 - - -, f 5;
#X msg 951 -267 0;
#X obj 808 -21 ctlin 40;
#X obj 890 -23 ctlin 91;
#X text -83 -446 on/off & seq;
#X msg 871 -423 155;
#X obj -195 -183 moses 51;
#X obj -13 -261 / 25;
#X obj 333 -313 delay 500;
#X msg 12 -411 26;
#X msg 825 -128 27;
#X obj 247 -415 delay 2000;
#X connect 0 0 14 0;
#X connect 0 0 26 0;
#X connect 0 0 160 0;
#X connect 0 1 15 0;
#X connect 0 1 28 0;
#X connect 0 1 95 0;
#X connect 0 2 16 0;
#X connect 0 2 27 0;
#X connect 0 2 96 0;
#X connect 0 3 17 0;
#X connect 0 4 18 0;
#X connect 0 5 19 0;
#X connect 1 0 0 6;
#X connect 3 0 0 5;
#X connect 5 0 0 4;
#X connect 7 0 0 3;
#X connect 9 0 0 2;
#X connect 9 0 220 0;
#X connect 11 0 0 1;
#X connect 12 0 13 0;
#X connect 12 0 0 0;
#X connect 13 0 12 1;
#X connect 14 0 88 0;
#X connect 14 0 87 0;
#X connect 15 0 89 0;
#X connect 16 0 90 0;
#X connect 20 0 21 0;
#X connect 21 0 44 0;
#X connect 22 0 24 0;
#X connect 23 0 25 0;
#X connect 24 0 44 0;
#X connect 25 0 44 0;
#X connect 26 0 21 1;
#X connect 27 0 25 1;
#X connect 28 0 24 1;
#X connect 29 0 12 0;
#X connect 30 0 29 0;
#X connect 31 0 80 0;
#X connect 32 0 33 0;
#X connect 32 0 35 0;
#X connect 32 0 229 0;
#X connect 32 0 232 0;
#X connect 33 0 30 0;
#X connect 35 0 31 0;
#X connect 37 0 21 1;
#X connect 38 0 37 0;
#X connect 39 0 38 0;
#X connect 40 0 42 0;
#X connect 40 0 43 0;
#X connect 42 0 79 0;
#X connect 44 0 34 0;
#X connect 44 0 34 1;
#X connect 45 0 47 0;
#X connect 46 0 44 1;
#X connect 47 0 46 0;
#X connect 48 0 24 1;
#X connect 49 0 48 0;
#X connect 50 0 49 0;
#X connect 51 0 204 0;
#X connect 52 0 51 0;
#X connect 53 0 45 0;
#X connect 58 0 39 0;
#X connect 59 0 50 0;
#X connect 60 0 52 0;
#X connect 61 1 62 0;
#X connect 63 0 40 0;
#X connect 64 0 5 0;
#X connect 65 0 3 0;
#X connect 66 0 1 0;
#X connect 67 0 11 0;
#X connect 68 0 9 0;
#X connect 69 0 7 0;
#X connect 71 0 77 0;
#X connect 71 0 208 0;
#X connect 71 0 228 0;
#X connect 72 0 73 0;
#X connect 73 0 74 0;
#X connect 74 0 30 0;
#X connect 74 0 82 0;
#X connect 75 0 74 1;
#X connect 76 0 71 0;
#X connect 77 0 227 0;
#X connect 79 0 31 0;
#X connect 80 1 29 1;
#X connect 81 0 39 0;
#X connect 81 0 50 0;
#X connect 81 0 52 0;
#X connect 81 0 45 0;
#X connect 81 0 147 0;
#X connect 81 0 158 0;
#X connect 82 0 12 1;
#X connect 84 0 21 0;
#X connect 85 0 24 0;
#X connect 86 0 25 0;
#X connect 87 0 91 1;
#X connect 87 0 92 1;
#X connect 87 0 93 1;
#X connect 88 0 91 0;
#X connect 89 0 92 0;
#X connect 90 0 93 0;
#X connect 91 0 84 0;
#X connect 91 1 20 0;
#X connect 92 0 85 0;
#X connect 92 1 22 0;
#X connect 93 0 86 0;
#X connect 93 1 23 0;
#X connect 94 0 87 0;
#X connect 95 0 98 0;
#X connect 96 0 97 0;
#X connect 99 0 172 0;
#X connect 100 0 148 0;
#X connect 101 0 99 0;
#X connect 103 0 101 0;
#X connect 104 0 105 0;
#X connect 105 0 106 0;
#X connect 106 0 101 1;
#X connect 107 0 106 1;
#X connect 110 0 124 0;
#X connect 113 0 133 0;
#X connect 114 0 122 0;
#X connect 115 0 116 0;
#X connect 115 0 118 0;
#X connect 116 0 117 0;
#X connect 117 0 100 0;
#X connect 118 0 120 0;
#X connect 119 0 115 0;
#X connect 120 0 121 0;
#X connect 121 0 116 1;
#X connect 122 0 149 0;
#X connect 122 0 121 1;
#X connect 123 0 134 0;
#X connect 123 0 150 0;
#X connect 123 1 134 1;
#X connect 123 1 142 0;
#X connect 124 0 126 0;
#X connect 124 0 129 0;
#X connect 125 0 124 1;
#X connect 126 0 127 0;
#X connect 129 0 128 0;
#X connect 130 0 113 0;
#X connect 131 0 114 0;
#X connect 133 0 118 1;
#X connect 133 0 132 0;
#X connect 134 0 119 0;
#X connect 134 0 135 0;
#X connect 135 0 136 0;
#X connect 136 0 137 0;
#X connect 137 0 100 1;
#X connect 138 0 135 2;
#X connect 139 0 135 3;
#X connect 140 0 143 1;
#X connect 141 0 135 1;
#X connect 142 0 143 0;
#X connect 143 0 144 0;
#X connect 144 0 137 0;
#X connect 145 0 139 0;
#X connect 146 0 206 0;
#X connect 147 0 146 0;
#X connect 148 0 44 0;
#X connect 151 0 155 0;
#X connect 152 0 153 0;
#X connect 153 0 103 0;
#X connect 154 0 153 1;
#X connect 155 0 104 0;
#X connect 156 0 155 1;
#X connect 157 0 159 1;
#X connect 158 0 157 0;
#X connect 159 0 44 0;
#X connect 160 0 161 0;
#X connect 162 0 167 0;
#X connect 163 0 164 0;
#X connect 164 0 162 0;
#X connect 166 0 168 0;
#X connect 167 0 165 0;
#X connect 167 1 166 0;
#X connect 168 0 169 0;
#X connect 169 0 107 0;
#X connect 170 0 154 0;
#X connect 171 0 156 0;
#X connect 172 0 159 0;
#X connect 173 0 159 1;
#X connect 174 0 94 0;
#X connect 175 0 176 0;
#X connect 177 0 138 0;
#X connect 178 0 140 0;
#X connect 179 0 141 0;
#X connect 185 0 145 0;
#X connect 186 0 184 0;
#X connect 186 0 179 0;
#X connect 187 0 177 0;
#X connect 188 0 178 0;
#X connect 189 0 172 1;
#X connect 190 0 186 0;
#X connect 190 0 194 0;
#X connect 191 0 187 0;
#X connect 192 0 185 0;
#X connect 193 0 188 0;
#X connect 194 0 186 0;
#X connect 195 0 189 0;
#X connect 195 0 196 0;
#X connect 195 0 198 0;
#X connect 196 0 186 0;
#X connect 196 0 187 0;
#X connect 196 0 185 0;
#X connect 196 0 188 0;
#X connect 198 0 130 0;
#X connect 198 0 131 0;
#X connect 198 0 202 0;
#X connect 198 0 203 0;
#X connect 202 0 170 0;
#X connect 203 0 171 0;
#X connect 204 0 25 1;
#X connect 205 0 148 1;
#X connect 206 0 205 0;
#X connect 207 0 158 0;
#X connect 209 0 202 0;
#X connect 210 0 203 0;
#X connect 211 0 130 0;
#X connect 212 0 131 0;
#X connect 214 0 215 0;
#X connect 214 0 216 0;
#X connect 216 0 218 0;
#X connect 217 0 155 0;
#X connect 217 0 153 0;
#X connect 218 0 219 0;
#X connect 219 0 217 0;
#X connect 220 0 221 0;
#X connect 221 0 219 1;
#X connect 221 0 214 0;
#X connect 222 0 219 1;
#X connect 223 0 147 0;
#X connect 224 0 158 0;
#X connect 226 0 214 1;
#X connect 227 0 173 0;
#X connect 227 1 207 0;
#X connect 228 0 72 0;
#X connect 228 0 78 0;
#X connect 228 0 75 0;
#X connect 229 0 226 0;
#X connect 229 0 81 0;
#X connect 229 0 173 0;
#X connect 229 0 230 0;
#X connect 230 0 71 0;
#X connect 232 0 173 0;
