#N canvas 942 263 860 655 10;
#X obj 81 101 +~;
#X obj 79 213 phasor~;
#X obj 81 123 mtof~;
#X obj 79 290 *~, f 4;
#X obj 79 312 clip~ 0 1;
#X obj 79 339 cos~;
#X obj 341 331 /~;
#X obj 341 290 sig~ 1000;
#X obj 93 513 -~ 0.25;
#X obj 164 307 cos~;
#X obj 164 327 *~ 0.5;
#X obj 168 498 *~;
#X obj 123 689 cos~;
#X obj 123 629 clip~ -1 1;
#X obj 123 649 *~ 0.25;
#X obj 123 609 hip~ 2;
#X obj 123 669 +~ 0.75;
#X obj 123 783 outlet~;
#X obj 122 557 goshhead;
#X obj 343 423 *~;
#X obj 164 349 +~ 0.3;
#X obj 164 370 *~ -3;
#X obj 164 287 +~ 0.25;
#X obj 84 418 *~ 0.3;
#X obj 106 449 +~ 0.7;
#X obj 123 589 *~ 0.45;
#X obj 256 167 *~;
#X obj 256 188 clip~ 4000 9e+006;
#X obj 256 210 -~ 4000;
#X obj 257 231 /~;
#X obj 255 258 -~;
#X obj 300 124 sig~;
#X obj 245 294 *~;
#X text 11 269 generate impulse;
#X text 285 235 calculate multiplier;
#X text 110 388 feedback masking;
#X text 335 504 delay time;
#X text 195 609 shaping;
#X obj 122 25 inlet~;
#X obj 625 18 inlet;
#X obj 625 40 sel 0 1 2 3 4 5 6 7 8 9;
#X obj 315 85 unpack f f f f f f;
#X msg 152 427 1 \$1;
#X obj 151 452 -;
#X msg 499 76 11.98 8800 0.605 -1.35 -0.52 0.364;
#X msg 503 100 10.75 7228 0.606 1.494 0.565 0.68;
#X msg 505 124 16.36 7228 0.636 1.484 0.545 0.68;
#X msg 635 149 2.708 2566 0.7 2.431 0.813 0.117;
#X msg 632 168 7.834 4141 0.275 -0.56 -2.49 0.298;
#X msg 527 199 8.562 3004 0.921 -0.46 -1.96 0.125;
#X msg 524 224 31.75 9117 0.818 0.534 2 0.732;
#X msg 617 260 4.661 6094 0.417 0.094 -3.87 0.533;
#X msg 618 285 4.173 6661 0.352 -0.34 -3.56 0.413;
#X msg 623 310 1.244 6283 0.204 -0.77 -1.39 0.618;
#X obj 77 21 inlet~;
#X connect 0 0 2 0;
#X connect 1 0 3 0;
#X connect 1 0 22 0;
#X connect 2 0 1 0;
#X connect 2 0 26 0;
#X connect 2 0 29 1;
#X connect 2 0 32 0;
#X connect 3 0 4 0;
#X connect 4 0 5 0;
#X connect 5 0 23 0;
#X connect 6 0 19 0;
#X connect 7 0 6 0;
#X connect 8 0 18 0;
#X connect 9 0 10 0;
#X connect 10 0 20 0;
#X connect 11 0 18 2;
#X connect 12 0 17 0;
#X connect 13 0 14 0;
#X connect 14 0 16 0;
#X connect 15 0 13 0;
#X connect 16 0 12 0;
#X connect 18 0 25 0;
#X connect 19 0 18 1;
#X connect 20 0 21 0;
#X connect 21 0 11 1;
#X connect 22 0 9 0;
#X connect 23 0 24 0;
#X connect 23 0 8 0;
#X connect 24 0 11 0;
#X connect 25 0 15 0;
#X connect 26 0 27 0;
#X connect 27 0 28 0;
#X connect 28 0 29 0;
#X connect 29 0 30 1;
#X connect 30 0 3 1;
#X connect 30 0 32 1;
#X connect 31 0 26 1;
#X connect 31 0 30 0;
#X connect 32 0 6 1;
#X connect 38 0 0 1;
#X connect 39 0 40 0;
#X connect 40 0 44 0;
#X connect 40 1 45 0;
#X connect 40 2 46 0;
#X connect 40 3 47 0;
#X connect 40 4 48 0;
#X connect 40 5 49 0;
#X connect 40 6 50 0;
#X connect 40 7 51 0;
#X connect 40 8 52 0;
#X connect 40 9 53 0;
#X connect 41 0 31 0;
#X connect 41 1 27 1;
#X connect 41 1 28 1;
#X connect 41 2 23 1;
#X connect 41 2 42 0;
#X connect 41 3 20 1;
#X connect 41 4 21 1;
#X connect 41 5 19 1;
#X connect 42 0 43 0;
#X connect 43 0 24 1;
#X connect 44 0 41 0;
#X connect 45 0 41 0;
#X connect 46 0 41 0;
#X connect 47 0 41 0;
#X connect 48 0 41 0;
#X connect 49 0 41 0;
#X connect 50 0 41 0;
#X connect 51 0 41 0;
#X connect 52 0 41 0;
#X connect 53 0 41 0;
#X connect 54 0 0 0;
