#N canvas 119 382 1476 1046 10;
#X obj 122 388 hsl 128 15 0 127 0 0 empty empty Velo_to_amplitude -2
-8 0 10 -262130 -1 -1 6000 1;
#X obj 122 408 hsl 128 15 0 127 0 0 empty empty &_to_speed 32 26 0
10 -262130 -1 -1 4900 1;
#X obj 202 187 vsl 15 128 0 127 0 0 empty \$1-NsusCtl Sus 0 -9 0 10
-262144 -1 -1 9900 1;
#X obj 119 197 vsl 15 128 0 127 0 0 empty empty Del 0 -9 0 10 -262130
-1 -1 0 1;
#X obj 144 197 vsl 15 128 0 127 0 0 empty empty Atk 0 -9 0 10 -262130
-1 -1 6400 1;
#X obj 169 197 vsl 15 128 0 127 0 0 empty empty Dec 0 -9 0 10 -262130
-1 -1 7100 1;
#X obj 237 197 vsl 15 128 0 127 0 0 empty empty Rel 0 -9 0 10 -262130
-1 -1 3600 1;
#X floatatom 119 328 5 0 0 0 - - -, f 5;
#X obj 20 210 / 1000;
#X floatatom 144 348 5 0 0 0 - - -, f 5;
#X floatatom 169 328 5 0 0 0 - - -, f 5;
#X floatatom 219 347 5 0 0 0 - - -, f 5;
#X obj 426 65 loadbang;
#X obj 299 360 - 64;
#X obj 301 444 / 64;
#X obj 301 423 +;
#X obj 551 30 change;
#X obj 551 52 sel 0 1;
#X obj 301 464 t f f;
#X obj 328 486 < 0;
#X obj 326 510 t f f;
#X obj 334 534 == 0;
#X obj 329 402 > 0;
#X obj 301 381 t f f;
#X obj 301 487 abs;
#X obj 385 549 t f f;
#X obj 385 571 *;
#X obj 385 595 * 2000;
#X obj 481 515 t f f;
#X obj 481 537 *;
#X obj 481 561 * 2000;
#X obj 481 583 + 5;
#X obj 584 519 t f f;
#X obj 584 541 *;
#X obj 584 565 * 2000;
#X obj 654 504 t f f;
#X obj 654 526 *;
#X obj 654 550 * 2000;
#X obj 654 572 + 5;
#X obj 469 641 +;
#X obj 469 616 t b f;
#X obj 384 519 / 127;
#X obj 480 489 / 127;
#X obj 584 493 / 127;
#X obj 651 473 / 127;
#X obj 584 587 + 0;
#X obj 385 617 + 0;
#X msg 551 113 symbol nope;
#X msg 721 118 symbol nope;
#X msg 551 157 \; \$1 color 0;
#X msg 721 161 \; \$1 color 1;
#X obj 18 259 / 1000;
#X obj 17 304 / 1000;
#X msg 330 102 0;
#X msg 366 114 6;
#X msg 398 125 36;
#X obj 17 350 / 1000;
#X obj 584 210 - 64;
#X obj 584 289 / 64;
#X obj 584 270 +;
#X obj 603 251 > 0;
#X obj 584 229 t f f f;
#X obj 623 270 < 0;
#X obj 584 308 abs;
#X obj 684 216 - 64;
#X obj 684 295 / 64;
#X obj 684 276 +;
#X obj 703 257 > 0;
#X obj 684 235 t f f f;
#X obj 723 276 < 0;
#X obj 684 314 abs;
#X msg 488 111 64;
#X obj 20 189 r \$1-Ndel-\$2;
#X obj 18 238 r \$1-Natk-\$2;
#X obj 17 283 r \$1-Ndec-\$2;
#X obj 17 329 r \$1-Nrel-\$2;
#X obj 529 358 s \$1-Nampvelo1-\$2;
#X obj 543 378 s \$1-Nampvelo2-\$2;
#X obj 684 361 s \$1-Nspdvelo1-\$2;
#X obj 698 381 s \$1-Nspdvelo2-\$2;
#X obj 158 592 s \$1-Nsus-\$2;
#X obj 189 630 s \$1-N0lv-\$2;
#X obj 223 657 s \$1-Npek-\$2;
#X obj 285 703 s \$1-Ndel-\$2;
#X obj 328 738 s \$1-Natk-\$2;
#X obj 393 784 s \$1-Ndna-\$2;
#X obj 462 821 s \$1-Ndec-\$2;
#X obj 517 862 s \$1-Nrel-\$2;
#X obj 551 135 makefilename \$1-NsusCtl;
#X obj 721 140 makefilename \$1-NsusCtl;
#X obj 439 147 s \$1-NsusCtl;
#X msg 438 125 100;
#X obj 101 138 cnv 15 10 10 empty \$1-Ndescript1 Higher_values_result
20 12 0 10 -262144 -66577 0;
#X msg 1260 86 symbol nope;
#X obj 1260 288 makefilename \$1-Ndescript1;
#X obj 101 151 cnv 15 10 10 empty \$1-Ndescript2 in_lesser_output 20
12 0 10 -262144 -66577 0;
#X obj 1241 369 makefilename \$1-Ndescript2;
#X msg 1241 395 \; \$1 label when_sustain_is_near_full;
#X obj 101 117 cnv 15 10 10 empty \$1-Ndescript0 Velocity_effect: 20
12 0 10 -262144 -66577 0;
#X obj 1274 212 makefilename \$1-Ndescript0;
#X msg 1274 248 \; \$1 label Negative_sustain_inverts;
#X obj 1059 548 makefilename \$1-Ndescript1;
#X obj 1040 629 makefilename \$1-Ndescript2;
#X obj 1078 477 makefilename \$1-Ndescript0;
#X msg 1054 452 symbol nope;
#X msg 1073 508 \; \$1 label Velocity_effect:;
#X msg 1057 582 \; \$1 label Higher_values_result;
#X msg 1037 655 \; \$1 label in_greater_output;
#X obj 1261 548 makefilename \$1-Ndescript1;
#X obj 1242 629 makefilename \$1-Ndescript2;
#X obj 1280 477 makefilename \$1-Ndescript0;
#X msg 1256 449 symbol nope;
#X msg 1275 508 \; \$1 label Velocity_effect:;
#X msg 1259 582 \; \$1 label Higher_values_result;
#X msg 1239 655 \; \$1 label in_lesser_output;
#X obj 1055 794 makefilename \$1-Ndescript1;
#X obj 1036 875 makefilename \$1-Ndescript2;
#X obj 1074 723 makefilename \$1-Ndescript0;
#X msg 1049 700 symbol nope;
#X msg 1069 754 \; \$1 label Velocity_effect:;
#X msg 1053 828 \; \$1 label Higher_values_result;
#X obj 1257 794 makefilename \$1-Ndescript1;
#X obj 1238 875 makefilename \$1-Ndescript2;
#X obj 1276 723 makefilename \$1-Ndescript0;
#X msg 1251 700 symbol nope;
#X msg 1271 754 \; \$1 label Velocity_effect:;
#X msg 1255 828 \; \$1 label Higher_values_result;
#X msg 1033 901 \; \$1 label in_faster_timing;
#X msg 1237 904 \; \$1 label in_slower_timing;
#X obj 1085 399 sel 0 1 2 3 4;
#X obj 1085 371 f;
#X obj 1077 308 t b f;
#X msg 394 356 0;
#X obj 1077 282 r \$1-Ndescriptsend-\$2;
#X obj 394 376 s \$1-Ndescriptsend-\$2;
#X obj 827 389 s \$1-Ndescriptsend-\$2;
#X msg 832 350 1;
#X msg 864 367 2;
#X obj 856 210 sel 1;
#X obj 881 233 bang;
#X obj 937 220 sel 1;
#X obj 962 243 bang;
#X obj 1084 340 del 100;
#X msg 1258 323 \; \$1 label Decay_>_0_causes_a_bump;
#X obj 1032 112 loadbang;
#X msg 1032 162 0;
#X obj 1035 131 del 5;
#X obj 24 511 r \$2-env-\$1-del;
#X obj 23 544 r \$2-env-\$1-atk;
#X obj 23 574 r \$2-env-\$1-dec;
#X obj 23 604 r \$2-env-\$1-sus;
#X obj 23 632 r \$2-env-\$1-rel;
#X obj 23 662 r \$2-env-\$1-va;
#X obj 23 692 r \$2-env-\$1-vs;
#X obj 212 500 clip -1 1;
#X floatatom 209 330 5 0 0 0 - - -, f 5;
#X msg 904 346 4;
#X msg 936 363 3;
#X connect 0 0 57 0;
#X connect 1 0 64 0;
#X connect 2 0 13 0;
#X connect 2 0 132 0;
#X connect 3 0 41 0;
#X connect 3 0 132 0;
#X connect 4 0 42 0;
#X connect 4 0 132 0;
#X connect 5 0 43 0;
#X connect 5 0 132 0;
#X connect 6 0 44 0;
#X connect 6 0 132 0;
#X connect 8 0 7 0;
#X connect 12 0 91 0;
#X connect 12 0 53 0;
#X connect 12 0 54 0;
#X connect 12 0 55 0;
#X connect 12 0 71 0;
#X connect 13 0 23 0;
#X connect 14 0 18 0;
#X connect 15 0 14 0;
#X connect 16 0 17 0;
#X connect 17 0 47 0;
#X connect 17 1 48 0;
#X connect 18 0 24 0;
#X connect 18 1 19 0;
#X connect 19 0 20 0;
#X connect 19 0 16 0;
#X connect 20 0 81 0;
#X connect 20 1 21 0;
#X connect 21 0 82 0;
#X connect 22 0 15 1;
#X connect 23 0 15 0;
#X connect 23 1 22 0;
#X connect 24 0 80 0;
#X connect 24 0 154 0;
#X connect 25 0 26 0;
#X connect 25 1 26 1;
#X connect 26 0 27 0;
#X connect 27 0 46 0;
#X connect 28 0 29 0;
#X connect 28 1 29 1;
#X connect 29 0 30 0;
#X connect 30 0 31 0;
#X connect 31 0 40 0;
#X connect 31 0 84 0;
#X connect 32 0 33 0;
#X connect 32 1 33 1;
#X connect 33 0 34 0;
#X connect 34 0 45 0;
#X connect 35 0 36 0;
#X connect 35 1 36 1;
#X connect 36 0 37 0;
#X connect 37 0 38 0;
#X connect 38 0 87 0;
#X connect 39 0 85 0;
#X connect 40 0 39 0;
#X connect 40 1 39 1;
#X connect 41 0 25 0;
#X connect 42 0 28 0;
#X connect 43 0 32 0;
#X connect 44 0 35 0;
#X connect 45 0 86 0;
#X connect 46 0 39 0;
#X connect 46 0 83 0;
#X connect 47 0 88 0;
#X connect 48 0 89 0;
#X connect 51 0 9 0;
#X connect 52 0 10 0;
#X connect 53 0 3 0;
#X connect 54 0 4 0;
#X connect 55 0 5 0;
#X connect 55 0 6 0;
#X connect 56 0 11 0;
#X connect 57 0 61 0;
#X connect 58 0 63 0;
#X connect 59 0 58 0;
#X connect 60 0 59 1;
#X connect 60 0 138 0;
#X connect 61 0 59 0;
#X connect 61 1 60 0;
#X connect 61 2 62 0;
#X connect 62 0 76 0;
#X connect 63 0 77 0;
#X connect 64 0 68 0;
#X connect 65 0 70 0;
#X connect 66 0 65 0;
#X connect 67 0 66 1;
#X connect 67 0 140 0;
#X connect 68 0 66 0;
#X connect 68 1 67 0;
#X connect 68 2 69 0;
#X connect 69 0 78 0;
#X connect 70 0 79 0;
#X connect 71 0 0 0;
#X connect 71 0 1 0;
#X connect 72 0 8 0;
#X connect 73 0 51 0;
#X connect 74 0 52 0;
#X connect 75 0 56 0;
#X connect 88 0 49 0;
#X connect 89 0 50 0;
#X connect 91 0 90 0;
#X connect 93 0 94 0;
#X connect 93 0 96 0;
#X connect 93 0 99 0;
#X connect 94 0 143 0;
#X connect 96 0 97 0;
#X connect 99 0 100 0;
#X connect 101 0 106 0;
#X connect 102 0 107 0;
#X connect 103 0 105 0;
#X connect 104 0 103 0;
#X connect 104 0 101 0;
#X connect 104 0 102 0;
#X connect 108 0 113 0;
#X connect 109 0 114 0;
#X connect 110 0 112 0;
#X connect 111 0 110 0;
#X connect 111 0 108 0;
#X connect 111 0 109 0;
#X connect 115 0 120 0;
#X connect 116 0 127 0;
#X connect 117 0 119 0;
#X connect 118 0 117 0;
#X connect 118 0 115 0;
#X connect 118 0 116 0;
#X connect 121 0 126 0;
#X connect 122 0 128 0;
#X connect 123 0 125 0;
#X connect 124 0 123 0;
#X connect 124 0 121 0;
#X connect 124 0 122 0;
#X connect 129 0 93 0;
#X connect 129 1 104 0;
#X connect 129 2 111 0;
#X connect 129 3 118 0;
#X connect 129 4 124 0;
#X connect 130 0 129 0;
#X connect 131 0 142 0;
#X connect 131 1 130 1;
#X connect 132 0 134 0;
#X connect 133 0 131 0;
#X connect 136 0 135 0;
#X connect 137 0 135 0;
#X connect 138 0 136 0;
#X connect 138 1 139 0;
#X connect 139 0 137 0;
#X connect 140 0 156 0;
#X connect 140 1 141 0;
#X connect 141 0 157 0;
#X connect 142 0 130 0;
#X connect 144 0 146 0;
#X connect 145 0 131 0;
#X connect 146 0 145 0;
#X connect 147 0 3 0;
#X connect 148 0 4 0;
#X connect 149 0 5 0;
#X connect 150 0 2 0;
#X connect 151 0 6 0;
#X connect 152 0 0 0;
#X connect 153 0 1 0;
#X connect 154 0 155 0;
#X connect 156 0 135 0;
#X connect 157 0 135 0;
#X coords 0 -1 1 1 170 370 2 100 100;
