#N canvas 83 58 1568 950 10;
#X obj 327 -92 inlet;
#X text 374 -93 velo;
#X obj 290 824 vline~;
#X obj 290 848 *~ 0.5;
#X obj 290 892 cos~;
#X obj 290 914 *~ 0.25;
#X obj 290 870 +~ 0.25;
#X obj 336 823 vline~;
#X obj 289 940 +~ 1;
#X obj 300 970 *~;
#X obj 36 215 -;
#X obj 36 236 abs;
#X obj 51 256 t f f;
#X msg 78 277 1 \$1;
#X obj 78 299 -;
#X obj 63 320 +;
#X obj 36 286 *;
#X obj 95 184 t f f;
#X obj 126 215 -;
#X obj 126 236 abs;
#X obj 141 256 t f f;
#X msg 168 277 1 \$1;
#X obj 168 299 -;
#X obj 153 320 +;
#X obj 126 286 *;
#X obj 63 345 pack f f;
#X msg 632 769 \$1 \$2;
#X obj 115 555 *;
#X obj 146 556 *;
#X obj 181 558 *;
#X text 103 579 sus;
#X text 129 582 zerolev;
#X text 181 583 peak;
#X obj 63 376 unpack;
#X obj 303 537 *;
#X obj 334 537 *;
#X obj 370 538 *;
#X obj 404 536 *;
#X obj 496 540 f;
#X text 472 557 zerolev;
#X obj 532 535 f;
#X text 531 553 release;
#X text 298 557 del;
#X text 323 558 att;
#X text 351 556 del&att;
#X text 408 555 dec;
#X obj 114 600 t b f;
#X obj 265 602 t f f;
#X obj 305 602 t f f;
#X obj 351 603 t f f;
#X obj 398 606 t f f;
#X msg 40 672 0;
#X obj 497 579 t b f;
#X msg 285 718 0;
#X obj 285 740 pack f f;
#X obj 632 748 pack f f;
#X obj 62 403 t f f;
#X obj 294 996 outlet~;
#X msg 281 766 0 \$2;
#X obj 496 505 t b b;
#X obj 436 87 f;
#X text 462 83 is it playing?;
#X obj 327 -69 sel 0;
#X obj 354 -26 del;
#X obj 403 -6 bang;
#X msg 403 16 1;
#X obj 403 -52 t f f;
#X obj 327 -46 t b b;
#X msg 354 -6 0;
#X obj 436 111 sel 1;
#X msg 436 158 5;
#X msg 463 154 0;
#X obj 463 133 bang;
#X obj 96 162 / 127;
#X obj 37 696 pack f f f f f f;
#X obj 360 704 pack f f f f f f f f;
#X msg 360 726 \$2 \$8 \, \$2 0 \$4 \, \$3 \$5 \$4 \, \$3 0 \$6 \,
\$1 \$7 \$6;
#X msg 37 719 0 \$6 \, -1 0 \$2 \, 0 \$3 \$2 \, 1 0 \$4 \, 0 \$5 \$4
;
#X obj 478 652 f;
#X obj 265 576 +;
#X obj 351 580 +;
#X obj 898 125 + 5;
#X msg 449 -43 stop;
#X obj 430 35 t f b b;
#X obj 170 141 r \$1-Nampvelo1-\$2, f 18;
#X obj 184 161 r \$1-Nampvelo2-\$2;
#X obj 231 198 r \$1-Nspdvelo1-\$2;
#X obj 245 218 r \$1-Nspdvelo2-\$2;
#X obj 584 130 r \$1-Nsus-\$2;
#X obj 616 154 r \$1-N0lv-\$2;
#X obj 661 180 r \$1-Npek-\$2;
#X obj 732 221 r \$1-Ndel-\$2;
#X obj 757 246 r \$1-Natk-\$2;
#X obj 807 273 r \$1-Ndna-\$2;
#X obj 863 310 r \$1-Ndec-\$2;
#X obj 922 358 r \$1-Nrel-\$2;
#X connect 0 0 62 0;
#X connect 2 0 3 0;
#X connect 3 0 6 0;
#X connect 4 0 5 0;
#X connect 5 0 8 0;
#X connect 6 0 4 0;
#X connect 7 0 9 1;
#X connect 8 0 9 0;
#X connect 9 0 57 0;
#X connect 10 0 11 0;
#X connect 11 0 16 0;
#X connect 12 0 16 1;
#X connect 12 1 13 0;
#X connect 13 0 14 0;
#X connect 14 0 15 1;
#X connect 15 0 25 0;
#X connect 16 0 15 0;
#X connect 17 0 10 0;
#X connect 17 1 18 0;
#X connect 18 0 19 0;
#X connect 19 0 24 0;
#X connect 20 0 24 1;
#X connect 20 1 21 0;
#X connect 21 0 22 0;
#X connect 22 0 23 1;
#X connect 23 0 25 1;
#X connect 24 0 23 0;
#X connect 25 0 33 0;
#X connect 26 0 7 0;
#X connect 27 0 46 0;
#X connect 28 0 38 1;
#X connect 28 0 75 1;
#X connect 29 0 75 2;
#X connect 33 0 56 0;
#X connect 33 1 37 0;
#X connect 33 1 36 0;
#X connect 33 1 35 0;
#X connect 33 1 34 0;
#X connect 34 0 79 0;
#X connect 35 0 48 0;
#X connect 36 0 80 0;
#X connect 37 0 50 0;
#X connect 38 0 52 0;
#X connect 40 0 55 1;
#X connect 40 0 54 1;
#X connect 46 0 51 0;
#X connect 46 1 75 0;
#X connect 47 0 74 1;
#X connect 47 1 75 3;
#X connect 48 0 74 2;
#X connect 48 1 75 4;
#X connect 49 0 74 3;
#X connect 49 1 75 5;
#X connect 50 0 74 4;
#X connect 50 1 75 6;
#X connect 51 0 74 0;
#X connect 52 0 53 0;
#X connect 52 1 55 0;
#X connect 53 0 54 0;
#X connect 54 0 58 0;
#X connect 55 0 26 0;
#X connect 56 0 27 0;
#X connect 56 1 29 0;
#X connect 56 1 28 0;
#X connect 58 0 2 0;
#X connect 59 0 38 0;
#X connect 59 1 40 0;
#X connect 60 0 69 0;
#X connect 62 0 67 0;
#X connect 62 1 66 0;
#X connect 63 0 68 0;
#X connect 64 0 65 0;
#X connect 65 0 60 1;
#X connect 66 0 64 0;
#X connect 66 1 83 0;
#X connect 67 0 59 0;
#X connect 67 1 63 0;
#X connect 68 0 60 1;
#X connect 69 0 70 0;
#X connect 69 1 72 0;
#X connect 70 0 78 0;
#X connect 70 0 79 1;
#X connect 70 0 80 1;
#X connect 71 0 78 0;
#X connect 71 0 79 1;
#X connect 71 0 80 1;
#X connect 72 0 71 0;
#X connect 73 0 17 0;
#X connect 74 0 77 0;
#X connect 75 0 76 0;
#X connect 76 0 7 0;
#X connect 77 0 2 0;
#X connect 78 0 75 7;
#X connect 78 0 74 5;
#X connect 79 0 47 0;
#X connect 80 0 49 0;
#X connect 81 0 63 1;
#X connect 82 0 63 0;
#X connect 83 0 73 0;
#X connect 83 1 82 0;
#X connect 83 2 60 0;
#X connect 84 0 10 1;
#X connect 85 0 12 0;
#X connect 86 0 18 1;
#X connect 87 0 20 0;
#X connect 88 0 27 1;
#X connect 89 0 28 1;
#X connect 90 0 29 1;
#X connect 91 0 34 1;
#X connect 92 0 35 1;
#X connect 93 0 36 1;
#X connect 94 0 37 1;
#X connect 95 0 40 1;
#X connect 95 0 81 0;
