#N canvas 446 75 1179 924 10;
#X text 64 -4 make a poly version with the control split off;
#X obj 92 91 tgl 15 0 empty empty key_reset 17 7 0 10 -262130 -1 -1
1 1;
#X obj 102 65 cnv 15 50 15 empty \$1-NlfoHz 2.302-Hz 8 8 0 10 -262144
-66577 0;
#X obj 53 500 sel 0;
#X obj 124 603 > 120;
#X obj 124 626 sel 1;
#X obj 158 669 - 120;
#X obj 158 690 / 7;
#X obj 143 713 *;
#X obj 124 574 t f f f;
#X obj 223 636 bang;
#X obj 223 664 f;
#X obj 202 692 / 120;
#X obj 206 793 * 30;
#X obj 202 735 *;
#X obj 202 713 t f f f;
#X obj 202 755 *;
#X obj 143 735 + 30;
#X msg 86 576 0;
#X obj 228 891 wrap;
#X obj 200 870 t f f;
#X obj 212 913 -;
#X obj 202 850 * 1000;
#X obj 212 935 / 1000;
#X obj 67 69 vsl 15 128 0 127 0 0 empty empty speed 0 -9 0 10 -262130
-1 -1 5100 1;
#X obj 291 640 t f f;
#X obj 291 662 *;
#X obj 291 708 + 5;
#X obj 399 691 t f f;
#X obj 399 713 *;
#X obj 290 614 / 127;
#X obj 399 671 / 127;
#X obj 177 69 vsl 15 128 0 127 0 0 empty empty a 4 -9 0 10 -262130
-1 -1 5700 1;
#X obj 207 69 vsl 15 128 0 127 0 0 empty empty b 4 -9 0 10 -262130
-1 -1 9500 1;
#X obj 283 232 / 360;
#X obj 237 67 hradio 15 1 0 3 empty empty mode 10 -9 0 10 -262130 -1
-1 2;
#X obj 375 606 t f f f;
#X obj 340 628 sel 127;
#X obj 399 753 + 5;
#X msg 340 653 1;
#X obj 414 644 t f b;
#X msg 442 669 0;
#X obj 452 726 t f f;
#X obj 452 748 *;
#X obj 452 794 + 5;
#X obj 451 700 / 127;
#X obj 45 226 == 2;
#X obj 45 266 +;
#X obj 45 286 clip 0 1;
#X obj 45 246 t b f;
#X msg 209 984 symbol nope;
#X obj 211 960 t b f;
#X obj 209 1005 makefilename \$1-NlfoHz;
#X obj 209 1030 pack s f;
#X msg 207 1050 \; \$1 label \$2-Hz;
#X msg 47 1048 \; \$1 label DC;
#X msg 50 991 symbol nope;
#X obj 50 1012 makefilename \$1-NlfoHz;
#X obj 124 647 random 1000;
#X obj 112 670 + 1000;
#X obj 92 111 tgl 15 0 empty empty mod_wheel 17 7 0 10 -262130 -1 -1
0 1;
#X obj 93 167 hradio 15 1 0 5 empty empty empty 18 22 0 10 -262130
-1 -1 2;
#X obj 157 213 t f f f;
#X msg 205 21 64;
#X obj 196 235 sel 0 1 2;
#X obj 223 90 cnv 15 10 10 empty \$1-Nlfodescript1 LFO_movement_is_delayed
20 12 0 10 -262144 -66577 0;
#X obj 223 105 cnv 15 10 10 empty \$1-Nlfodescript2 by_time_(a). 20
12 0 10 -262144 -66577 0;
#X obj 223 120 cnv 15 10 10 empty \$1-Nlfodescript3 Adjust_phase_to_set
20 12 0 10 -262144 -66577 0;
#X obj 223 135 cnv 15 10 10 empty \$1-Nlfodescript4 DC_output_before_onset
20 12 0 10 -262144 -66577 0;
#N canvas 775 50 933 734 descript 0;
#X obj 119 17 inlet;
#X obj 286 18 inlet;
#X obj 451 28 inlet;
#X msg 117 85 symbol nope;
#X obj 117 106 makefilename \$1-Nlfodescript1;
#X msg 96 221 symbol nope;
#X obj 96 242 makefilename \$1-Nlfodescript2;
#X msg 72 348 symbol nope;
#X msg 35 503 symbol nope;
#X obj 72 369 makefilename \$1-Nlfodescript3;
#X obj 35 524 makefilename \$1-Nlfodescript4;
#X msg 532 73 symbol nope;
#X obj 532 94 makefilename \$1-Nlfodescript1;
#X msg 511 209 symbol nope;
#X obj 511 230 makefilename \$1-Nlfodescript2;
#X msg 487 336 symbol nope;
#X msg 450 491 symbol nope;
#X obj 487 357 makefilename \$1-Nlfodescript3;
#X obj 450 512 makefilename \$1-Nlfodescript4;
#X msg 317 82 symbol nope;
#X obj 317 103 makefilename \$1-Nlfodescript1;
#X msg 296 218 symbol nope;
#X obj 296 239 makefilename \$1-Nlfodescript2;
#X msg 272 345 symbol nope;
#X msg 235 500 symbol nope;
#X obj 272 366 makefilename \$1-Nlfodescript3;
#X obj 235 521 makefilename \$1-Nlfodescript4;
#X msg 114 142 \; \$1 label Output_of_LFO_modulated;
#X msg 93 278 \; \$1 label by_A/D_envelope._a/b_is;
#X msg 69 405 \; \$1 label attack/decay._Use_with;
#X msg 32 560 \; \$1 label Hz_at_zero_for_extra_env;
#X msg 314 139 \; \$1 label LFO_speed_ramps_from;
#X msg 245 560 \; \$1 label in_time_(a).;
#X msg 269 402 \; \$1 label to_set_speed;
#X msg 447 548 \; \$1 label DC_output_before_onset;
#X msg 529 130 \; \$1 label LFO_movement_is_delayed;
#X msg 508 266 \; \$1 label by_time_(a).;
#X msg 485 394 \; \$1 label Adjust_phase_to_set;
#X msg 293 275 \; \$1 label initial_speed_(b);
#X connect 0 0 3 0;
#X connect 0 0 5 0;
#X connect 0 0 7 0;
#X connect 0 0 8 0;
#X connect 1 0 24 0;
#X connect 1 0 23 0;
#X connect 1 0 21 0;
#X connect 1 0 19 0;
#X connect 2 0 16 0;
#X connect 2 0 15 0;
#X connect 2 0 13 0;
#X connect 2 0 11 0;
#X connect 3 0 4 0;
#X connect 4 0 27 0;
#X connect 5 0 6 0;
#X connect 6 0 28 0;
#X connect 7 0 9 0;
#X connect 8 0 10 0;
#X connect 9 0 29 0;
#X connect 10 0 30 0;
#X connect 11 0 12 0;
#X connect 12 0 35 0;
#X connect 13 0 14 0;
#X connect 14 0 36 0;
#X connect 15 0 17 0;
#X connect 16 0 18 0;
#X connect 17 0 37 0;
#X connect 18 0 34 0;
#X connect 19 0 20 0;
#X connect 20 0 31 0;
#X connect 21 0 22 0;
#X connect 22 0 38 0;
#X connect 23 0 25 0;
#X connect 24 0 26 0;
#X connect 25 0 33 0;
#X connect 26 0 32 0;
#X restore 177 365 pd descript;
#X msg 174 21 127;
#X obj 421 33 loadbang;
#X msg 434 69 0;
#X msg 465 71 30;
#X obj 93 183 cnv 15 10 10 empty \$1-Nlfodescript5 square 20 12 0 10
-262144 -66577 0;
#N canvas 436 119 758 565 also 0;
#X msg 31 106 symbol nope;
#X obj 63 19 inlet;
#X obj 172 26 sel 0 1 2 3 4;
#X msg 28 163 \; \$1 label sine;
#X msg 64 209 symbol nope;
#X msg 61 266 \; \$1 label triangle;
#X msg 234 112 symbol nope;
#X msg 329 172 symbol nope;
#X msg 478 67 symbol nope;
#X obj 31 127 makefilename \$1-Nlfodescript5;
#X msg 231 169 \; \$1 label square;
#X msg 326 229 \; \$1 label ramp;
#X msg 475 124 \; \$1 label saw;
#X obj 64 230 makefilename \$1-Nlfodescript5;
#X obj 234 133 makefilename \$1-Nlfodescript5;
#X obj 331 193 makefilename \$1-Nlfodescript5;
#X obj 479 88 makefilename \$1-Nlfodescript5;
#X connect 0 0 9 0;
#X connect 1 0 2 0;
#X connect 2 0 0 0;
#X connect 2 1 4 0;
#X connect 2 2 6 0;
#X connect 2 3 7 0;
#X connect 2 4 8 0;
#X connect 4 0 13 0;
#X connect 6 0 14 0;
#X connect 7 0 15 0;
#X connect 8 0 16 0;
#X connect 9 0 3 0;
#X connect 13 0 5 0;
#X connect 14 0 10 0;
#X connect 15 0 11 0;
#X connect 16 0 12 0;
#X restore 111 396 pd also;
#X obj 648 726 *;
#X obj 648 704 t f f f;
#X obj 648 746 *;
#X obj 648 683 / 127;
#X obj 652 784 * 25;
#X obj 291 686 * 5000;
#X obj 399 731 * 5000;
#X obj 452 772 * 5000;
#X obj 75 963 s \$1-NlfoSpeed-\$2;
#X obj 426 913 s \$1-NlfoPR5-\$2;
#X obj 553 858 s \$1-NlfoPR4-\$2;
#X obj 339 869 s \$1-NlfoPR3-\$2;
#X obj 317 847 s \$1-NlfoPR2-\$2;
#X obj 284 828 s \$1-NlfoPR1-\$2;
#X obj 483 368 s \$1-NlfoMW-\$2;
#X obj 284 255 s \$1-NlfoPhase-\$2;
#X obj 221 292 s \$1-NlfoShape-\$2;
#X obj 109 268 s \$1-NlfoMode-\$2;
#X obj 45 306 s \$1-NlfoReset-\$2;
#X obj 727 291 r \$2-lfo-\$1-speed;
#X obj 737 311 r \$2-lfo-\$1-keyset;
#X obj 747 331 r \$2-lfo-\$1-modwheel;
#X obj 757 351 r \$2-lfo-\$1-phase;
#X obj 767 371 r \$2-lfo-\$1-shape;
#X obj 777 391 r \$2-lfo-\$1-a;
#X obj 787 411 r \$2-lfo-\$1-b;
#X obj 797 431 r \$2-lfo-\$1-mode;
#X obj 129 142 cnv 15 40 15 empty empty empty 20 12 0 14 -262130 -66577
0;
#X floatatom 142 143 4 0 360 0 phase - -;
#X obj 27 18 ctlin 15;
#X obj 268 19 ctlin 16;
#X connect 1 0 47 0;
#X connect 3 0 18 0;
#X connect 3 0 56 0;
#X connect 3 1 9 0;
#X connect 4 0 5 0;
#X connect 5 0 58 0;
#X connect 5 1 10 0;
#X connect 6 0 7 0;
#X connect 7 0 8 1;
#X connect 8 0 17 0;
#X connect 9 0 4 0;
#X connect 9 1 6 0;
#X connect 9 2 11 1;
#X connect 10 0 11 0;
#X connect 11 0 12 0;
#X connect 12 0 15 0;
#X connect 13 0 22 0;
#X connect 13 0 84 0;
#X connect 14 0 16 0;
#X connect 15 0 14 0;
#X connect 15 1 14 1;
#X connect 15 2 16 1;
#X connect 16 0 13 0;
#X connect 17 0 22 0;
#X connect 17 0 84 0;
#X connect 18 0 84 0;
#X connect 19 0 21 1;
#X connect 20 0 21 0;
#X connect 20 1 19 0;
#X connect 21 0 23 0;
#X connect 22 0 20 0;
#X connect 23 0 51 0;
#X connect 24 0 3 0;
#X connect 25 0 26 0;
#X connect 25 1 26 1;
#X connect 26 0 81 0;
#X connect 27 0 89 0;
#X connect 28 0 29 0;
#X connect 28 1 29 1;
#X connect 29 0 82 0;
#X connect 30 0 25 0;
#X connect 31 0 28 0;
#X connect 32 0 30 0;
#X connect 33 0 36 0;
#X connect 34 0 91 0;
#X connect 35 0 62 0;
#X connect 36 0 37 0;
#X connect 36 1 79 0;
#X connect 36 2 45 0;
#X connect 37 0 39 0;
#X connect 37 1 40 0;
#X connect 38 0 88 0;
#X connect 39 0 87 0;
#X connect 40 0 31 0;
#X connect 40 1 41 0;
#X connect 41 0 87 0;
#X connect 42 0 43 0;
#X connect 42 1 43 1;
#X connect 43 0 83 0;
#X connect 44 0 85 0;
#X connect 45 0 42 0;
#X connect 46 0 49 0;
#X connect 47 0 48 0;
#X connect 48 0 94 0;
#X connect 49 0 47 0;
#X connect 49 1 47 1;
#X connect 50 0 52 0;
#X connect 51 0 50 0;
#X connect 51 1 53 1;
#X connect 52 0 53 0;
#X connect 53 0 54 0;
#X connect 56 0 57 0;
#X connect 57 0 55 0;
#X connect 58 0 59 0;
#X connect 59 0 8 0;
#X connect 60 0 90 0;
#X connect 61 0 75 0;
#X connect 61 0 92 0;
#X connect 62 1 46 0;
#X connect 62 1 93 0;
#X connect 62 2 64 0;
#X connect 63 0 33 0;
#X connect 64 0 69 0;
#X connect 64 0 70 0;
#X connect 64 1 63 0;
#X connect 64 1 69 1;
#X connect 64 2 69 2;
#X connect 70 0 33 0;
#X connect 71 0 72 0;
#X connect 71 0 73 0;
#X connect 72 0 35 0;
#X connect 72 0 32 0;
#X connect 72 0 61 0;
#X connect 72 0 60 0;
#X connect 72 0 1 0;
#X connect 72 0 104 0;
#X connect 73 0 24 0;
#X connect 76 0 78 0;
#X connect 77 0 76 0;
#X connect 77 1 76 1;
#X connect 77 2 78 1;
#X connect 78 0 80 0;
#X connect 79 0 77 0;
#X connect 80 0 86 0;
#X connect 81 0 27 0;
#X connect 82 0 38 0;
#X connect 83 0 44 0;
#X connect 95 0 24 0;
#X connect 96 0 1 0;
#X connect 97 0 60 0;
#X connect 98 0 104 0;
#X connect 99 0 61 0;
#X connect 100 0 32 0;
#X connect 101 0 33 0;
#X connect 102 0 35 0;
#X connect 104 0 34 0;
#X connect 105 0 24 0;
#X connect 106 0 32 0;
#X coords 0 -1 1 1 340 160 2 50 50;
