#N canvas 236 50 1179 924 10;
#X obj 436 766 phasor~;
#X obj 437 854 wrap~;
#X obj 479 92 inlet;
#X obj 505 767 vline~;
#X obj 580 271 samplerate~;
#X obj 580 322 /;
#X msg 580 300 1000 \$1;
#X obj 518 349 f;
#X obj 453 787 samphold~;
#X msg 518 370 1 0 \, 0 \$1 0;
#X obj 437 809 -~;
#X obj 580 238 loadbang;
#X obj 479 117 sel 0;
#X text 412 91 velo in;
#X obj 518 313 bang;
#X obj 540 1078 outlet~;
#N canvas 607 305 450 275 sine 0;
#X obj 158 26 inlet;
#X obj 158 48 switch~;
#X obj 60 19 inlet~;
#X obj 61 207 outlet~;
#X obj 60 67 cos~;
#X obj 60 87 *~ 0.5;
#X obj 60 107 +~ 0.5;
#X connect 0 0 1 0;
#X connect 2 0 4 0;
#X connect 4 0 5 0;
#X connect 5 0 6 0;
#X connect 6 0 3 0;
#X restore 438 928 pd sine;
#N canvas 607 305 450 275 ramp 0;
#X obj 158 26 inlet;
#X obj 158 48 switch~;
#X obj 60 19 inlet~;
#X obj 61 207 outlet~;
#X connect 0 0 1 0;
#X connect 2 0 3 0;
#X restore 603 929 pd ramp;
#N canvas 607 305 450 275 saw 0;
#X obj 154 43 inlet;
#X obj 154 65 switch~;
#X obj 74 38 inlet~;
#X obj 61 207 outlet~;
#X obj 60 149 -~;
#X obj 60 119 sig~ 1;
#X connect 0 0 1 0;
#X connect 2 0 4 1;
#X connect 4 0 3 0;
#X connect 5 0 4 0;
#X restore 656 929 pd saw;
#N canvas 607 305 450 275 square 0;
#X obj 154 43 inlet;
#X obj 154 65 switch~;
#X obj 74 38 inlet~;
#X obj 61 207 outlet~;
#X obj 97 134 *~ -1;
#X obj 96 114 wrap~;
#X obj 95 91 +~ 0.5;
#X obj 96 156 +~ 0.5;
#X connect 0 0 1 0;
#X connect 2 0 3 0;
#X connect 2 0 6 0;
#X connect 4 0 7 0;
#X connect 5 0 4 0;
#X connect 6 0 5 0;
#X connect 7 0 3 0;
#X restore 540 931 pd square;
#N canvas 142 83 450 300 tri 0;
#X obj 108 139 max~;
#X obj 138 67 *~ -1;
#X obj 137 89 +~ 1;
#X obj 106 160 *~ 2;
#X obj 107 185 -~ 1;
#X obj 73 16 inlet~;
#X obj 96 246 outlet~;
#X obj 253 35 inlet;
#X obj 253 57 switch~;
#X connect 0 0 3 0;
#X connect 1 0 2 0;
#X connect 2 0 0 1;
#X connect 3 0 4 0;
#X connect 4 0 6 0;
#X connect 5 0 1 0;
#X connect 5 0 0 0;
#X connect 7 0 8 0;
#X restore 494 930 pd tri;
#X obj 666 876 == 0;
#X obj 698 876 == 1;
#X obj 731 874 == 2;
#X obj 763 874 == 3;
#X obj 800 873 == 4;
#X obj 540 983 *~;
#X obj 540 1033 *~;
#X obj 518 291 spigot;
#X obj 437 831 +~;
#X obj 435 651 vline~;
#X obj 664 683 vline~;
#X obj 467 815 sig~;
#X msg 217 466 \$2 5 \, \$3 \$1 5;
#X obj 217 442 pack f f f;
#X msg 125 440 \$1 20;
#X obj 343 442 pack f f f;
#X obj 707 565 + 5;
#X obj 663 546 t f f;
#X msg 724 416 1 20;
#X obj 342 327 route 0 1 2;
#X obj 342 297 f;
#X obj 397 201 t b b;
#X obj 207 401 f;
#X obj 321 416 f;
#X obj 663 517 f;
#X obj 732 277 sel 1 2;
#X obj 662 588 pack f f f f;
#X msg 664 614 0 5 \, 1 \$1 5 \, \$4 \$2 \$3;
#X obj 350 373 bang;
#X obj 240 362 bang;
#X obj 643 437 bang;
#X obj 673 803 sig~ 1;
#X obj 669 39 inlet~;
#X obj 670 745 +~ -1;
#X obj 670 772 *~;
#X msg 343 465 0 5 \, \$3 5 \$1;
#X obj 454 431 change;
#X obj 454 451 bang;
#X obj 551 210 r \$1-NlfoReset-\$2;
#X obj 732 252 r \$1-NlfoMode-\$2;
#X obj 712 465 r \$1-NlfoPR1-\$2;
#X obj 732 485 r \$1-NlfoPR2-\$2;
#X obj 755 504 r \$1-NlfoPR3-\$2;
#X obj 87 391 r \$1-NlfoSpeed-\$2;
#X obj 190 329 r \$1-NlfoPR1-\$2;
#X obj 200 309 r \$1-NlfoPR4-\$2;
#X obj 207 287 r \$1-NlfoSpeed-\$2;
#X obj 326 255 r \$1-NlfoMode-\$2;
#X obj 408 397 r \$1-NlfoMode-\$2;
#X obj 481 491 r \$1-NlfoSpeed-\$2;
#X obj 460 535 r \$1-NlfoPR1-\$2;
#X obj 466 740 r \$1-NlfoPhase-\$2;
#X obj 716 719 r \$1-NlfoMW-\$2;
#X obj 666 844 r \$1-NlfoShape-\$2;
#X connect 0 0 8 0;
#X connect 0 0 10 0;
#X connect 1 0 16 0;
#X connect 1 0 20 0;
#X connect 1 0 19 0;
#X connect 1 0 17 0;
#X connect 1 0 18 0;
#X connect 2 0 12 0;
#X connect 3 0 8 1;
#X connect 4 0 6 0;
#X connect 5 0 7 1;
#X connect 6 0 5 0;
#X connect 7 0 9 0;
#X connect 8 0 10 1;
#X connect 9 0 3 0;
#X connect 10 0 29 0;
#X connect 11 0 4 0;
#X connect 12 1 42 0;
#X connect 14 0 7 0;
#X connect 16 0 26 0;
#X connect 17 0 26 0;
#X connect 18 0 26 0;
#X connect 19 0 26 0;
#X connect 20 0 26 0;
#X connect 21 0 16 1;
#X connect 22 0 20 1;
#X connect 23 0 19 1;
#X connect 24 0 17 1;
#X connect 25 0 18 1;
#X connect 26 0 27 0;
#X connect 27 0 15 0;
#X connect 28 0 14 0;
#X connect 29 0 1 0;
#X connect 30 0 0 0;
#X connect 31 0 26 1;
#X connect 32 0 29 1;
#X connect 33 0 30 0;
#X connect 34 0 33 0;
#X connect 35 0 30 0;
#X connect 36 0 56 0;
#X connect 37 0 47 2;
#X connect 38 0 47 0;
#X connect 38 1 37 0;
#X connect 39 0 31 0;
#X connect 40 0 51 0;
#X connect 40 1 50 0;
#X connect 40 2 49 0;
#X connect 41 0 40 0;
#X connect 42 0 41 0;
#X connect 42 1 28 0;
#X connect 43 0 34 0;
#X connect 44 0 36 0;
#X connect 45 0 38 0;
#X connect 46 0 39 0;
#X connect 46 1 39 0;
#X connect 47 0 48 0;
#X connect 48 0 31 0;
#X connect 49 0 44 0;
#X connect 50 0 43 0;
#X connect 51 0 45 0;
#X connect 52 0 27 1;
#X connect 53 0 54 0;
#X connect 54 0 55 0;
#X connect 55 0 27 1;
#X connect 56 0 30 0;
#X connect 57 0 58 0;
#X connect 58 0 7 0;
#X connect 59 0 28 1;
#X connect 60 0 46 0;
#X connect 61 0 45 1;
#X connect 62 0 47 1;
#X connect 63 0 47 3;
#X connect 64 0 35 0;
#X connect 65 0 43 1;
#X connect 66 0 34 1;
#X connect 67 0 34 2;
#X connect 68 0 41 1;
#X connect 69 0 57 0;
#X connect 70 0 36 2;
#X connect 71 0 44 1;
#X connect 72 0 32 0;
#X connect 73 0 55 1;
#X connect 74 0 21 0;
#X connect 74 0 22 0;
#X connect 74 0 23 0;
#X connect 74 0 24 0;
#X connect 74 0 25 0;
#X coords 0 924 1 923 340 160 0;
