#N canvas 306 121 1116 861 10;
#X obj 27 824 hip~ 5;
#X obj 27 846 dac~;
#X obj 27 802 *~ 0.4;
#X obj 32 15 notein;
#X obj 29 63 pack;
#X obj 36 41 +;
#X floatatom 65 45 5 0 0 1 transpose - -;
#X obj 51 773 rev2~ 84 60 1700 10;
#X text 200 772 monosodium glutamate;
#X obj 27 87 P02total;
#X connect 0 0 1 0;
#X connect 0 0 1 1;
#X connect 2 0 0 0;
#X connect 3 0 5 0;
#X connect 3 1 4 1;
#X connect 4 0 9 0;
#X connect 5 0 4 0;
#X connect 6 0 5 1;
#X connect 7 0 1 0;
#X connect 7 1 1 1;
#X connect 9 0 7 0;
#X connect 9 0 2 0;
