#N canvas 420 56 1173 984 10;
#X obj 406 72 cnv 15 100 10 empty empty Modulation_Env 20 12 0 14 -262144
-66577 0;
#X obj 580 72 cnv 15 100 10 empty empty Amplitude_Env 20 12 0 14 -262144
-66577 0;
#X obj 388 97 NenvControl 1 \$0;
#X obj 562 97 NAenvControl 2 \$0;
#X obj 408 510 cnv 15 100 10 empty empty LFO 20 12 0 14 -262144 -66577
0;
#X obj 179 330 cnv 15 100 10 empty empty Parody_2 20 12 0 24 -262144
-66577 0;
#X obj 162 137 cnv 15 10 10 empty empty sawish 4 8 0 10 -262144 -66577
0;
#X obj 207 137 cnv 15 10 10 empty empty sym 4 8 0 10 -262144 -66577
0;
#X obj 252 137 cnv 15 10 10 empty empty alt 4 8 0 10 -262144 -66577
0;
#X obj 157 158 cnv 15 10 10 empty empty very_hairy_oscillators! 20
12 0 10 -262144 -66577 0;
#X obj 157 173 cnv 15 10 10 empty empty some_shapes_alias_worse 20
12 0 10 -262144 -66577 0;
#X obj 157 188 cnv 15 10 10 empty empty humorous_gurgling 20 12 0 10
-262144 -66577 0;
#X obj 253 588 cnv 15 100 10 empty empty Output 20 12 0 14 -262144
-66577 0;
#X obj 49 589 cnv 15 100 10 empty empty FFM 20 12 0 14 -262144 -66577
0;
#X obj 49 317 cnv 15 100 10 empty empty Mix 20 12 0 14 -262144 -66577
0;
#X obj 49 433 cnv 15 100 10 empty empty Filter 20 12 0 14 -262144 -66577
0;
#X obj 162 266 hradio 15 1 0 10 empty empty empty 0 -8 0 10 -262130
-1 -1 0;
#X obj 162 121 hradio 15 1 0 10 empty empty empty 0 -8 0 10 -262130
-1 -1 3;
#X obj 49 45 cnv 15 100 10 empty empty Osc1 20 12 0 14 -262144 -66577
0;
#X obj 49 189 cnv 15 100 10 empty empty Osc2 20 12 0 14 -262144 -66577
0;
#X obj 182 403 hsl 128 15 0 127 0 0 empty empty glide -2 -8 0 10 -262130
-1 -1 1300 1;
#X text 814 447 midi in;
#N canvas 395 265 961 641 mix 0;
#X obj 106 106 vsl 15 64 0 127 0 0 empty empty 1 2 20 0 12 -262130
-1 -1 4961 1;
#X obj 131 106 vsl 15 64 0 127 0 0 empty empty 2 2 20 0 12 -262130
-1 -1 4961 1;
#X obj 156 106 vsl 15 64 0 127 0 0 empty empty RM -4 20 0 12 -262130
-1 -1 0 1;
#X obj 181 106 vsl 15 64 0 127 0 0 empty empty N 2 20 0 12 -262130
-1 -1 298 1;
#X obj 61 29 loadbang;
#X msg 61 54 90;
#X obj 330 25 r \$0-mix1;
#X obj 421 28 r \$0-mix2;
#X obj 508 29 r \$0-mixRM;
#X obj 597 28 r \$0-mixN;
#X obj 384 249 s \$0-mixNpv;
#X obj 288 247 s \$0-mixRMpv;
#X obj 198 247 s \$0-mix2pv;
#X obj 106 247 s \$0-mix1pv;
#X obj 96 55 ctlin 8;
#X obj 129 19 ctlin 9;
#X obj 147 38 ctlin 10;
#X obj 213 25 ctlin 11;
#X connect 0 0 13 0;
#X connect 1 0 12 0;
#X connect 2 0 11 0;
#X connect 3 0 10 0;
#X connect 4 0 5 0;
#X connect 5 0 0 0;
#X connect 6 0 0 0;
#X connect 7 0 1 0;
#X connect 8 0 2 0;
#X connect 9 0 3 0;
#X connect 14 0 0 0;
#X connect 15 0 1 0;
#X connect 16 0 2 0;
#X connect 17 0 3 0;
#X coords 0 -1 1 1 110 80 2 100 100;
#X restore 27 342 pd mix;
#N canvas 285 56 1039 718 filtermod 0;
#X obj 21 91 cnv 15 40 15 empty empty empty 20 12 0 14 -262130 -66577
0;
#X floatatom 29 92 5 -128 128 0 - - -;
#X obj 32 62 hsl 128 15 0 128 0 0 empty empty filter_resonance -2 -8
0 10 -262130 -1 -1 0 1;
#X obj 71 91 cnv 15 40 15 empty empty empty 20 12 0 14 -262130 -66577
0;
#X floatatom 79 92 5 -128 128 0 - - -;
#X obj 121 91 cnv 15 40 15 empty empty empty 20 12 0 14 -262130 -66577
0;
#X floatatom 129 92 5 -128 128 0 - - -;
#X obj 171 91 cnv 15 40 15 empty empty empty 20 12 0 14 -262130 -66577
0;
#X floatatom 179 92 5 -128 128 0 - - -;
#X obj 221 91 cnv 15 40 15 empty empty empty 20 12 0 14 -262130 -66577
0;
#X floatatom 229 92 5 -100 100 0 - - -;
#X obj 22 112 cnv 15 10 10 empty empty M_env 4 8 0 10 -262144 -66577
0;
#X obj 72 112 cnv 15 10 10 empty empty A_env 4 8 0 10 -262144 -66577
0;
#X obj 122 112 cnv 15 10 10 empty empty LFO 4 8 0 10 -262144 -66577
0;
#X obj 172 112 cnv 15 10 10 empty empty MW 4 8 0 10 -262144 -66577
0;
#X obj 222 112 cnv 15 10 10 empty empty Key 4 8 0 10 -262144 -66577
0;
#X obj 32 32 hsl 128 15 0 127 0 0 empty empty filter_frequency -2 -8
0 10 -262130 -1 -1 7400 1;
#X obj 173 68 bng 15 250 50 0 empty empty resonate 23 7 0 10 -262130
-1 -1;
#X obj 173 48 bng 15 250 50 0 empty empty tune 23 7 0 10 -262130 -1
-1;
#X msg 216 -36 100;
#X msg 252 -36 0;
#X obj 290 622 > 0;
#X obj 327 626 < 0;
#X obj 271 652 *;
#X obj 313 657 *;
#X obj 283 576 t f f f f;
#X obj 255 704 +;
#X obj 207 726 +;
#X obj 283 553 f;
#X obj 199 619 > 0;
#X obj 236 623 < 0;
#X obj 180 649 *;
#X obj 222 654 *;
#X obj 192 573 t f f f f;
#X obj 192 550 f;
#X obj 113 616 > 0;
#X obj 150 620 < 0;
#X obj 94 646 *;
#X obj 136 651 *;
#X obj 106 570 t f f f f;
#X obj 106 547 f;
#X obj 22 613 > 0;
#X obj 59 617 < 0;
#X obj 3 643 *;
#X obj 45 648 *;
#X obj 15 567 t f f f f;
#X obj 15 544 f;
#X obj 112 695 +;
#X obj 50 721 +;
#X obj 206 771 +;
#X obj 164 769 +;
#X obj 9 492 del 50;
#X obj 413 532 t b f b f;
#X obj 417 733 +;
#X obj 455 734 +;
#X obj 416 766 mtof;
#X obj 455 765 mtof;
#X floatatom 245 43 8 0 0 0 - - -;
#X floatatom 257 60 7 0 0 0 - - -;
#X obj 164 20 cnv 15 10 10 empty empty hz_range_b4_keyfollow: 12 12
0 10 -262144 -66577 0;
#X obj 271 91 cnv 15 40 15 empty empty empty 20 12 0 14 -262130 -66577
0;
#X floatatom 279 92 5 -36 36 0 - - -;
#X obj 262 112 cnv 15 10 10 empty empty semitones 4 8 0 10 -262144
-66577 0;
#X obj 373 553 f;
#X obj 11 513 t b b b b b;
#X obj 224 801 +;
#X obj 182 799 +;
#X obj 373 595 t f f;
#X msg 173 -40 115.2;
#X obj 449 229 / 128;
#X obj 448 251 * 5;
#X obj 464 -97 r \$0-filtfreq;
#X obj 453 -78 r \$0-filtres;
#X obj 444 -59 r \$0-filtMenv;
#X obj 433 -38 r \$0-filtAenv;
#X obj 423 -18 r \$0-filtLFO;
#X obj 413 2 r \$0-filtMW;
#X obj 403 22 r \$0-filtKey;
#X obj 393 42 r \$0-filtsemitones;
#X obj 548 289 s \$0-filtfreqpv;
#X obj 537 308 s \$0-filtrespv;
#X obj 528 327 s \$0-filtMenvpv;
#X obj 517 348 s \$0-filtAenvpv;
#X obj 507 368 s \$0-filtLFOpv;
#X obj 497 388 s \$0-filtMWpv;
#X obj 487 408 s \$0-filtKeypv;
#X obj 470 432 s \$0-filtsemitonespv;
#X obj 30 -46 ctlin 13;
#X obj 90 -28 ctlin 14;
#X connect 1 0 51 0;
#X connect 1 0 46 1;
#X connect 1 0 81 0;
#X connect 2 0 69 0;
#X connect 4 0 51 0;
#X connect 4 0 40 1;
#X connect 4 0 82 0;
#X connect 6 0 51 0;
#X connect 6 0 34 1;
#X connect 6 0 83 0;
#X connect 8 0 51 0;
#X connect 8 0 28 1;
#X connect 8 0 84 0;
#X connect 10 0 85 0;
#X connect 16 0 52 0;
#X connect 16 0 79 0;
#X connect 17 0 68 0;
#X connect 18 0 19 0;
#X connect 18 0 20 0;
#X connect 19 0 10 0;
#X connect 20 0 16 0;
#X connect 20 0 8 0;
#X connect 20 0 6 0;
#X connect 20 0 4 0;
#X connect 20 0 1 0;
#X connect 21 0 23 1;
#X connect 22 0 24 1;
#X connect 23 0 27 1;
#X connect 24 0 26 1;
#X connect 25 0 23 0;
#X connect 25 1 21 0;
#X connect 25 2 24 0;
#X connect 25 3 22 0;
#X connect 26 0 49 1;
#X connect 27 0 50 1;
#X connect 28 0 25 0;
#X connect 29 0 31 1;
#X connect 30 0 32 1;
#X connect 31 0 27 0;
#X connect 32 0 26 0;
#X connect 33 0 31 0;
#X connect 33 1 29 0;
#X connect 33 2 32 0;
#X connect 33 3 30 0;
#X connect 34 0 33 0;
#X connect 35 0 37 1;
#X connect 36 0 38 1;
#X connect 37 0 48 1;
#X connect 38 0 47 1;
#X connect 39 0 37 0;
#X connect 39 1 35 0;
#X connect 39 2 38 0;
#X connect 39 3 36 0;
#X connect 40 0 39 0;
#X connect 41 0 43 1;
#X connect 42 0 44 1;
#X connect 43 0 48 0;
#X connect 44 0 47 0;
#X connect 45 0 43 0;
#X connect 45 1 41 0;
#X connect 45 2 44 0;
#X connect 45 3 42 0;
#X connect 46 0 45 0;
#X connect 47 0 49 0;
#X connect 48 0 50 0;
#X connect 49 0 65 0;
#X connect 50 0 66 0;
#X connect 51 0 64 0;
#X connect 52 0 53 0;
#X connect 52 1 53 1;
#X connect 52 2 54 0;
#X connect 52 3 54 1;
#X connect 53 0 55 0;
#X connect 54 0 56 0;
#X connect 55 0 57 0;
#X connect 56 0 58 0;
#X connect 61 0 51 0;
#X connect 61 0 63 1;
#X connect 61 0 86 0;
#X connect 63 0 67 0;
#X connect 64 0 46 0;
#X connect 64 1 40 0;
#X connect 64 2 34 0;
#X connect 64 3 28 0;
#X connect 64 4 63 0;
#X connect 65 0 54 0;
#X connect 66 0 53 0;
#X connect 67 0 66 1;
#X connect 67 1 65 1;
#X connect 68 0 2 0;
#X connect 69 0 70 0;
#X connect 70 0 80 0;
#X connect 71 0 16 0;
#X connect 72 0 2 0;
#X connect 73 0 1 0;
#X connect 74 0 4 0;
#X connect 75 0 6 0;
#X connect 76 0 8 0;
#X connect 77 0 10 0;
#X connect 78 0 61 0;
#X connect 87 0 16 0;
#X connect 88 0 2 0;
#X coords 0 -1 1 1 300 114 2 18 15;
#X restore 28 459 pd filtermod;
#N canvas 292 54 1039 718 ampmod 0;
#X obj 32 28 hsl 128 15 0 127 0 0 empty empty amplitude -2 -8 0 10
-262130 -1 -1 11200 1;
#X obj 71 57 cnv 15 40 15 empty empty empty 20 12 0 14 -262130 -66577
0;
#X floatatom 79 58 5 -100 100 0 - - -;
#X obj 121 57 cnv 15 40 15 empty empty empty 20 12 0 14 -262130 -66577
0;
#X floatatom 129 58 5 -100 100 0 - - -;
#X obj 72 78 cnv 15 10 10 empty empty LFO 4 8 0 10 -262144 -66577 0
;
#X obj 122 78 cnv 15 10 10 empty empty MW 4 8 0 10 -262144 -66577 0
;
#X obj 108 -44 loadbang;
#X msg 108 -22 100;
#X obj 142 104 / 100;
#X obj 85 147 / 100;
#X obj 259 99 / 127;
#X obj 251 -39 r \$0-ampamp;
#X obj 277 6 r \$0-ampLFO;
#X obj 298 30 r \$0-ampMW;
#X obj 188 237 s \$0-ampamppv;
#X obj 214 282 s \$0-ampLFOpv;
#X obj 235 306 s \$0-ampMWpv;
#X connect 0 0 11 0;
#X connect 2 0 10 0;
#X connect 4 0 9 0;
#X connect 7 0 8 0;
#X connect 8 0 0 0;
#X connect 9 0 17 0;
#X connect 10 0 16 0;
#X connect 11 0 15 0;
#X connect 12 0 0 0;
#X connect 13 0 2 0;
#X connect 14 0 4 0;
#X coords 0 -1 1 1 150 80 2 18 15;
#X restore 232 618 pd ampmod;
#N canvas 752 89 1039 718 ffm 0;
#X obj 22 58 cnv 15 40 15 empty empty empty 20 12 0 14 -262130 -66577
0;
#X floatatom 30 59 5 -64 64 0 - - -;
#X obj 33 29 hsl 128 15 0 127 0 0 empty empty osc2_audio-rate_filter_modulation
-2 -8 0 10 -262130 -1 -1 0 1;
#X obj 72 58 cnv 15 40 15 empty empty empty 20 12 0 14 -262130 -66577
0;
#X floatatom 80 59 5 -64 64 0 - - -;
#X obj 122 58 cnv 15 40 15 empty empty empty 20 12 0 14 -262130 -66577
0;
#X floatatom 130 59 5 -64 64 0 - - -;
#X obj 172 58 cnv 15 40 15 empty empty empty 20 12 0 14 -262130 -66577
0;
#X floatatom 180 59 5 -64 64 0 - - -;
#X obj 23 79 cnv 15 10 10 empty empty M_env 4 8 0 10 -262144 -66577
0;
#X obj 73 79 cnv 15 10 10 empty empty A_env 4 8 0 10 -262144 -66577
0;
#X obj 123 79 cnv 15 10 10 empty empty LFO 4 8 0 10 -262144 -66577
0;
#X obj 173 79 cnv 15 10 10 empty empty MW 4 8 0 10 -262144 -66577 0
;
#X obj 32 151 / 127;
#X obj 30 178 t f f;
#X obj 30 200 *;
#X obj 28 224 * 128;
#X obj 254 21 r \$0-ffmffm;
#X obj 264 41 r \$0-ffmMenv;
#X obj 274 61 r \$0-ffmAenv;
#X obj 284 81 r \$0-ffmLFO;
#X obj 294 101 r \$0-ffmMW;
#X obj 206 270 s \$0-ffmffmpv;
#X obj 216 290 s \$0-ffmMenvpv;
#X obj 226 310 s \$0-ffmAenvpv;
#X obj 236 330 s \$0-ffmLFOpv;
#X obj 246 350 s \$0-ffmMWpv;
#X obj 26 -2 ctlin 1;
#X obj 326 170 ctlin 30;
#X connect 1 0 23 0;
#X connect 2 0 13 0;
#X connect 4 0 24 0;
#X connect 6 0 25 0;
#X connect 8 0 26 0;
#X connect 13 0 14 0;
#X connect 14 0 15 0;
#X connect 14 1 15 1;
#X connect 15 0 16 0;
#X connect 16 0 22 0;
#X connect 17 0 2 0;
#X connect 18 0 1 0;
#X connect 19 0 4 0;
#X connect 20 0 6 0;
#X connect 21 0 8 0;
#X connect 27 0 2 0;
#X connect 28 0 6 0;
#X coords 0 -1 1 1 200 80 2 18 15;
#X restore 28 618 pd ffm;
#N canvas 1005 329 450 432 pitchy 0;
#X obj 69 24 cnv 15 40 15 empty empty empty 20 12 0 14 -262130 -66577
0;
#X floatatom 77 25 5 -24 24 0 semitone - -;
#X obj 69 44 cnv 15 40 15 empty empty empty 20 12 0 14 -262130 -66577
0;
#X floatatom 77 45 5 -100 100 0 cents - -;
#X obj 59 244 +;
#X obj 145 181 / 100;
#X obj 90 210 t b f;
#X obj 26 43 bng 15 250 50 0 empty empty empty 17 7 0 10 -262130 -1
-1;
#X msg 79 -1 0;
#X obj 112 329 print;
#X obj 252 20 r \$0-ah2semi;
#X obj 262 42 r \$0-ah2cent;
#X obj 67 269 s \$0-ah2tunepv;
#X obj 238 118 ctlin 7;
#X obj 221 172 ctlin 39;
#X connect 1 0 4 0;
#X connect 3 0 5 0;
#X connect 4 0 12 0;
#X connect 5 0 6 0;
#X connect 6 0 4 0;
#X connect 6 1 4 1;
#X connect 7 0 8 0;
#X connect 8 0 1 0;
#X connect 8 0 3 0;
#X connect 10 0 1 0;
#X connect 11 0 3 0;
#X connect 13 0 1 0;
#X connect 14 0 3 0;
#X coords 0 -1 1 1 95 45 2 20 20;
#X restore 27 260 pd pitchy;
#N canvas 642 371 486 490 pitchy 1;
#X obj 69 24 cnv 15 40 15 empty empty empty 20 12 0 14 -262130 -66577
0;
#X floatatom 77 25 5 -24 24 0 semitone - -;
#X obj 69 44 cnv 15 40 15 empty empty empty 20 12 0 14 -262130 -66577
0;
#X floatatom 77 45 5 -100 100 0 cents - -;
#X obj 59 244 +;
#X obj 145 181 / 100;
#X obj 90 210 t b f;
#X obj 26 43 bng 15 250 50 0 empty empty empty 17 7 0 10 -262130 -1
-1;
#X msg 79 -1 0;
#X obj 252 20 r \$0-ah1semi;
#X obj 262 42 r \$0-ah1cent;
#X obj 59 269 s \$0-ah1tunepv;
#X obj 299 109 ctlin 4;
#X obj 289 141 ctlin 38;
#X connect 1 0 4 0;
#X connect 3 0 5 0;
#X connect 4 0 11 0;
#X connect 5 0 6 0;
#X connect 6 0 4 0;
#X connect 6 1 4 1;
#X connect 7 0 8 0;
#X connect 8 0 1 0;
#X connect 8 0 3 0;
#X connect 9 0 1 0;
#X connect 10 0 3 0;
#X connect 12 0 1 0;
#X connect 13 0 3 0;
#X coords 0 -1 1 1 95 45 2 20 20;
#X restore 27 115 pd pitchy;
#N canvas 818 229 1039 718 pitchmod 0;
#X obj 25 22 cnv 15 40 15 empty empty empty 20 12 0 14 -262130 -66577
0;
#X floatatom 33 23 5 -36 36 0 - - -;
#X obj 75 22 cnv 15 40 15 empty empty empty 20 12 0 14 -262130 -66577
0;
#X floatatom 83 23 5 -36 36 0 - - -;
#X obj 125 22 cnv 15 40 15 empty empty empty 20 12 0 14 -262130 -66577
0;
#X floatatom 133 23 5 -36 36 0 - - -;
#X obj 225 22 cnv 15 40 15 empty empty empty 20 12 0 14 -262130 -66577
0;
#X floatatom 233 23 5 -36 36 0 - - -;
#X obj 26 43 cnv 15 10 10 empty empty M_env 4 8 0 10 -262144 -66577
0;
#X obj 76 43 cnv 15 10 10 empty empty A_env 4 8 0 10 -262144 -66577
0;
#X obj 126 43 cnv 15 10 10 empty empty LFO 4 8 0 10 -262144 -66577
0;
#X obj 226 43 cnv 15 10 10 empty empty PW 4 8 0 10 -262144 -66577 0
;
#X obj 278 22 bng 15 250 50 0 empty empty empty 17 7 0 10 -262130 -1
-1;
#X msg 141 173 0;
#X msg 180 170 2;
#X obj 80 -3 loadbang;
#X obj 175 22 cnv 15 40 15 empty empty empty 20 12 0 14 -262130 -66577
0;
#X floatatom 183 23 5 -100 100 0 - - -;
#X obj 166 43 cnv 15 10 10 empty empty LFO_fine 4 8 0 10 -262144 -66577
0;
#X obj 260 93 / 100;
#X obj 779 20 r \$0-ah1pitchMenv;
#X obj 789 40 r \$0-ah1pitchAenv;
#X obj 798 61 r \$0-ah1pitchLFO;
#X obj 809 80 r \$0-ah1pitchLFOf;
#X obj 819 100 r \$0-ah1pitchPW;
#X obj 30 278 s \$0-ah1pitchMenvpv;
#X obj 40 298 s \$0-ah1pitchAenvpv;
#X obj 50 318 s \$0-ah1pitchLFOpv;
#X obj 60 338 s \$0-ah1pitchLFOfpv;
#X obj 70 358 s \$0-ah1pitchPWpv;
#X obj 374 104 ctlin 2;
#X connect 1 0 25 0;
#X connect 3 0 26 0;
#X connect 5 0 27 0;
#X connect 7 0 29 0;
#X connect 12 0 13 0;
#X connect 12 0 14 0;
#X connect 13 0 5 0;
#X connect 13 0 3 0;
#X connect 13 0 1 0;
#X connect 13 0 17 0;
#X connect 14 0 7 0;
#X connect 15 0 12 0;
#X connect 17 0 19 0;
#X connect 19 0 28 0;
#X connect 20 0 1 0;
#X connect 21 0 3 0;
#X connect 22 0 5 0;
#X connect 23 0 17 0;
#X connect 24 0 7 0;
#X connect 30 0 5 0;
#X coords 0 -1 1 1 285 45 2 18 15;
#X restore 27 67 pd pitchmod;
#N canvas 292 56 1039 718 pitchmod 0;
#X obj 25 22 cnv 15 40 15 empty empty empty 20 12 0 14 -262130 -66577
0;
#X floatatom 33 23 5 -36 36 0 - - -;
#X obj 75 22 cnv 15 40 15 empty empty empty 20 12 0 14 -262130 -66577
0;
#X floatatom 83 23 5 -36 36 0 - - -;
#X obj 125 22 cnv 15 40 15 empty empty empty 20 12 0 14 -262130 -66577
0;
#X floatatom 133 23 5 -36 36 0 - - -;
#X obj 225 22 cnv 15 40 15 empty empty empty 20 12 0 14 -262130 -66577
0;
#X floatatom 233 23 5 -36 36 0 - - -;
#X obj 26 43 cnv 15 10 10 empty empty M_env 4 8 0 10 -262144 -66577
0;
#X obj 76 43 cnv 15 10 10 empty empty A_env 4 8 0 10 -262144 -66577
0;
#X obj 126 43 cnv 15 10 10 empty empty LFO 4 8 0 10 -262144 -66577
0;
#X obj 226 43 cnv 15 10 10 empty empty PW 4 8 0 10 -262144 -66577 0
;
#X obj 278 22 bng 15 250 50 0 empty empty empty 17 7 0 10 -262130 -1
-1;
#X msg 141 173 0;
#X msg 180 170 2;
#X obj 80 -3 loadbang;
#X obj 175 22 cnv 15 40 15 empty empty empty 20 12 0 14 -262130 -66577
0;
#X floatatom 183 23 5 -100 100 0 - - -;
#X obj 166 43 cnv 15 10 10 empty empty LFO_fine 4 8 0 10 -262144 -66577
0;
#X obj 301 120 / 100;
#X obj 779 20 r \$0-ah2pitchMenv;
#X obj 789 40 r \$0-ah2pitchAenv;
#X obj 799 60 r \$0-ah2pitchLFO;
#X obj 809 80 r \$0-ah2pitchLFOf;
#X obj 819 100 r \$0-ah2pitchPW;
#X obj 56 240 s \$0-ah2pitchMenvpv;
#X obj 66 260 s \$0-ah2pitchAenvpv;
#X obj 76 280 s \$0-ah2pitchLFOpv;
#X obj 86 300 s \$0-ah2pitchLFOfpv;
#X obj 96 320 s \$0-ah2pitchPWpv;
#X obj 406 154 ctlin 5;
#X connect 1 0 25 0;
#X connect 3 0 26 0;
#X connect 5 0 27 0;
#X connect 7 0 29 0;
#X connect 12 0 13 0;
#X connect 12 0 14 0;
#X connect 13 0 5 0;
#X connect 13 0 3 0;
#X connect 13 0 1 0;
#X connect 13 0 17 0;
#X connect 14 0 7 0;
#X connect 15 0 12 0;
#X connect 17 0 19 0;
#X connect 19 0 28 0;
#X connect 20 0 1 0;
#X connect 21 0 3 0;
#X connect 22 0 5 0;
#X connect 23 0 17 0;
#X connect 24 0 7 0;
#X connect 30 0 5 0;
#X coords 0 -1 1 1 285 45 2 18 15;
#X restore 27 212 pd pitchmod;
#X obj 162 282 cnv 15 10 10 empty empty sawish 4 8 0 10 -262144 -66577
0;
#X obj 207 282 cnv 15 10 10 empty empty sym 4 8 0 10 -262144 -66577
0;
#X obj 252 282 cnv 15 10 10 empty empty alt 4 8 0 10 -262144 -66577
0;
#X obj 770 497 poly 8 0;
#X obj 770 548 route 1 2 3 4 5 6 7 8;
#X obj 770 525 pack f f f;
#X obj 767 801 outlet~;
#N canvas 664 370 450 300 bends 0;
#X obj 141 265 outlet~;
#X obj 194 264 outlet~;
#X obj 213 22 bendin;
#X obj 225 104 - 8192;
#X obj 240 66 > 8192;
#X obj 213 47 t f f;
#X obj 225 85 +;
#X obj 226 127 / 8192;
#X obj 141 20 ctlin 1;
#X obj 141 122 sig~;
#X obj 141 100 / 127;
#X obj 141 144 lop~ 8;
#X obj 194 236 vline~, f 10;
#X connect 2 0 5 0;
#X connect 3 0 7 0;
#X connect 4 0 6 1;
#X connect 5 0 6 0;
#X connect 5 1 4 0;
#X connect 6 0 3 0;
#X connect 7 0 12 0;
#X connect 8 0 10 0;
#X connect 9 0 11 0;
#X connect 10 0 9 0;
#X connect 11 0 0 0;
#X connect 12 0 1 0;
#X restore 934 577 pd bends;
#N canvas 732 50 1131 823 sethide 0;
#X obj 127 856 s \$0-env-1-del;
#X obj 126 922 s \$0-env-1-atk;
#X obj 127 991 s \$0-env-1-dec;
#X obj 127 1056 s \$0-env-1-sus;
#X obj 128 1122 s \$0-env-1-rel;
#X obj 128 1186 s \$0-env-1-va;
#X obj 128 1251 s \$0-env-1-vs;
#X obj 395 856 s \$0-env-2-del;
#X obj 393 923 s \$0-env-2-atk;
#X obj 393 991 s \$0-env-2-dec;
#X obj 393 1057 s \$0-env-2-sus;
#X obj 396 1122 s \$0-env-2-rel;
#X obj 394 1189 s \$0-env-2-va;
#X obj 395 1252 s \$0-env-2-vs;
#X obj 560 143 s \$0-filtfreq;
#X obj 561 207 s \$0-filtres;
#X obj 564 273 s \$0-filtMenv;
#X obj 564 337 s \$0-filtAenv;
#X obj 563 405 s \$0-filtLFO;
#X obj 564 468 s \$0-filtMW;
#X obj 564 531 s \$0-filtKey;
#X obj 563 594 s \$0-filtsemitones;
#X obj 595 789 s \$0-lfo-1-speed;
#X obj 598 856 s \$0-lfo-1-keyset;
#X obj 596 917 s \$0-lfo-1-MW;
#X obj 600 988 s \$0-lfo-1-phase;
#X obj 598 1055 s \$0-lfo-1-shape;
#X obj 596 1122 s \$0-lfo-1-a;
#X obj 598 1186 s \$0-lfo-1-b;
#X obj 599 1252 s \$0-lfo-1-mode;
#X obj 99 24 sel 0 1 2 3 4;
#X obj 977 20 sel 0 1 2 3 4;
#X obj 811 21 sel 0 1 2 3 4;
#X obj 644 13 sel 0 1 2 3 4;
#X obj 474 13 sel 0 1 2 3 4;
#X obj 465 125 sel 0 1 2 3 4;
#X obj 96 91 sel 0 1 2 3 4;
#X obj 96 156 sel 0 1 2 3 4;
#X obj 96 221 sel 0 1 2 3 4;
#X obj 94 283 sel 0 1 2 3 4;
#X obj 110 398 sel 0 1 2 3 4;
#X obj 108 465 sel 0 1 2 3 4;
#X obj 108 530 sel 0 1 2 3 4;
#X obj 108 595 sel 0 1 2 3 4;
#X obj 106 657 sel 0 1 2 3 4;
#X obj 299 36 sel 0 1 2 3 4;
#X obj 296 104 sel 0 1 2 3 4;
#X obj 299 200 sel 0 1 2 3 4;
#X obj 297 405 sel 0 1 2 3 4;
#X obj 295 480 sel 0 1 2 3 4;
#X obj 301 603 sel 0 1 2 3 4;
#X obj 631 100 sel 0 1 2 3 4;
#X obj 631 164 sel 0 1 2 3 4;
#X obj 635 231 sel 0 1 2 3 4;
#X obj 636 293 sel 0 1 2 3 4;
#X obj 635 360 sel 0 1 2 3 4;
#X obj 634 426 sel 0 1 2 3 4;
#X obj 635 487 sel 0 1 2 3 4;
#X obj 634 550 sel 0 1 2 3 4;
#X obj 814 119 sel 0 1 2 3 4;
#X obj 814 183 sel 0 1 2 3 4;
#X obj 814 250 sel 0 1 2 3 4;
#X obj 815 312 sel 0 1 2 3 4;
#X obj 815 374 sel 0 1 2 3 4;
#X obj 991 140 sel 0 1 2 3 4;
#X obj 991 268 sel 0 1 2 3 4;
#X obj 992 334 sel 0 1 2 3 4;
#X obj 198 813 sel 0 1 2 3 4;
#X obj 198 877 sel 0 1 2 3 4;
#X obj 198 944 sel 0 1 2 3 4;
#X obj 199 1012 sel 0 1 2 3 4;
#X obj 199 1079 sel 0 1 2 3 4;
#X obj 200 1143 sel 0 1 2 3 4;
#X obj 200 1210 sel 0 1 2 3 4;
#X obj 464 813 sel 0 1 2 3 4;
#X obj 464 877 sel 0 1 2 3 4;
#X obj 464 944 sel 0 1 2 3 4;
#X obj 465 1012 sel 0 1 2 3 4;
#X obj 465 1079 sel 0 1 2 3 4;
#X obj 466 1143 sel 0 1 2 3 4;
#X obj 466 1210 sel 0 1 2 3 4;
#X obj 666 744 sel 0 1 2 3 4;
#X obj 666 811 sel 0 1 2 3 4;
#X obj 666 875 sel 0 1 2 3 4;
#X obj 666 942 sel 0 1 2 3 4;
#X obj 667 1010 sel 0 1 2 3 4;
#X obj 667 1077 sel 0 1 2 3 4;
#X obj 668 1141 sel 0 1 2 3 4;
#X obj 668 1208 sel 0 1 2 3 4;
#X obj 27 24 r \$0-set;
#X obj 22 69 s \$0-ah1pitchMenv;
#X obj 25 91 r \$0-set;
#X obj 26 135 s \$0-ah1pitchAenv;
#X obj 25 156 r \$0-set;
#X obj 25 199 s \$0-ah1pitchLFO;
#X obj 25 221 r \$0-set;
#X obj 23 263 s \$0-ah1pitchLFOf;
#X obj 23 283 r \$0-set;
#X obj 24 329 s \$0-ah1pitchPW;
#X obj 39 398 r \$0-set;
#X obj 41 444 s \$0-ah2pitchMenv;
#X obj 37 465 r \$0-set;
#X obj 36 510 s \$0-ah2pitchAenv;
#X obj 37 530 r \$0-set;
#X obj 36 575 s \$0-ah2pitchLFO;
#X obj 37 595 r \$0-set;
#X obj 38 637 s \$0-ah2pitchLFOf;
#X obj 35 657 r \$0-set;
#X obj 35 700 s \$0-ah2pitchPW;
#X obj 228 36 r \$0-set;
#X obj 249 81 s \$0-ah1semi;
#X obj 225 104 r \$0-set;
#X obj 258 146 s \$0-ah1cent;
#X obj 228 200 r \$0-set;
#X obj 248 249 s \$0-ah1shape;
#X obj 449 175 s \$0-glide;
#X obj 440 57 s \$0-mix1;
#X obj 226 405 r \$0-set;
#X obj 228 448 s \$0-ah2semi;
#X obj 224 480 r \$0-set;
#X obj 225 525 s \$0-ah2cent;
#X obj 230 603 r \$0-set;
#X obj 233 648 s \$0-ah2shape;
#X obj 403 13 r \$0-set;
#X obj 394 125 r \$0-set;
#X obj 573 13 r \$0-set;
#X obj 612 58 s \$0-mix2;
#X obj 560 100 r \$0-set;
#X obj 560 164 r \$0-set;
#X obj 564 231 r \$0-set;
#X obj 565 293 r \$0-set;
#X obj 564 360 r \$0-set;
#X obj 563 426 r \$0-set;
#X obj 564 487 r \$0-set;
#X obj 563 550 r \$0-set;
#X obj 740 21 r \$0-set;
#X obj 775 66 s \$0-mixRM;
#X obj 906 20 r \$0-set;
#X obj 935 65 s \$0-mixN;
#X obj 743 119 r \$0-set;
#X obj 743 164 s \$0-ffmffm;
#X obj 743 183 r \$0-set;
#X obj 742 227 s \$0-ffmMenv;
#X obj 743 250 r \$0-set;
#X obj 745 292 s \$0-ffmAenv;
#X obj 744 312 r \$0-set;
#X obj 744 355 s \$0-ffmLFO;
#X obj 744 374 r \$0-set;
#X obj 741 419 s \$0-ffmMW;
#X obj 920 140 r \$0-set;
#X obj 921 184 s \$0-ampamp;
#X obj 920 268 r \$0-set;
#X obj 920 313 s \$0-ampLFO;
#X obj 921 334 r \$0-set;
#X obj 919 377 s \$0-ampMW;
#X obj 127 813 r \$0-set;
#X obj 127 878 r \$0-set;
#X obj 127 944 r \$0-set;
#X obj 128 1012 r \$0-set;
#X obj 128 1079 r \$0-set;
#X obj 129 1143 r \$0-set;
#X obj 129 1210 r \$0-set;
#X obj 393 813 r \$0-set;
#X obj 393 877 r \$0-set;
#X obj 393 944 r \$0-set;
#X obj 394 1012 r \$0-set;
#X obj 394 1079 r \$0-set;
#X obj 395 1143 r \$0-set;
#X obj 394 1210 r \$0-set;
#X obj 595 744 r \$0-set;
#X obj 595 811 r \$0-set;
#X obj 595 875 r \$0-set;
#X obj 592 942 r \$0-set;
#X obj 596 1010 r \$0-set;
#X obj 596 1077 r \$0-set;
#X obj 597 1141 r \$0-set;
#X obj 597 1208 r \$0-set;
#X msg 27 46 0;
#X msg 25 113 0;
#X msg 25 178 0;
#X msg 25 243 30;
#X msg 23 305 2;
#X msg 228 58 12;
#X msg 225 126 -1;
#X msg 394 147 13;
#X msg 403 35 100;
#X msg 573 35 100;
#X msg 740 43 0;
#X msg 906 42 6;
#X msg 39 420 0;
#X msg 37 487 0;
#X msg 37 552 0;
#X msg 37 617 30;
#X msg 35 679 2;
#X msg 226 427 0;
#X msg 224 502 0;
#X msg 230 625 0;
#X msg 560 186 0;
#X msg 560 122 74;
#X msg 564 253 61;
#X msg 565 315 0;
#X msg 564 382 0;
#X msg 563 448 0;
#X msg 564 509 0;
#X msg 563 572 0;
#X msg 743 141 0;
#X msg 743 205 0;
#X msg 743 272 0;
#X msg 744 334 0;
#X msg 744 396 0;
#X msg 920 162 112;
#X msg 920 290 0;
#X msg 921 356 0;
#X msg 127 835 28;
#X msg 127 899 25;
#X msg 127 966 37;
#X msg 128 1034 94;
#X msg 128 1101 25;
#X msg 129 1165 128;
#X msg 129 1232 58;
#X msg 393 835 0;
#X msg 393 899 0;
#X msg 393 966 0;
#X msg 394 1034 128;
#X msg 394 1101 49;
#X msg 395 1165 64;
#X msg 395 1231 64;
#X msg 595 766 59;
#X msg 596 1099 45;
#X msg 597 1163 95;
#X msg 597 1230 2;
#X msg 595 833 1;
#X msg 595 897 0;
#X msg 595 964 180;
#X msg 596 1032 0;
#X msg 57 46 0;
#X msg 55 113 0;
#X msg 55 178 0;
#X msg 55 243 0;
#X msg 53 305 2;
#X msg 258 58 0;
#X msg 255 126 2;
#X msg 258 222 3;
#X msg 433 35 100;
#X msg 603 35 85;
#X msg 770 43 0;
#X msg 936 42 19;
#X msg 424 147 31;
#X msg 69 420 0;
#X msg 67 487 0;
#X msg 67 552 0;
#X msg 67 617 0;
#X msg 65 679 2;
#X msg 260 625 3;
#X msg 254 502 -2;
#X msg 256 427 0;
#X msg 590 122 0;
#X msg 590 186 117;
#X msg 594 253 12;
#X msg 595 315 0;
#X msg 594 382 0;
#X msg 593 448 0;
#X msg 594 509 100;
#X msg 593 572 12;
#X msg 773 141 32;
#X msg 775 204 0;
#X msg 773 272 0;
#X msg 774 334 0;
#X msg 774 396 0;
#X msg 950 162 127;
#X msg 950 290 41;
#X msg 951 356 0;
#X msg 625 766 46;
#X msg 626 1099 46;
#X msg 627 1163 127;
#X msg 627 1230 1;
#X msg 625 833 0;
#X msg 625 897 0;
#X msg 625 964 180;
#X msg 626 1032 0;
#X msg 423 835 0;
#X msg 423 899 0;
#X msg 423 966 111;
#X msg 424 1101 111;
#X msg 424 1034 0;
#X msg 425 1165 64;
#X msg 425 1232 64;
#X msg 157 835 30;
#X msg 157 899 62;
#X msg 157 966 0;
#X msg 158 1034 127;
#X msg 158 1101 22;
#X msg 159 1165 64;
#X msg 159 1232 64;
#X msg 87 46 12;
#X msg 85 113 0;
#X msg 85 178 0;
#X msg 85 243 0;
#X msg 83 305 2;
#X msg 288 58 0;
#X msg 285 126 -11;
#X msg 288 222 0;
#X msg 463 35 90;
#X msg 633 35 0;
#X msg 800 43 0;
#X msg 966 42 0;
#X msg 454 147 0;
#X msg 99 420 0;
#X msg 97 487 0;
#X msg 97 552 0;
#X msg 97 617 0;
#X msg 95 679 2;
#X msg 286 427 12;
#X msg 284 502 -9;
#X msg 290 625 1;
#X msg 620 122 0;
#X msg 620 186 109;
#X msg 624 253 0;
#X msg 625 315 0;
#X msg 624 382 0;
#X msg 623 448 0;
#X msg 624 509 100;
#X msg 623 572 19;
#X msg 803 141 0;
#X msg 803 205 0;
#X msg 804 334 31;
#X msg 803 272 0;
#X msg 804 396 0;
#X msg 980 290 0;
#X msg 981 356 0;
#X msg 187 835 70;
#X msg 187 899 14;
#X msg 187 966 0;
#X msg 188 1034 127;
#X msg 188 1101 0;
#X msg 189 1165 64;
#X msg 189 1232 64;
#X msg 455 1165 64;
#X msg 455 1232 64;
#X msg 453 835 0;
#X msg 453 899 0;
#X msg 453 966 0;
#X msg 454 1034 127;
#X msg 454 1101 0;
#X msg 655 766 0;
#X msg 655 833 1;
#X msg 655 897 0;
#X msg 655 964 180;
#X msg 656 1032 2;
#X msg 656 1099 0;
#X msg 657 1163 58;
#X msg 657 1230 0;
#X msg 117 46 0;
#X msg 115 113 0;
#X msg 115 178 0;
#X msg 115 243 0;
#X msg 113 305 2;
#X msg 318 58 0;
#X msg 315 126 -10;
#X msg 319 222 7;
#X msg 320 625 8;
#X msg 314 502 10;
#X msg 316 427 0;
#X msg 493 35 100;
#X msg 663 35 82;
#X msg 830 43 0;
#X msg 996 42 7;
#X msg 650 122 81;
#X msg 650 186 35;
#X msg 654 253 -49;
#X msg 655 315 0;
#X msg 654 382 8;
#X msg 653 448 0;
#X msg 654 509 0;
#X msg 653 572 0;
#X msg 833 141 0;
#X msg 833 205 0;
#X msg 833 272 0;
#X msg 834 334 0;
#X msg 834 396 0;
#X msg 685 766 53;
#X msg 1010 290 0;
#X msg 1011 356 0;
#X msg 686 1099 110;
#X msg 687 1163 102;
#X msg 687 1230 1;
#X msg 685 833 1;
#X msg 685 897 0;
#X msg 685 964 180;
#X msg 686 1032 1;
#X msg 217 835 0;
#X msg 217 899 92;
#X msg 217 966 44;
#X msg 218 1034 36;
#X msg 218 1101 44;
#X msg 219 1165 64;
#X msg 219 1232 22;
#X msg 483 835 0;
#X msg 483 899 58;
#X msg 483 966 0;
#X msg 484 1034 127;
#X msg 484 1101 97;
#X msg 485 1165 64;
#X msg 485 1232 38;
#X msg 484 147 60;
#X msg 152 53 -1;
#X msg 145 113 0;
#X msg 145 178 0;
#X msg 145 243 18;
#X msg 143 305 2;
#X msg 348 58 12;
#X msg 345 126 -1;
#X msg 348 222 9;
#X msg 523 35 127;
#X msg 693 35 48;
#X msg 860 43 0;
#X msg 1026 42 25;
#X msg 514 147 0;
#X msg 680 122 25;
#X msg 680 188 63;
#X msg 684 253 61;
#X msg 685 315 0;
#X msg 684 382 0;
#X msg 683 448 0;
#X msg 684 509 74;
#X msg 683 572 0;
#X msg 863 141 0;
#X msg 863 205 0;
#X msg 863 272 0;
#X msg 864 334 64;
#X msg 864 396 0;
#X msg 1040 290 0;
#X msg 1041 356 0;
#X msg 129 420 0;
#X msg 127 487 0;
#X msg 127 552 0;
#X msg 127 617 0;
#X msg 125 679 2;
#X msg 159 420 0;
#X msg 157 487 0;
#X msg 157 552 0;
#X msg 157 617 4;
#X msg 155 679 2;
#X msg 346 427 0;
#X msg 344 502 0;
#X msg 350 625 0;
#X msg 715 766 56;
#X msg 716 1099 51;
#X msg 717 1163 127;
#X msg 717 1230 0;
#X msg 715 833 1;
#X msg 715 897 0;
#X msg 715 964 180;
#X msg 716 1032 4;
#X msg 247 835 0;
#X msg 247 899 0;
#X msg 247 966 37;
#X msg 248 1101 44;
#X msg 248 1034 64;
#X msg 249 1165 64;
#X msg 249 1232 64;
#X msg 513 835 0;
#X msg 513 899 0;
#X msg 513 966 0;
#X msg 514 1034 127;
#X msg 514 1101 101;
#X msg 515 1165 64;
#X msg 515 1232 64;
#X msg 228 222 3;
#X msg 1040 162 78;
#X msg 1010 162 127;
#X msg 980 162 112;
#X connect 30 0 177 0;
#X connect 30 1 235 0;
#X connect 30 2 294 0;
#X connect 30 3 352 0;
#X connect 30 4 405 0;
#X connect 31 0 188 0;
#X connect 31 1 246 0;
#X connect 31 2 305 0;
#X connect 31 3 366 0;
#X connect 31 4 416 0;
#X connect 32 0 187 0;
#X connect 32 1 245 0;
#X connect 32 2 304 0;
#X connect 32 3 365 0;
#X connect 32 4 415 0;
#X connect 33 0 186 0;
#X connect 33 1 244 0;
#X connect 33 2 303 0;
#X connect 33 3 364 0;
#X connect 33 4 414 0;
#X connect 34 0 185 0;
#X connect 34 1 243 0;
#X connect 34 2 302 0;
#X connect 34 3 363 0;
#X connect 34 4 413 0;
#X connect 35 0 184 0;
#X connect 35 1 247 0;
#X connect 35 2 306 0;
#X connect 35 3 404 0;
#X connect 35 4 417 0;
#X connect 36 0 178 0;
#X connect 36 1 236 0;
#X connect 36 2 295 0;
#X connect 36 3 353 0;
#X connect 36 4 406 0;
#X connect 37 0 179 0;
#X connect 37 1 237 0;
#X connect 37 2 296 0;
#X connect 37 3 354 0;
#X connect 37 4 407 0;
#X connect 38 0 180 0;
#X connect 38 1 238 0;
#X connect 38 2 297 0;
#X connect 38 3 355 0;
#X connect 38 4 408 0;
#X connect 39 0 181 0;
#X connect 39 1 239 0;
#X connect 39 2 298 0;
#X connect 39 3 356 0;
#X connect 39 4 409 0;
#X connect 40 0 189 0;
#X connect 40 1 248 0;
#X connect 40 2 307 0;
#X connect 40 3 433 0;
#X connect 40 4 438 0;
#X connect 41 0 190 0;
#X connect 41 1 249 0;
#X connect 41 2 308 0;
#X connect 41 3 434 0;
#X connect 41 4 439 0;
#X connect 42 0 191 0;
#X connect 42 1 250 0;
#X connect 42 2 309 0;
#X connect 42 3 435 0;
#X connect 42 4 440 0;
#X connect 43 0 192 0;
#X connect 43 1 251 0;
#X connect 43 2 310 0;
#X connect 43 3 436 0;
#X connect 43 4 441 0;
#X connect 44 0 193 0;
#X connect 44 1 252 0;
#X connect 44 2 311 0;
#X connect 44 3 437 0;
#X connect 44 4 442 0;
#X connect 45 0 182 0;
#X connect 45 1 240 0;
#X connect 45 2 299 0;
#X connect 45 3 357 0;
#X connect 45 4 410 0;
#X connect 46 0 183 0;
#X connect 46 1 241 0;
#X connect 46 2 300 0;
#X connect 46 3 358 0;
#X connect 46 4 411 0;
#X connect 47 0 468 0;
#X connect 47 1 242 0;
#X connect 47 2 301 0;
#X connect 47 3 359 0;
#X connect 47 4 412 0;
#X connect 48 0 194 0;
#X connect 48 1 255 0;
#X connect 48 2 312 0;
#X connect 48 3 362 0;
#X connect 48 4 443 0;
#X connect 49 0 195 0;
#X connect 49 1 254 0;
#X connect 49 2 313 0;
#X connect 49 3 361 0;
#X connect 49 4 444 0;
#X connect 50 0 196 0;
#X connect 50 1 253 0;
#X connect 50 2 314 0;
#X connect 50 3 360 0;
#X connect 50 4 445 0;
#X connect 51 0 198 0;
#X connect 51 1 256 0;
#X connect 51 2 315 0;
#X connect 51 3 367 0;
#X connect 51 4 418 0;
#X connect 52 0 197 0;
#X connect 52 1 257 0;
#X connect 52 2 316 0;
#X connect 52 3 368 0;
#X connect 52 4 419 0;
#X connect 53 0 199 0;
#X connect 53 1 258 0;
#X connect 53 2 317 0;
#X connect 53 3 369 0;
#X connect 53 4 420 0;
#X connect 54 0 200 0;
#X connect 54 1 259 0;
#X connect 54 2 318 0;
#X connect 54 3 370 0;
#X connect 54 4 421 0;
#X connect 55 0 201 0;
#X connect 55 1 260 0;
#X connect 55 2 319 0;
#X connect 55 3 371 0;
#X connect 55 4 422 0;
#X connect 56 0 202 0;
#X connect 56 1 261 0;
#X connect 56 2 320 0;
#X connect 56 3 372 0;
#X connect 56 4 423 0;
#X connect 57 0 203 0;
#X connect 57 1 262 0;
#X connect 57 2 321 0;
#X connect 57 3 373 0;
#X connect 57 4 424 0;
#X connect 58 0 204 0;
#X connect 58 1 263 0;
#X connect 58 2 322 0;
#X connect 58 3 374 0;
#X connect 58 4 425 0;
#X connect 59 0 205 0;
#X connect 59 1 264 0;
#X connect 59 2 323 0;
#X connect 59 3 375 0;
#X connect 59 4 426 0;
#X connect 60 0 206 0;
#X connect 60 1 265 0;
#X connect 60 2 324 0;
#X connect 60 3 376 0;
#X connect 60 4 427 0;
#X connect 61 0 207 0;
#X connect 61 1 266 0;
#X connect 61 2 326 0;
#X connect 61 3 377 0;
#X connect 61 4 428 0;
#X connect 62 0 208 0;
#X connect 62 1 267 0;
#X connect 62 2 325 0;
#X connect 62 3 378 0;
#X connect 62 4 429 0;
#X connect 63 0 209 0;
#X connect 63 1 268 0;
#X connect 63 2 327 0;
#X connect 63 3 379 0;
#X connect 63 4 430 0;
#X connect 64 0 210 0;
#X connect 64 1 269 0;
#X connect 64 2 471 0;
#X connect 64 3 470 0;
#X connect 64 4 469 0;
#X connect 65 0 211 0;
#X connect 65 1 270 0;
#X connect 65 2 328 0;
#X connect 65 3 381 0;
#X connect 65 4 431 0;
#X connect 66 0 212 0;
#X connect 66 1 271 0;
#X connect 66 2 329 0;
#X connect 66 3 382 0;
#X connect 66 4 432 0;
#X connect 67 0 213 0;
#X connect 67 1 287 0;
#X connect 67 2 330 0;
#X connect 67 3 390 0;
#X connect 67 4 454 0;
#X connect 68 0 214 0;
#X connect 68 1 288 0;
#X connect 68 2 331 0;
#X connect 68 3 391 0;
#X connect 68 4 455 0;
#X connect 69 0 215 0;
#X connect 69 1 289 0;
#X connect 69 2 332 0;
#X connect 69 3 392 0;
#X connect 69 4 456 0;
#X connect 70 0 216 0;
#X connect 70 1 290 0;
#X connect 70 2 333 0;
#X connect 70 3 393 0;
#X connect 70 4 458 0;
#X connect 71 0 217 0;
#X connect 71 1 291 0;
#X connect 71 2 334 0;
#X connect 71 3 394 0;
#X connect 71 4 457 0;
#X connect 72 0 218 0;
#X connect 72 1 292 0;
#X connect 72 2 335 0;
#X connect 72 3 395 0;
#X connect 72 4 459 0;
#X connect 73 0 219 0;
#X connect 73 1 293 0;
#X connect 73 2 336 0;
#X connect 73 3 396 0;
#X connect 73 4 460 0;
#X connect 74 0 220 0;
#X connect 74 1 280 0;
#X connect 74 2 339 0;
#X connect 74 3 397 0;
#X connect 74 4 461 0;
#X connect 75 0 221 0;
#X connect 75 1 281 0;
#X connect 75 2 340 0;
#X connect 75 3 398 0;
#X connect 75 4 462 0;
#X connect 76 0 222 0;
#X connect 76 1 282 0;
#X connect 76 2 341 0;
#X connect 76 3 399 0;
#X connect 76 4 463 0;
#X connect 77 0 223 0;
#X connect 77 1 284 0;
#X connect 77 2 342 0;
#X connect 77 3 400 0;
#X connect 77 4 464 0;
#X connect 78 0 224 0;
#X connect 78 1 283 0;
#X connect 78 2 343 0;
#X connect 78 3 401 0;
#X connect 78 4 465 0;
#X connect 79 0 225 0;
#X connect 79 1 285 0;
#X connect 79 2 337 0;
#X connect 79 3 402 0;
#X connect 79 4 466 0;
#X connect 80 0 226 0;
#X connect 80 1 286 0;
#X connect 80 2 338 0;
#X connect 80 3 403 0;
#X connect 80 4 467 0;
#X connect 81 0 227 0;
#X connect 81 1 272 0;
#X connect 81 2 344 0;
#X connect 81 3 380 0;
#X connect 81 4 446 0;
#X connect 82 0 231 0;
#X connect 82 1 276 0;
#X connect 82 2 345 0;
#X connect 82 3 386 0;
#X connect 82 4 450 0;
#X connect 83 0 232 0;
#X connect 83 1 277 0;
#X connect 83 2 346 0;
#X connect 83 3 387 0;
#X connect 83 4 451 0;
#X connect 84 0 233 0;
#X connect 84 1 278 0;
#X connect 84 2 347 0;
#X connect 84 3 388 0;
#X connect 84 4 452 0;
#X connect 85 0 234 0;
#X connect 85 1 279 0;
#X connect 85 2 348 0;
#X connect 85 3 389 0;
#X connect 85 4 453 0;
#X connect 86 0 228 0;
#X connect 86 1 273 0;
#X connect 86 2 349 0;
#X connect 86 3 383 0;
#X connect 86 4 447 0;
#X connect 87 0 229 0;
#X connect 87 1 274 0;
#X connect 87 2 350 0;
#X connect 87 3 384 0;
#X connect 87 4 448 0;
#X connect 88 0 230 0;
#X connect 88 1 275 0;
#X connect 88 2 351 0;
#X connect 88 3 385 0;
#X connect 88 4 449 0;
#X connect 89 0 30 0;
#X connect 91 0 36 0;
#X connect 93 0 37 0;
#X connect 95 0 38 0;
#X connect 97 0 39 0;
#X connect 99 0 40 0;
#X connect 101 0 41 0;
#X connect 103 0 42 0;
#X connect 105 0 43 0;
#X connect 107 0 44 0;
#X connect 109 0 45 0;
#X connect 111 0 46 0;
#X connect 113 0 47 0;
#X connect 117 0 48 0;
#X connect 119 0 49 0;
#X connect 121 0 50 0;
#X connect 123 0 34 0;
#X connect 124 0 35 0;
#X connect 125 0 33 0;
#X connect 127 0 51 0;
#X connect 128 0 52 0;
#X connect 129 0 53 0;
#X connect 130 0 54 0;
#X connect 131 0 55 0;
#X connect 132 0 56 0;
#X connect 133 0 57 0;
#X connect 134 0 58 0;
#X connect 135 0 32 0;
#X connect 137 0 31 0;
#X connect 139 0 59 0;
#X connect 141 0 60 0;
#X connect 143 0 61 0;
#X connect 145 0 62 0;
#X connect 147 0 63 0;
#X connect 149 0 64 0;
#X connect 151 0 65 0;
#X connect 153 0 66 0;
#X connect 155 0 67 0;
#X connect 156 0 68 0;
#X connect 157 0 69 0;
#X connect 158 0 70 0;
#X connect 159 0 71 0;
#X connect 160 0 72 0;
#X connect 161 0 73 0;
#X connect 162 0 74 0;
#X connect 163 0 75 0;
#X connect 164 0 76 0;
#X connect 165 0 77 0;
#X connect 166 0 78 0;
#X connect 167 0 79 0;
#X connect 168 0 80 0;
#X connect 169 0 81 0;
#X connect 170 0 82 0;
#X connect 171 0 83 0;
#X connect 172 0 84 0;
#X connect 173 0 85 0;
#X connect 174 0 86 0;
#X connect 175 0 87 0;
#X connect 176 0 88 0;
#X connect 177 0 90 0;
#X connect 178 0 92 0;
#X connect 179 0 94 0;
#X connect 180 0 96 0;
#X connect 181 0 98 0;
#X connect 182 0 110 0;
#X connect 183 0 112 0;
#X connect 184 0 115 0;
#X connect 185 0 116 0;
#X connect 186 0 126 0;
#X connect 187 0 136 0;
#X connect 188 0 138 0;
#X connect 189 0 100 0;
#X connect 190 0 102 0;
#X connect 191 0 104 0;
#X connect 192 0 106 0;
#X connect 193 0 108 0;
#X connect 194 0 118 0;
#X connect 195 0 120 0;
#X connect 196 0 122 0;
#X connect 197 0 15 0;
#X connect 198 0 14 0;
#X connect 199 0 16 0;
#X connect 200 0 17 0;
#X connect 201 0 18 0;
#X connect 202 0 19 0;
#X connect 203 0 20 0;
#X connect 204 0 21 0;
#X connect 205 0 140 0;
#X connect 206 0 142 0;
#X connect 207 0 144 0;
#X connect 208 0 146 0;
#X connect 209 0 148 0;
#X connect 210 0 150 0;
#X connect 211 0 152 0;
#X connect 212 0 154 0;
#X connect 213 0 0 0;
#X connect 214 0 1 0;
#X connect 215 0 2 0;
#X connect 216 0 3 0;
#X connect 217 0 4 0;
#X connect 218 0 5 0;
#X connect 219 0 6 0;
#X connect 220 0 7 0;
#X connect 221 0 8 0;
#X connect 222 0 9 0;
#X connect 223 0 10 0;
#X connect 224 0 11 0;
#X connect 225 0 12 0;
#X connect 226 0 13 0;
#X connect 227 0 22 0;
#X connect 228 0 27 0;
#X connect 229 0 28 0;
#X connect 230 0 29 0;
#X connect 231 0 23 0;
#X connect 232 0 24 0;
#X connect 233 0 25 0;
#X connect 234 0 26 0;
#X connect 235 0 90 0;
#X connect 236 0 92 0;
#X connect 237 0 94 0;
#X connect 238 0 96 0;
#X connect 239 0 98 0;
#X connect 240 0 110 0;
#X connect 241 0 112 0;
#X connect 242 0 114 0;
#X connect 243 0 116 0;
#X connect 244 0 126 0;
#X connect 245 0 136 0;
#X connect 246 0 138 0;
#X connect 247 0 115 0;
#X connect 248 0 100 0;
#X connect 249 0 102 0;
#X connect 250 0 104 0;
#X connect 251 0 106 0;
#X connect 252 0 108 0;
#X connect 253 0 122 0;
#X connect 254 0 120 0;
#X connect 255 0 118 0;
#X connect 256 0 14 0;
#X connect 257 0 15 0;
#X connect 258 0 16 0;
#X connect 259 0 17 0;
#X connect 260 0 18 0;
#X connect 261 0 19 0;
#X connect 262 0 20 0;
#X connect 263 0 21 0;
#X connect 264 0 140 0;
#X connect 265 0 142 0;
#X connect 266 0 144 0;
#X connect 267 0 146 0;
#X connect 268 0 148 0;
#X connect 269 0 150 0;
#X connect 270 0 152 0;
#X connect 271 0 154 0;
#X connect 272 0 22 0;
#X connect 273 0 27 0;
#X connect 274 0 28 0;
#X connect 275 0 29 0;
#X connect 276 0 23 0;
#X connect 277 0 24 0;
#X connect 278 0 25 0;
#X connect 279 0 26 0;
#X connect 280 0 7 0;
#X connect 281 0 8 0;
#X connect 282 0 9 0;
#X connect 283 0 11 0;
#X connect 284 0 10 0;
#X connect 285 0 12 0;
#X connect 286 0 13 0;
#X connect 287 0 0 0;
#X connect 288 0 1 0;
#X connect 289 0 2 0;
#X connect 290 0 3 0;
#X connect 291 0 4 0;
#X connect 292 0 5 0;
#X connect 293 0 6 0;
#X connect 294 0 90 0;
#X connect 295 0 92 0;
#X connect 296 0 94 0;
#X connect 297 0 96 0;
#X connect 298 0 98 0;
#X connect 299 0 110 0;
#X connect 300 0 112 0;
#X connect 301 0 114 0;
#X connect 302 0 116 0;
#X connect 303 0 126 0;
#X connect 304 0 136 0;
#X connect 305 0 138 0;
#X connect 306 0 115 0;
#X connect 307 0 100 0;
#X connect 308 0 102 0;
#X connect 309 0 104 0;
#X connect 310 0 106 0;
#X connect 311 0 108 0;
#X connect 312 0 118 0;
#X connect 313 0 120 0;
#X connect 314 0 122 0;
#X connect 315 0 14 0;
#X connect 316 0 15 0;
#X connect 317 0 16 0;
#X connect 318 0 17 0;
#X connect 319 0 18 0;
#X connect 320 0 19 0;
#X connect 321 0 20 0;
#X connect 322 0 21 0;
#X connect 323 0 140 0;
#X connect 324 0 142 0;
#X connect 325 0 146 0;
#X connect 326 0 144 0;
#X connect 327 0 148 0;
#X connect 328 0 152 0;
#X connect 329 0 154 0;
#X connect 330 0 0 0;
#X connect 331 0 1 0;
#X connect 332 0 2 0;
#X connect 333 0 3 0;
#X connect 334 0 4 0;
#X connect 335 0 5 0;
#X connect 336 0 6 0;
#X connect 337 0 12 0;
#X connect 338 0 13 0;
#X connect 339 0 7 0;
#X connect 340 0 8 0;
#X connect 341 0 9 0;
#X connect 342 0 10 0;
#X connect 343 0 11 0;
#X connect 344 0 22 0;
#X connect 345 0 23 0;
#X connect 346 0 24 0;
#X connect 347 0 25 0;
#X connect 348 0 26 0;
#X connect 349 0 27 0;
#X connect 350 0 28 0;
#X connect 351 0 29 0;
#X connect 352 0 90 0;
#X connect 353 0 92 0;
#X connect 354 0 94 0;
#X connect 355 0 96 0;
#X connect 356 0 98 0;
#X connect 357 0 110 0;
#X connect 358 0 112 0;
#X connect 359 0 114 0;
#X connect 360 0 122 0;
#X connect 361 0 120 0;
#X connect 362 0 118 0;
#X connect 363 0 116 0;
#X connect 364 0 126 0;
#X connect 365 0 136 0;
#X connect 366 0 138 0;
#X connect 367 0 14 0;
#X connect 368 0 15 0;
#X connect 369 0 16 0;
#X connect 370 0 17 0;
#X connect 371 0 18 0;
#X connect 372 0 19 0;
#X connect 373 0 20 0;
#X connect 374 0 21 0;
#X connect 375 0 140 0;
#X connect 376 0 142 0;
#X connect 377 0 144 0;
#X connect 378 0 146 0;
#X connect 379 0 148 0;
#X connect 380 0 22 0;
#X connect 381 0 152 0;
#X connect 382 0 154 0;
#X connect 383 0 27 0;
#X connect 384 0 28 0;
#X connect 385 0 29 0;
#X connect 386 0 23 0;
#X connect 387 0 24 0;
#X connect 388 0 25 0;
#X connect 389 0 26 0;
#X connect 390 0 0 0;
#X connect 391 0 1 0;
#X connect 392 0 2 0;
#X connect 393 0 3 0;
#X connect 394 0 4 0;
#X connect 395 0 5 0;
#X connect 396 0 6 0;
#X connect 397 0 7 0;
#X connect 398 0 8 0;
#X connect 399 0 9 0;
#X connect 400 0 10 0;
#X connect 401 0 11 0;
#X connect 402 0 12 0;
#X connect 403 0 13 0;
#X connect 404 0 115 0;
#X connect 405 0 90 0;
#X connect 406 0 92 0;
#X connect 407 0 94 0;
#X connect 408 0 96 0;
#X connect 409 0 98 0;
#X connect 410 0 110 0;
#X connect 411 0 112 0;
#X connect 412 0 114 0;
#X connect 413 0 116 0;
#X connect 414 0 126 0;
#X connect 415 0 136 0;
#X connect 416 0 138 0;
#X connect 417 0 115 0;
#X connect 418 0 14 0;
#X connect 419 0 15 0;
#X connect 420 0 16 0;
#X connect 421 0 17 0;
#X connect 422 0 18 0;
#X connect 423 0 19 0;
#X connect 424 0 20 0;
#X connect 425 0 21 0;
#X connect 426 0 140 0;
#X connect 427 0 142 0;
#X connect 428 0 144 0;
#X connect 429 0 146 0;
#X connect 430 0 148 0;
#X connect 431 0 152 0;
#X connect 432 0 154 0;
#X connect 433 0 100 0;
#X connect 434 0 102 0;
#X connect 435 0 104 0;
#X connect 436 0 106 0;
#X connect 437 0 108 0;
#X connect 438 0 100 0;
#X connect 439 0 102 0;
#X connect 440 0 104 0;
#X connect 441 0 106 0;
#X connect 442 0 108 0;
#X connect 443 0 118 0;
#X connect 444 0 120 0;
#X connect 445 0 122 0;
#X connect 446 0 22 0;
#X connect 447 0 27 0;
#X connect 448 0 28 0;
#X connect 449 0 29 0;
#X connect 450 0 23 0;
#X connect 451 0 24 0;
#X connect 452 0 25 0;
#X connect 453 0 26 0;
#X connect 454 0 0 0;
#X connect 455 0 1 0;
#X connect 456 0 2 0;
#X connect 457 0 4 0;
#X connect 458 0 3 0;
#X connect 459 0 5 0;
#X connect 460 0 6 0;
#X connect 461 0 7 0;
#X connect 462 0 8 0;
#X connect 463 0 9 0;
#X connect 464 0 10 0;
#X connect 465 0 11 0;
#X connect 466 0 12 0;
#X connect 467 0 13 0;
#X connect 468 0 114 0;
#X connect 469 0 150 0;
#X connect 470 0 150 0;
#X connect 471 0 150 0;
#X restore 850 311 pd sethide;
#X obj 202 365 hradio 22 1 0 5 empty empty Preset -52 12 0 14 -261682
-1 -4160 0;
#X obj 392 538 NlfoControl 1 \$0;
#X obj 787 12 r \$0-ah1shape;
#X obj 798 34 r \$0-ah2shape;
#X obj 817 165 r \$0-glide;
#X obj 823 265 s \$0-set;
#X obj 794 100 s \$0-ah1shapepv;
#X obj 783 122 s \$0-ah2shapepv;
#X obj 808 224 s \$0-glidepv;
#X obj 292 -33 loadbang;
#X obj 290 -9 del 20;
#X msg 286 13 0;
#X obj 770 447 inlet;
#X obj 770 469 unpack;
#X obj 767 769 *~ 0.35;
#X obj 775 619 P02voicer \$0;
#X obj 785 629 P02voicer \$0;
#X obj 795 639 P02voicer \$0;
#X obj 805 649 P02voicer \$0;
#X obj 815 659 P02voicer \$0;
#X obj 825 669 P02voicer \$0;
#X obj 835 679 P02voicer \$0;
#X obj 845 689 P02voicer \$0;
#X obj 175 14 ctlin 3;
#X obj 130 302 ctlin 6;
#X obj 197 427 ctlin 12;
#X obj 327 307 ctlin 23;
#X connect 16 0 46 0;
#X connect 17 0 45 0;
#X connect 20 0 47 0;
#X connect 33 0 35 0;
#X connect 33 1 35 1;
#X connect 33 2 35 2;
#X connect 34 0 54 0;
#X connect 34 1 55 0;
#X connect 34 2 56 0;
#X connect 34 3 57 0;
#X connect 34 4 58 0;
#X connect 34 5 59 0;
#X connect 34 6 60 0;
#X connect 34 7 61 0;
#X connect 35 0 34 0;
#X connect 37 0 54 2;
#X connect 37 0 55 2;
#X connect 37 0 56 2;
#X connect 37 0 57 2;
#X connect 37 0 58 2;
#X connect 37 0 59 2;
#X connect 37 0 60 2;
#X connect 37 0 61 2;
#X connect 37 1 54 1;
#X connect 37 1 55 1;
#X connect 37 1 56 1;
#X connect 37 1 57 1;
#X connect 37 1 58 1;
#X connect 37 1 59 1;
#X connect 37 1 60 1;
#X connect 37 1 61 1;
#X connect 39 0 44 0;
#X connect 41 0 17 0;
#X connect 42 0 16 0;
#X connect 43 0 20 0;
#X connect 48 0 49 0;
#X connect 49 0 50 0;
#X connect 50 0 39 0;
#X connect 51 0 52 0;
#X connect 52 0 33 0;
#X connect 52 1 33 1;
#X connect 53 0 36 0;
#X connect 54 0 53 0;
#X connect 55 0 53 0;
#X connect 56 0 53 0;
#X connect 57 0 53 0;
#X connect 58 0 53 0;
#X connect 59 0 53 0;
#X connect 60 0 53 0;
#X connect 61 0 53 0;
#X connect 62 0 17 0;
#X connect 63 0 16 0;
#X connect 64 0 20 0;
#X connect 65 0 39 0;
#X coords 0 -1 1 1 720 670 1 20 40;
