#N canvas 449 116 1116 638 10;
#X obj 164 306 ahsc1;
#X obj 285 301 ahsc2;
#X obj 388 619 bob~;
#X obj 313 655 loadbang;
#X msg 313 675 saturation 1;
#N canvas 585 371 486 490 pitchy 0;
#X msg 59 321 \$1 10;
#X obj 59 343 line~;
#X obj 59 366 outlet~;
#X obj 59 293 r \$1-ah1tunepv;
#X connect 0 0 1 0;
#X connect 1 0 2 0;
#X connect 3 0 0 0;
#X coords 0 490 1 489 95 45 0;
#X restore 93 306 pd pitchy;
#N canvas 1005 329 450 432 pitchy 0;
#X msg 43 143 \$1 10;
#X obj 43 165 line~;
#X obj 43 188 outlet~;
#X obj 42 122 r \$1-ah2tunepv;
#X connect 0 0 1 0;
#X connect 1 0 2 0;
#X connect 3 0 0 0;
#X coords 0 432 1 431 95 45 0;
#X restore 215 299 pd pitchy;
#X obj 428 707 *~;
#N canvas 285 50 1039 718 filtermod 0;
#X obj 586 528 outlet~;
#X obj 585 500 line~;
#X msg 582 466 \$1 10;
#X obj 559 15 inlet~;
#X text 563 39 Menv;
#X obj 619 15 inlet~;
#X text 623 39 Aenv;
#X obj 669 15 inlet~;
#X text 673 39 LFO;
#X obj 719 15 inlet~;
#X text 723 39 MW;
#X obj 769 15 inlet~;
#X text 773 39 Pitch;
#X text 644 531 Res;
#X obj 566 84 *~;
#X obj 622 82 *~;
#X obj 673 86 *~;
#X obj 725 87 *~;
#X obj 779 91 *~;
#X obj 779 143 +~;
#X obj 892 146 line~;
#X msg 892 123 \$1 10;
#X obj 868 217 / 100;
#X obj 868 263 line~;
#X msg 868 240 \$1 10;
#X obj 734 291 line~;
#X msg 734 268 \$1 10;
#X obj 784 271 line~;
#X msg 784 248 \$1 10;
#X obj 634 331 line~;
#X msg 634 308 \$1 10;
#X obj 684 311 line~;
#X msg 684 288 \$1 10;
#X text 549 367 freq;
#X obj 621 395 line~;
#X msg 621 372 \$1 10;
#X obj 562 348 outlet~;
#X obj 910 400 r \$1-filtfreqpv;
#X obj 899 419 r \$1-filtrespv;
#X obj 890 438 r \$1-filtMenvpv;
#X obj 879 459 r \$1-filtAenvpv;
#X obj 869 479 r \$1-filtLFOpv;
#X obj 858 499 r \$1-filtMWpv;
#X obj 849 519 r \$1-filtKeypv;
#X obj 839 539 r \$1-filtsemitonespv;
#X connect 1 0 0 0;
#X connect 2 0 1 0;
#X connect 3 0 14 0;
#X connect 5 0 15 0;
#X connect 7 0 16 0;
#X connect 9 0 17 0;
#X connect 11 0 18 0;
#X connect 14 0 36 0;
#X connect 15 0 36 0;
#X connect 16 0 36 0;
#X connect 17 0 36 0;
#X connect 18 0 19 0;
#X connect 19 0 36 0;
#X connect 20 0 19 1;
#X connect 21 0 20 0;
#X connect 22 0 24 0;
#X connect 23 0 18 1;
#X connect 24 0 23 0;
#X connect 25 0 16 1;
#X connect 26 0 25 0;
#X connect 27 0 17 1;
#X connect 28 0 27 0;
#X connect 29 0 14 1;
#X connect 30 0 29 0;
#X connect 31 0 15 1;
#X connect 32 0 31 0;
#X connect 34 0 36 0;
#X connect 35 0 34 0;
#X connect 37 0 35 0;
#X connect 38 0 2 0;
#X connect 39 0 30 0;
#X connect 40 0 32 0;
#X connect 41 0 26 0;
#X connect 42 0 28 0;
#X connect 43 0 22 0;
#X connect 44 0 21 0;
#X coords 0 718 1 717 300 114 0;
#X restore 438 525 pd filtermod;
#X obj 163 213 vline~;
#X obj 429 742 outlet~;
#N canvas 505 94 864 718 ampmod 0;
#X obj 454 98 inlet~;
#X text 460 123 Aenv;
#X obj 506 99 inlet~;
#X text 510 123 LFO;
#X obj 556 99 inlet~;
#X obj 510 170 *~;
#X obj 562 171 *~;
#X obj 571 375 line~;
#X msg 571 352 \$1 10;
#X obj 621 355 line~;
#X msg 621 332 \$1 10;
#X obj 304 313 line~;
#X msg 304 290 \$1 10;
#X text 560 123 MW;
#X obj 295 521 *~;
#X obj 316 665 outlet~;
#X obj 296 549 *~;
#X obj 368 427 sig~ 1;
#X obj 383 454 *~ -1;
#X obj 458 586 *~ 1;
#X msg 442 507 1 \$1;
#X obj 442 529 -;
#X obj 421 577 line~;
#X msg 421 554 \$1 10;
#X obj 316 620 *~;
#X obj 678 149 r \$1-ampamppv;
#X obj 702 195 r \$1-ampLFOpv;
#X obj 742 249 r \$1-ampMWpv;
#X connect 0 0 14 0;
#X connect 2 0 5 0;
#X connect 4 0 6 0;
#X connect 5 0 18 0;
#X connect 6 0 19 0;
#X connect 7 0 5 1;
#X connect 8 0 7 0;
#X connect 9 0 6 1;
#X connect 10 0 9 0;
#X connect 11 0 14 1;
#X connect 12 0 11 0;
#X connect 14 0 16 0;
#X connect 16 0 24 0;
#X connect 17 0 16 1;
#X connect 18 0 16 1;
#X connect 19 0 24 1;
#X connect 20 0 21 0;
#X connect 21 0 23 0;
#X connect 22 0 24 1;
#X connect 23 0 22 0;
#X connect 24 0 15 0;
#X connect 25 0 12 0;
#X connect 26 0 8 0;
#X connect 27 0 10 0;
#X connect 27 0 20 0;
#X coords 0 718 1 717 150 80 0;
#X restore 463 666 pd ampmod;
#N canvas 292 54 1037 718 pitchmod 0;
#X obj 396 99 inlet~;
#X text 400 123 Menv;
#X obj 456 99 inlet~;
#X text 460 123 Aenv;
#X obj 506 99 inlet~;
#X text 510 123 LFO;
#X obj 556 99 inlet~;
#X obj 403 168 *~;
#X obj 459 166 *~;
#X obj 510 170 *~;
#X obj 562 171 *~;
#X obj 571 375 line~;
#X msg 571 352 \$1 10;
#X obj 621 355 line~;
#X msg 621 332 \$1 10;
#X obj 471 415 line~;
#X msg 471 392 \$1 10;
#X obj 521 395 line~;
#X msg 521 372 \$1 10;
#X text 560 123 PW;
#X obj 177 540 outlet~;
#X obj 630 150 *~;
#X text 645 118 LFO fine;
#X obj 680 337 line~;
#X msg 681 312 \$1 10;
#X obj 735 180 r \$1-ah2pitchMenvpv;
#X obj 745 200 r \$1-ah2pitchAenvpv;
#X obj 755 220 r \$1-ah2pitchLFOpv;
#X obj 765 240 r \$1-ah2pitchLFOfpv;
#X obj 775 260 r \$1-ah2pitchPWpv;
#X connect 0 0 7 0;
#X connect 2 0 8 0;
#X connect 4 0 9 0;
#X connect 4 0 21 0;
#X connect 6 0 10 0;
#X connect 7 0 20 0;
#X connect 8 0 20 0;
#X connect 9 0 20 0;
#X connect 10 0 20 0;
#X connect 11 0 9 1;
#X connect 12 0 11 0;
#X connect 13 0 10 1;
#X connect 14 0 13 0;
#X connect 15 0 7 1;
#X connect 16 0 15 0;
#X connect 17 0 8 1;
#X connect 18 0 17 0;
#X connect 21 0 20 0;
#X connect 23 0 21 1;
#X connect 24 0 23 0;
#X connect 25 0 16 0;
#X connect 26 0 18 0;
#X connect 27 0 12 0;
#X connect 28 0 24 0;
#X connect 29 0 14 0;
#X coords 0 718 1 717 285 45 0;
#X restore 244 277 pd pitchmod;
#N canvas 599 139 1039 718 pitchmod 0;
#X obj 396 99 inlet~;
#X text 400 123 Menv;
#X obj 456 99 inlet~;
#X text 460 123 Aenv;
#X obj 506 99 inlet~;
#X text 510 123 LFO;
#X obj 556 99 inlet~;
#X obj 403 168 *~;
#X obj 459 166 *~;
#X obj 510 170 *~;
#X obj 562 171 *~;
#X obj 571 375 line~;
#X msg 571 352 \$1 10;
#X obj 621 355 line~;
#X msg 621 332 \$1 10;
#X obj 471 415 line~;
#X msg 471 392 \$1 10;
#X obj 521 395 line~;
#X msg 521 372 \$1 10;
#X text 560 123 PW;
#X obj 177 540 outlet~;
#X obj 630 150 *~;
#X text 645 118 LFO fine;
#X obj 680 337 line~;
#X msg 681 312 \$1 10;
#X obj 738 139 r \$1-ah1pitchMenvpv;
#X obj 748 159 r \$1-ah1pitchAenvpv;
#X obj 758 179 r \$1-ah1pitchLFOpv;
#X obj 768 199 r \$1-ah1pitchLFOfpv;
#X obj 778 219 r \$1-ah1pitchPWpv;
#X connect 0 0 7 0;
#X connect 2 0 8 0;
#X connect 4 0 9 0;
#X connect 4 0 21 0;
#X connect 6 0 10 0;
#X connect 7 0 20 0;
#X connect 8 0 20 0;
#X connect 9 0 20 0;
#X connect 10 0 20 0;
#X connect 11 0 9 1;
#X connect 12 0 11 0;
#X connect 13 0 10 1;
#X connect 14 0 13 0;
#X connect 15 0 7 1;
#X connect 16 0 15 0;
#X connect 17 0 8 1;
#X connect 18 0 17 0;
#X connect 21 0 20 0;
#X connect 23 0 21 1;
#X connect 24 0 23 0;
#X connect 25 0 16 0;
#X connect 26 0 18 0;
#X connect 27 0 12 0;
#X connect 28 0 24 0;
#X connect 29 0 14 0;
#X coords 0 718 1 717 285 45 0;
#X restore 128 282 pd pitchmod;
#X obj 407 558 clip~ 0 128;
#X obj 407 580 mtof~;
#N canvas 292 54 1039 718 ffm 0;
#X obj 711 96 inlet~;
#X text 715 120 Aenv;
#X obj 761 96 inlet~;
#X text 765 120 LFO;
#X obj 811 96 inlet~;
#X obj 714 163 *~;
#X obj 765 167 *~;
#X obj 817 168 *~;
#X obj 826 372 line~;
#X msg 826 349 \$1 10;
#X obj 876 352 line~;
#X msg 876 329 \$1 10;
#X obj 776 392 line~;
#X msg 776 369 \$1 10;
#X text 815 120 MW;
#X obj 653 95 inlet~;
#X obj 656 162 *~;
#X obj 713 393 line~;
#X msg 713 370 \$1 10;
#X text 657 119 Menv;
#X obj 553 622 outlet~;
#X obj 532 460 line~;
#X msg 532 437 \$1 10;
#X obj 884 167 r \$1-ffmffmpv;
#X obj 894 187 r \$1-ffmMenvpv;
#X obj 904 207 r \$1-ffmAenvpv;
#X obj 914 227 r \$1-ffmLFOpv;
#X obj 924 247 r \$1-ffmMWpv;
#X connect 0 0 5 0;
#X connect 2 0 6 0;
#X connect 4 0 7 0;
#X connect 5 0 20 0;
#X connect 6 0 20 0;
#X connect 7 0 20 0;
#X connect 8 0 6 1;
#X connect 9 0 8 0;
#X connect 10 0 7 1;
#X connect 11 0 10 0;
#X connect 12 0 5 1;
#X connect 13 0 12 0;
#X connect 15 0 16 0;
#X connect 16 0 20 0;
#X connect 17 0 16 1;
#X connect 18 0 17 0;
#X connect 21 0 20 0;
#X connect 22 0 21 0;
#X connect 23 0 22 0;
#X connect 24 0 18 0;
#X connect 25 0 13 0;
#X connect 26 0 9 0;
#X connect 27 0 11 0;
#X coords 0 718 1 717 200 80 0;
#X restore 311 475 pd ffm;
#X obj 291 506 *~;
#X obj 184 74 t f f;
#X obj 184 96 *;
#X obj 184 51 / 127;
#X obj 184 142 + 2;
#X obj 184 120 * 1000;
#X obj 164 167 pack;
#X msg 164 188 \$1 \$2;
#X text 204 157 pitch and slew;
#X text 568 164 wheels;
#X text 398 704 vca;
#X text 320 503 ffm;
#X text 330 622 filter;
#N canvas 423 219 961 641 mix 0;
#X obj 127 541 outlet~;
#X obj 52 18 inlet~;
#X obj 127 13 inlet~;
#X obj 203 23 noise~;
#X obj 70 70 *~;
#X obj 91 460 *~;
#X obj 124 459 *~;
#X obj 158 459 *~;
#X obj 202 463 *~;
#X obj 99 304 t f f;
#X obj 99 326 *;
#X msg 99 352 \$1 20;
#X obj 99 374 line~;
#X obj 149 314 t f f;
#X obj 149 336 *;
#X msg 149 362 \$1 20;
#X obj 149 384 line~;
#X obj 209 314 t f f;
#X obj 209 336 *;
#X msg 209 362 \$1 20;
#X obj 209 384 line~;
#X obj 259 324 t f f;
#X obj 259 346 *;
#X msg 259 372 \$1 20;
#X obj 259 394 line~;
#X obj 99 282 / 110;
#X obj 149 292 / 110;
#X obj 209 292 / 110;
#X obj 259 302 / 110;
#X obj 330 25 r \$1-mix1pv;
#X obj 417 24 r \$1-mix2pv;
#X obj 504 23 r \$1-mixRMpv;
#X obj 599 21 r \$1-mixNpv;
#X connect 1 0 4 0;
#X connect 1 0 5 0;
#X connect 2 0 4 1;
#X connect 2 0 6 0;
#X connect 3 0 8 0;
#X connect 4 0 7 0;
#X connect 5 0 0 0;
#X connect 6 0 0 0;
#X connect 7 0 0 0;
#X connect 8 0 0 0;
#X connect 9 0 10 0;
#X connect 9 1 10 1;
#X connect 10 0 11 0;
#X connect 11 0 12 0;
#X connect 12 0 5 1;
#X connect 13 0 14 0;
#X connect 13 1 14 1;
#X connect 14 0 15 0;
#X connect 15 0 16 0;
#X connect 16 0 6 1;
#X connect 17 0 18 0;
#X connect 17 1 18 1;
#X connect 18 0 19 0;
#X connect 19 0 20 0;
#X connect 20 0 7 1;
#X connect 21 0 22 0;
#X connect 21 1 22 1;
#X connect 22 0 23 0;
#X connect 23 0 24 0;
#X connect 24 0 8 1;
#X connect 25 0 9 0;
#X connect 26 0 13 0;
#X connect 27 0 17 0;
#X connect 28 0 21 0;
#X connect 29 0 25 0;
#X connect 30 0 26 0;
#X connect 31 0 27 0;
#X connect 32 0 28 0;
#X coords 0 641 1 640 110 80 0;
#X restore 371 381 pd mix;
#X obj 37 27 inlet;
#X obj 37 50 unpack;
#X obj 69 71 t f f f f;
#X obj 593 63 inlet~;
#X obj 650 61 inlet~;
#X text 301 21 argument \$0 please;
#X obj 387 85 r \$1-ah1shapepv;
#X obj 392 111 r \$1-ah2shapepv;
#X obj 158 19 r \$1-glidepv;
#X obj 323 185 NenvPerVoice 1 \$1;
#X obj 469 231 NenvPerVoice 2 \$1;
#X obj 582 292 NlfoPerVoice 1 \$1;
#X connect 0 0 30 0;
#X connect 1 0 30 1;
#X connect 1 0 17 0;
#X connect 2 0 7 0;
#X connect 3 0 4 0;
#X connect 4 0 2 0;
#X connect 5 0 0 0;
#X connect 6 0 1 0;
#X connect 7 0 10 0;
#X connect 8 0 14 0;
#X connect 8 1 2 2;
#X connect 9 0 8 4;
#X connect 9 0 1 0;
#X connect 9 0 0 0;
#X connect 11 0 7 1;
#X connect 12 0 1 1;
#X connect 13 0 0 1;
#X connect 14 0 15 0;
#X connect 15 0 2 1;
#X connect 16 0 17 1;
#X connect 17 0 14 0;
#X connect 18 0 19 0;
#X connect 18 1 19 1;
#X connect 19 0 22 0;
#X connect 20 0 18 0;
#X connect 21 0 23 1;
#X connect 22 0 21 0;
#X connect 23 0 24 0;
#X connect 24 0 9 0;
#X connect 30 0 2 0;
#X connect 31 0 32 0;
#X connect 32 0 23 0;
#X connect 32 1 33 0;
#X connect 33 0 40 0;
#X connect 33 1 41 0;
#X connect 33 2 42 0;
#X connect 34 0 13 3;
#X connect 34 0 12 3;
#X connect 35 0 16 3;
#X connect 35 0 8 3;
#X connect 35 0 11 2;
#X connect 35 0 42 1;
#X connect 37 0 0 2;
#X connect 38 0 1 2;
#X connect 39 0 20 0;
#X connect 40 0 8 0;
#X connect 40 0 13 0;
#X connect 40 0 16 0;
#X connect 40 0 12 0;
#X connect 41 0 8 1;
#X connect 41 0 13 1;
#X connect 41 0 11 0;
#X connect 41 0 16 1;
#X connect 41 0 12 1;
#X connect 42 0 8 2;
#X connect 42 0 13 2;
#X connect 42 0 11 1;
#X connect 42 0 16 2;
#X connect 42 0 12 2;
