#N canvas 1016 546 805 558 10;
#X declare -path patchmenu;
#X declare -path Punchy;
#X declare -path Reverb;
#X declare -path Rhodey;
#X obj 75 49 declare -path patchmenu;
#X obj 121 149 s enableSubMenu;
#X obj 75 71 loadbang;
#X obj 99 96 versioncheck 2;
#X obj 41 50 bng 15 250 50 0 empty empty empty 17 7 0 10 -262144 -1
-1;
#N canvas 108 50 1037 684 mapping 0;
#X obj 417 247 r p1n;
#X obj 695 315 r p2n;
#X obj 695 254 throw~ outL;
#X obj 787 254 throw~ outR;
#X obj 464 247 r p0n;
#X text 694 79 Audio Routing;
#X text 245 30 MULTIPAGE PATCH ZONE;
#X text 88 256 Page 2 - Punchy Sequencer;
#X obj 695 340 s punchy-notes-in;
#X obj 695 369 r punchy-notes-out;
#X text 91 416 Page 3 - Reverb;
#X obj 514 247 r p3n;
#X obj 695 157 s~ rev-in;
#X obj 695 224 r~ rev-outL;
#X obj 787 224 r~ rev-outR;
#X text 694 193 Reverb Routing;
#X obj 422 345 map-aux punchy;
#X obj 90 306 map-knob 2 2 punchy-note-vel;
#X obj 90 351 map-knob 2 4 punchy-note-length;
#X obj 92 438 map-knob 3 1 rev-size;
#X obj 92 512 map-knob 3 4;
#X obj 92 488 map-knob 3 3 rev-damp;
#X obj 92 464 map-knob 3 2 rev-drywet;
#X obj 90 329 map-knob 2 3 punchy-swing;
#X obj 90 283 map-knob 2 1 punchy-tempo;
#X text 88 109 Page 1 - Rhodey Keyboard;
#X obj 417 292 s rhod-notes-in;
#X obj 695 397 s rhod-notes-in;
#X obj 696 109 catch~ rhod-outL;
#X obj 817 107 catch~ rhod-outR;
#X obj 90 132 map-knob 1 1 rhod-tone;
#X obj 90 157 map-knob 1 2 rhod-mod;
#X obj 90 182 map-knob 1 3 rhod-decay;
#X obj 90 206 map-knob 1 4 rhod-trans;
#N canvas 4 50 450 300 midi-control 0;
#X obj 187 127 s midiOutGate;
#X obj 187 47 loadbang;
#X obj 187 73 delay 20;
#X msg 187 99 0;
#X obj 188 212 noteout 1;
#X obj 188 180 unpack;
#X obj 188 150 r punchy-notes-out;
#X connect 1 0 2 0;
#X connect 2 0 3 0;
#X connect 3 0 0 0;
#X connect 5 0 4 0;
#X connect 5 1 4 1;
#X connect 6 0 5 0;
#X restore 862 347 pd midi-control;
#X text 699 291 notes routing;
#X connect 0 0 26 0;
#X connect 1 0 8 0;
#X connect 4 0 26 0;
#X connect 9 0 27 0;
#X connect 11 0 26 0;
#X connect 13 0 2 0;
#X connect 14 0 3 0;
#X connect 28 0 12 0;
#X connect 29 0 12 0;
#X restore 609 278 pd mapping;
#X obj 609 194 declare -path Punchy;
#X obj 608 323 Reverb;
#X obj 609 246 declare -path Reverb;
#X obj 608 346 Rhodey;
#X obj 609 221 declare -path Rhodey;
#X obj 609 300 Punchy;
#X obj 75 125 t b b b;
#N canvas 11 106 825 536 page-display 0;
#X obj 196 254 sel 1 2 3 4;
#X msg 429 236 \; oscOut send /oled/line/1 \; oscOut send /oled/line/2
\; oscOut send /oled/line/3 \; oscOut send /oled/line/4 \; oscOut send
/oled/line/5 \;;
#X obj 220 184 t f b;
#X obj 224 158 inlet;
#X msg 27 373 \; screenLine1 - \; screenLine2 < Rhodey Synth> \; screenLine3
- \; screenLine4 - \; screenLine5 - \;;
#X msg 234 374 \; screenLine1 - \; screenLine2 < Punchy Seq> \; screenLine3
- \; screenLine4 - \; screenLine5 - \;;
#X msg 427 374 \; screenLine1 - \; screenLine2 < Reverb> \; screenLine3
- \; screenLine4 - \; screenLine5 - \;;
#X msg 608 376 \; screenLine1 - \; screenLine2 < Home> \; screenLine3
- \; screenLine4 - \; screenLine5 - \;;
#X connect 0 0 4 0;
#X connect 0 1 5 0;
#X connect 0 2 6 0;
#X connect 0 3 7 0;
#X connect 2 0 0 0;
#X connect 2 1 1 0;
#X connect 3 0 2 0;
#X restore 75 272 pd page-display;
#X text 200 274 messages for pages;
#X text 345 191 startup message;
#X obj 299 387 r page-ready;
#X obj 299 409 print page;
#X msg 97 169 \; screenLine1 Synth with 3 pages: \; screenLine2 1 -
Rhodey Synth \; screenLine3 2 - Punchy Sequencer \; screenLine4 3 -
Reverb \;;
#X obj 73 242 patchmenu;
#X obj 606 394 ZML1;
#X connect 2 0 12 0;
#X connect 3 0 12 0;
#X connect 4 0 12 0;
#X connect 12 0 19 0;
#X connect 12 1 18 0;
#X connect 12 2 1 0;
#X connect 16 0 17 0;
#X connect 19 0 13 0;
