#N canvas 301 476 495 516 10;
#X obj 137 35 r p\$1k\$2;
#X obj 148 157 s \$3;
#X obj 148 216 r \$3-label;
#X obj 148 259 list prepend \$2:;
#X obj 148 291 s p\$1s\$2;
#X obj 171 90 f;
#X obj 254 35 r p\$1k\$2-LFO;
#X obj 174 115 +;
#X obj 248 63 t b f b;
#X obj 298 89 s get-\$3-name;
#X obj 308 142 r \$3-name;
#X obj 308 164 s LFO-name;
#X connect 0 0 5 0;
#X connect 2 0 3 0;
#X connect 3 0 4 0;
#X connect 5 0 7 0;
#X connect 6 0 8 0;
#X connect 7 0 1 0;
#X connect 8 0 5 0;
#X connect 8 1 7 1;
#X connect 8 2 9 0;
#X connect 10 0 11 0;
