#N canvas 116 459 920 371 10;
#X obj 112 61 r p0a;
#X obj 155 61 r p1a;
#X obj 198 60 r p2a;
#X obj 241 61 r p3a;
#X obj 294 62 r p4a;
#X obj 126 129 s \$1-aux;
#X obj 98 192 r \$1-led;
#X obj 100 232 s p0led;
#X obj 161 232 s p1led;
#X obj 218 233 s p2led;
#X obj 277 234 s p3led;
#X obj 334 234 s p4led;
#X obj 496 35 r \$1-aux-label;
#X obj 571 134 s p2s5;
#X obj 517 134 s p1s5;
#X obj 627 134 s p3s5;
#X obj 685 135 s p4s5;
#X obj 534 101 list;
#X obj 518 76 t b a;
#X text 587 77 recall screen line;
#X obj 398 38 r page-ready;
#X obj 401 67 bang;
#X connect 0 0 5 0;
#X connect 1 0 5 0;
#X connect 2 0 5 0;
#X connect 3 0 5 0;
#X connect 4 0 5 0;
#X connect 6 0 7 0;
#X connect 6 0 8 0;
#X connect 6 0 9 0;
#X connect 6 0 10 0;
#X connect 6 0 11 0;
#X connect 12 0 18 0;
#X connect 17 0 14 0;
#X connect 17 0 13 0;
#X connect 17 0 15 0;
#X connect 18 0 17 0;
#X connect 18 1 17 1;
#X connect 20 0 21 0;
#X connect 21 0 17 0;
