#N canvas 200 367 1136 627 10;
#X obj 172 17 ctlin;
#X obj 283 13 notein;
#X obj 286 36 pack;
#X obj 286 58 s notes;
#X obj 712 155 catch~ outR;
#X obj 819 157 catch~ outL;
#X obj 768 301 dac~;
#X obj 48 147 ctlin 7;
#X obj 50 199 s vol;
#X obj 50 173 / 127;
#X obj 126 150 ctlin 74;
#X obj 128 177 / 127;
#X obj 195 178 / 127;
#X obj 270 178 / 127;
#X obj 339 176 / 127;
#X obj 193 151 ctlin 71;
#X obj 268 151 ctlin 76;
#X obj 337 149 ctlin 77;
#X obj 409 176 / 127;
#X obj 481 177 / 127;
#X obj 569 177 / 127;
#X obj 130 280 / 127;
#X obj 204 283 / 127;
#X obj 272 283 / 127;
#X obj 335 280 / 127;
#X obj 413 281 / 127;
#X obj 485 282 / 127;
#X obj 412 332 s knob13;
#X obj 407 149 ctlin 93;
#X obj 479 150 ctlin 73;
#X obj 567 150 ctlin 75;
#X obj 130 255 ctlin 18;
#X obj 202 256 ctlin 19;
#X obj 270 256 ctlin 16;
#X obj 333 253 ctlin 17;
#X obj 411 254 ctlin 91;
#X obj 483 255 ctlin 79;
#X obj 484 312 s knob14;
#X obj 914 113 r vol;
#X obj 914 140 t f f;
#X obj 916 199 sig~;
#X obj 916 227 lop~ 2;
#X obj 916 171 * 11;
#X obj 797 262 *~;
#X obj 756 260 *~;
#X obj 712 216 clip~ -1 1;
#X obj 820 219 clip~ -1 1;
#X obj 712 188 *~ 0.6;
#X obj 820 190 *~ 0.6;
#X obj 11 111 loadbang;
#X msg 15 139 0.5;
#X obj 80 412 s punchy-state;
#X obj 106 204 s rhod-tone;
#X obj 186 203 s rhod-mod;
#X obj 257 205 s rhod-decay;
#X obj 333 205 s rhod-trans;
#X obj 413 206 s rev-size;
#X obj 568 203 s rev-damp;
#X obj 482 206 s rev-drywet;
#X obj 107 310 s punchy-tempo;
#X obj 265 327 s punchy-swing;
#X obj 320 306 s punchy-note-length;
#X obj 192 344 s punchy-note-vel;
#X obj 373 43 / 127;
#X msg 106 380 1;
#X msg 41 377 0;
#X obj 106 352 moses 85;
#X msg 151 380 2;
#X obj 41 352 moses 42;
#X obj 41 258 ctlin 114;
#X obj 556 286 > 63;
#X obj 556 309 + 1;
#X obj 556 255 ctlin 72;
#X obj 556 340 s mode;
#X connect 1 0 2 0;
#X connect 1 1 2 1;
#X connect 1 1 63 0;
#X connect 2 0 3 0;
#X connect 4 0 47 0;
#X connect 5 0 48 0;
#X connect 7 0 9 0;
#X connect 9 0 8 0;
#X connect 10 0 11 0;
#X connect 11 0 52 0;
#X connect 12 0 53 0;
#X connect 13 0 54 0;
#X connect 14 0 55 0;
#X connect 15 0 12 0;
#X connect 16 0 13 0;
#X connect 17 0 14 0;
#X connect 18 0 56 0;
#X connect 19 0 58 0;
#X connect 20 0 57 0;
#X connect 21 0 59 0;
#X connect 22 0 62 0;
#X connect 23 0 60 0;
#X connect 24 0 61 0;
#X connect 25 0 27 0;
#X connect 26 0 37 0;
#X connect 28 0 18 0;
#X connect 29 0 19 0;
#X connect 30 0 20 0;
#X connect 31 0 21 0;
#X connect 32 0 22 0;
#X connect 33 0 23 0;
#X connect 34 0 24 0;
#X connect 35 0 25 0;
#X connect 36 0 26 0;
#X connect 38 0 39 0;
#X connect 39 0 42 0;
#X connect 39 1 42 1;
#X connect 40 0 41 0;
#X connect 41 0 43 1;
#X connect 41 0 44 1;
#X connect 42 0 40 0;
#X connect 43 0 6 1;
#X connect 44 0 6 0;
#X connect 45 0 44 0;
#X connect 46 0 43 0;
#X connect 47 0 45 0;
#X connect 48 0 46 0;
#X connect 49 0 50 0;
#X connect 50 0 8 0;
#X connect 64 0 51 0;
#X connect 65 0 51 0;
#X connect 66 0 64 0;
#X connect 66 1 67 0;
#X connect 67 0 51 0;
#X connect 68 0 65 0;
#X connect 68 1 66 0;
#X connect 69 0 68 0;
#X connect 70 0 71 0;
#X connect 71 0 73 0;
#X connect 72 0 70 0;
