#N canvas 953 0 958 988 10;
#N canvas 284 102 758 895 menu5 1;
#X obj 255 245 sel 0 1;
#X obj 256 304 t b b;
#X msg 292 334 -1;
#X obj 301 303 t b b;
#X msg 337 333 1;
#X obj 255 145 r enc;
#X obj 195 546 f;
#X obj 186 458 sel 1;
#X obj 116 802 outlet;
#X obj 172 412 spigot 0;
#X obj 275 197 spigot 0;
#X obj 249 44 inlet;
#X obj 249 86 t f f;
#X text 300 44 enable;
#X obj 98 154 r encbut;
#X obj 560 772 outlet;
#X obj 255 166 t f b;
#X text 67 806 page;
#X text 612 775 selection;
#X obj 322 802 outlet;
#X text 366 776 go home;
#X obj 586 488 != 4;
#X obj 583 512 t f f f;
#X obj 621 542 == 0;
#X obj 568 640 spigot;
#X obj 556 554 sel 1;
#X msg 565 607 1;
#X obj 562 582 del 750;
#X floatatom 317 457 5 0 0 0 - - -;
#X obj 281 363 + 1;
#X obj 247 362 f 0;
#X obj 319 403 expr if($f1 < 1 \, 1 \, $f1);
#X obj 318 429 expr if($f1 > 4 \, 4 \, $f1);
#X obj 332 570 t f f;
#X obj 323 767 sel 4;
#X obj 31 327 loadbang;
#X msg 44 428 2;
#X floatatom 214 722 5 0 0 0 - - -;
#X obj 38 364 delay 300;
#X obj 99 568 r mode;
#X connect 0 0 1 0;
#X connect 0 1 3 0;
#X connect 1 0 30 0;
#X connect 1 1 2 0;
#X connect 2 0 29 1;
#X connect 3 0 30 0;
#X connect 3 1 4 0;
#X connect 4 0 29 1;
#X connect 5 0 16 0;
#X connect 6 0 8 0;
#X connect 6 0 34 0;
#X connect 6 0 37 0;
#X connect 7 0 6 0;
#X connect 9 0 7 0;
#X connect 10 0 0 0;
#X connect 11 0 12 0;
#X connect 12 0 9 1;
#X connect 12 1 10 1;
#X connect 14 0 9 0;
#X connect 16 0 10 0;
#X connect 21 0 22 0;
#X connect 22 0 25 0;
#X connect 22 1 24 1;
#X connect 22 2 23 0;
#X connect 23 0 24 1;
#X connect 24 0 9 0;
#X connect 25 0 27 0;
#X connect 26 0 24 0;
#X connect 27 0 26 0;
#X connect 28 0 6 1;
#X connect 28 0 33 0;
#X connect 29 0 31 0;
#X connect 30 0 29 0;
#X connect 31 0 32 0;
#X connect 32 0 28 0;
#X connect 32 0 30 1;
#X connect 33 0 15 0;
#X connect 33 1 21 0;
#X connect 34 0 19 0;
#X connect 35 0 38 0;
#X connect 36 0 8 0;
#X connect 38 0 36 0;
#X connect 39 0 8 0;
#X restore 256 295 pd menu5;
#X obj 296 455 s goHome;
#X obj 837 503 screenpager 1 1;
#X obj 863 174 knobpager 1 1;
#X obj 1323 172 auxpager 1;
#X obj 1323 196 auxpager 2;
#X obj 1324 219 auxpager 3;
#X obj 1324 243 auxpager 4;
#X obj 956 503 screenpager 1 2;
#X obj 1071 503 screenpager 1 3;
#X obj 1187 503 screenpager 1 4;
#X obj 1303 503 screenpager 1 5;
#X obj 837 528 screenpager 2 1;
#X obj 838 554 screenpager 3 1;
#X obj 837 577 screenpager 4 1;
#X obj 956 577 screenpager 4 2;
#X obj 1071 577 screenpager 4 3;
#X obj 1187 577 screenpager 4 4;
#X obj 1303 577 screenpager 4 5;
#X obj 1304 554 screenpager 3 5;
#X obj 1188 554 screenpager 3 4;
#X obj 1072 554 screenpager 3 3;
#X obj 956 554 screenpager 3 2;
#X obj 956 528 screenpager 2 2;
#X obj 1071 528 screenpager 2 3;
#X obj 1187 528 screenpager 2 4;
#X obj 1303 528 screenpager 2 5;
#X obj 1072 370 savevals;
#X obj 397 229 recallvals;
#X obj 432 570 outlet;
#X obj 172 64 inlet;
#X obj 336 177 t b b;
#N canvas 10 50 888 483 change-page 0;
#X obj 186 372 s knob-page-sel;
#X obj 246 349 s screen-page-sel;
#N canvas 9 50 450 300 clear-oled 0;
#X msg 91 123 \; oscOut send /oled/line/1 \; oscOut send /oled/line/2
\; oscOut send /oled/line/3 \; oscOut send /oled/line/4 \; oscOut send
/oled/line/5 \;;
#X obj 91 83 bng 15 250 50 0 empty empty empty 17 7 0 10 -262144 -1
-1;
#X obj 91 47 inlet;
#X connect 1 0 0 0;
#X connect 2 0 1 0;
#X restore 266 325 pd clear-oled;
#X obj 419 373 s page-closing;
#X obj 50 357 s page-ready;
#X obj 365 284 t f b;
#X obj 387 402 v prevpage;
#X obj 151 236 t f f f b f;
#X obj 155 401 v curpage;
#X obj 387 347 t f f;
#X obj 119 283 t f f;
#X obj 386 320 f 0;
#X obj 151 204 inlet;
#X text 314 49 goes like this:;
#X text 353 71 close current page;
#X text 354 89 save current page number as previous;
#X text 354 107 clear the screen;
#X text 353 148 load the stored values for given page (knob-page-sel)
;
#X text 353 127 enable screen for given page (screen-page-sel);
#X text 352 169 update the current page value;
#X text 351 192 send the new page number out so the resto of the patch
can act.;
#X connect 5 0 11 1;
#X connect 5 1 11 0;
#X connect 7 0 10 0;
#X connect 7 1 0 0;
#X connect 7 2 1 0;
#X connect 7 3 2 0;
#X connect 7 4 5 0;
#X connect 9 0 6 0;
#X connect 9 1 3 0;
#X connect 10 0 4 0;
#X connect 10 1 8 0;
#X connect 11 0 9 0;
#X connect 12 0 7 0;
#X restore 133 553 pd change-page;
#X text 227 68 read saved values \, then enable menu;
#X text 63 576 change page events sent out from here;
#X text 495 572 bang to draw menu;
#X text 365 456 back to Organelle main menu;
#X text 319 16 Defines a menu with 5 entries. 5th selection goes back
to main Organelle menu. The other entries define pages.;
#X text 124 286 page num;
#X text 526 547 selection num;
#X text 962 136 Each page gets its own knob and aux inputs.;
#X text 970 447 Each page gets its own screen to write on;
#X text 977 323 When a saveState signal is sent from the Organelle
system menu \, save all the page values.;
#X obj 863 199 knobpager 2 1;
#X obj 971 173 knobpager 1 2;
#X obj 1081 173 knobpager 1 3;
#X obj 1195 172 knobpager 1 4;
#X obj 971 198 knobpager 2 2;
#X obj 1081 198 knobpager 2 3;
#X obj 1195 197 knobpager 2 4;
#X obj 863 225 knobpager 3 1;
#X obj 971 224 knobpager 3 2;
#X obj 1081 224 knobpager 3 3;
#X obj 1195 223 knobpager 3 4;
#X obj 863 250 knobpager 4 1;
#X obj 971 249 knobpager 4 2;
#X obj 1081 249 knobpager 4 3;
#X obj 1195 248 knobpager 4 4;
#X text 336 287 The encoder events are recieved in here to make selection.
;
#X obj 1419 194 notespager 2;
#X obj 1420 172 notespager 1;
#X obj 1418 220 notespager 3;
#X obj 1419 241 notespager 4;
#X obj 1418 141 notespager 0;
#X obj 1438 500 ledpager 1;
#X obj 1439 525 ledpager 2;
#X obj 1440 550 ledpager 3;
#X obj 1439 574 ledpager 4;
#X obj 1437 478 ledpager 0;
#X obj 1321 139 auxpager 0;
#X obj 230 372 moses 4;
#X msg 314 237 2;
#X connect 0 0 70 0;
#X connect 0 1 1 0;
#X connect 0 2 29 0;
#X connect 30 0 31 0;
#X connect 31 0 71 0;
#X connect 31 1 28 0;
#X connect 70 0 32 0;
#X connect 71 0 0 0;
