#N canvas 926 118 809 740 10;
#X declare -lib Gem;
#X obj 130 331 gemwin;
#X obj 304 248 translateXYZ 0 0 0;
#X msg 315 270 draw fill;
#X floatatom 365 368 5 0 0 2 size - -;
#X msg 89 125 destroy;
#X obj 239 215 bng 15 250 50 0 empty empty empty 17 7 0 10 -262144
-1 -1;
#X obj 166 15 bng 15 250 50 0 empty empty empty 17 7 0 10 -262144 -1
-1;
#X obj 367 337 / 500;
#X obj 278 8 declare -lib Gem;
#X obj 402 19 loadbang;
#X obj 452 65 delay 100;
#X obj 527 119 - 0.9;
#X obj 527 97 / 70;
#X obj 639 106 / 70;
#X obj 637 128 - 0.9;
#X obj 559 466 pack f f f f;
#X obj 521 376 t b f;
#X obj 550 424 f;
#X obj 521 310 ctlin 71;
#X obj 631 311 ctlin 76;
#X obj 721 308 ctlin 77;
#X obj 522 331 * 6;
#X obj 721 332 * 4;
#X obj 631 334 * 6;
#X obj 583 425 t b f;
#X obj 631 361 t b f;
#X obj 721 359 t b f;
#X obj 591 400 i;
#X msg 391 461 240 160 280 220;
#X msg 467 553 dimen \$1 \$2 \, offset \$3 \$4;
#X obj 527 70 ctlin 114;
#X obj 16 133 ctlin 74;
#X obj 639 80 ctlin 18;
#X obj 581 377 * 0.8;
#X obj 521 354 + 114;
#X obj 168 72 gemhead;
#X obj 327 195 colorRGB;
#X obj 262 138 * 0.01;
#X obj 389 139 * 0.01;
#X obj 326 141 * 0.01;
#X obj 262 97 ctlin 93;
#X obj 324 97 ctlin 73;
#X obj 389 97 ctlin 75;
#X obj 367 296 ctlin 19;
#X msg 340 118 127;
#X msg 431 295 4;
#X obj 315 391 square;
#X msg 258 73 buffer 1;
#X msg 104 0 create;
#X obj 168 43 metro 10;
#X obj 404 412 delay 150;
#X obj 210 269 delay 1000;
#X obj 442 239 delay 100;
#X obj 34 27 delay 150;
#X obj 30 204 delay 400;
#X connect 1 0 46 0;
#X connect 2 0 46 0;
#X connect 3 0 46 1;
#X connect 4 0 0 0;
#X connect 5 0 4 0;
#X connect 5 0 53 0;
#X connect 6 0 49 0;
#X connect 7 0 3 0;
#X connect 9 0 6 0;
#X connect 9 0 10 0;
#X connect 9 0 44 0;
#X connect 9 0 47 0;
#X connect 9 0 35 0;
#X connect 9 0 48 0;
#X connect 9 0 50 0;
#X connect 9 0 52 0;
#X connect 10 0 24 0;
#X connect 11 0 1 1;
#X connect 12 0 11 0;
#X connect 13 0 14 0;
#X connect 14 0 1 2;
#X connect 15 0 29 0;
#X connect 15 0 51 0;
#X connect 16 0 17 0;
#X connect 16 1 17 1;
#X connect 16 1 33 0;
#X connect 17 0 15 0;
#X connect 18 0 21 0;
#X connect 19 0 23 0;
#X connect 20 0 22 0;
#X connect 21 0 34 0;
#X connect 22 0 26 0;
#X connect 23 0 25 0;
#X connect 24 0 15 0;
#X connect 24 1 15 1;
#X connect 25 0 15 0;
#X connect 25 1 15 2;
#X connect 26 0 15 0;
#X connect 26 1 15 3;
#X connect 27 0 24 0;
#X connect 28 0 29 0;
#X connect 29 0 0 0;
#X connect 30 0 12 0;
#X connect 31 0 54 0;
#X connect 32 0 13 0;
#X connect 33 0 27 0;
#X connect 34 0 16 0;
#X connect 35 0 36 0;
#X connect 36 0 1 0;
#X connect 37 0 36 1;
#X connect 38 0 36 3;
#X connect 39 0 36 2;
#X connect 40 0 37 0;
#X connect 41 0 39 0;
#X connect 42 0 38 0;
#X connect 43 0 7 0;
#X connect 44 0 37 0;
#X connect 44 0 39 0;
#X connect 44 0 38 0;
#X connect 45 0 7 0;
#X connect 46 0 0 0;
#X connect 47 0 0 0;
#X connect 48 0 0 0;
#X connect 49 0 35 0;
#X connect 50 0 28 0;
#X connect 51 0 5 0;
#X connect 52 0 45 0;
#X connect 53 0 48 0;
#X connect 54 0 5 0;
