#N canvas 500 30 1229 845 10;
#X declare -lib Gem;
#X obj 20 434 gemhead;
#X msg 380 513 draw point;
#X obj 481 525 *~;
#X obj 508 526 *~;
#X obj 335 369 gemwin;
#X obj 270 280 loadbang;
#X obj 433 443 dsp;
#X msg 418 535 draw line;
#X obj 519 432 hsl 128 15 0 3 0 0 empty empty empty -2 -8 0 10 -262144
-1 -1 8467 1;
#X obj 18 5 declare -lib Gem;
#X obj 201 254 osc~ 400;
#X obj 779 248 osc~ 400;
#X msg 433 416 2;
#X floatatom 97 363 5 0 0 0 - - -;
#X obj 96 486 colorRGB;
#X msg 346 325 destroy;
#X floatatom 172 359 5 0 0 0 - - -;
#X floatatom 24 365 5 0 0 0 - - -;
#X obj 23 390 * 0.01;
#X obj 171 382 * 0.01;
#X obj 96 387 * 0.01;
#X msg 133 127 758;
#X msg 135 195 618;
#X msg 136 216 928.1;
#X obj 122 -133 notein;
#X obj 698 44 i;
#X msg 134 150 843.6;
#X msg 134 173 196.4;
#X obj 134 53 i;
#X msg 353 203 1056;
#X msg 685 234 0.25;
#X floatatom 784 205 5 0 0 0 - - -;
#X msg 684 123 527.95;
#X msg 684 148 459.95;
#X msg 685 172 297.95;
#X msg 685 194 757.95;
#X msg 685 215 893.95;
#X floatatom 437 181 5 0 0 0 - - -;
#X msg 351 132 455;
#X msg 351 156 1218;
#X msg 352 180 1516;
#X obj 353 56 i;
#X msg 137 237 981;
#X obj 24 341 ctlin 77;
#X obj 99 340 ctlin 93;
#X obj 173 336 ctlin 73;
#X obj 455 592 scopeXYZ~ 2205;
#X obj 516 381 ctlin 75;
#X msg 107 310 60;
#X msg 816 14 2;
#X obj 702 598 dac~;
#X obj 694 570 *~;
#X obj 723 569 *~;
#X obj 737 499 ctlin 7;
#X obj 220 179 mtof;
#X obj 234 5 ctlin 18;
#X obj 422 154 mtof;
#X obj 423 11 ctlin 19;
#X obj 777 159 mtof;
#X obj 796 -11 ctlin 16;
#X obj 516 406 / 32;
#X obj 240 121 random 88;
#X obj 318 -21 metro 200;
#X floatatom 369 -87 5 0 0 0 - - -;
#X obj 459 121 random 88;
#X obj 422 232 osc~ 400;
#X obj 694 472 loadbang;
#X msg 694 497 0.1;
#X floatatom 218 212 5 0 0 0 - - -;
#X obj 811 127 random 200;
#X msg 262 -35 0;
#X obj 536 -62 unpack;
#X obj 368 -69 * 28;
#X floatatom 393 -20 5 0 0 0 - - -;
#X obj 368 -48 + 100;
#X obj 459 -161 loadbang;
#X msg 339 -107 20;
#X obj 369 -157 ctlin 114;
#X obj 369 -135 * -1;
#X msg 405 -134 127;
#X obj 262 -118 sel 0 1 2 3;
#X obj 369 -111 +;
#X msg 353 349 reset \, dimen 240 240 \, offset 200 200 \, create \,
1;
#X obj 536 -158 r notes;
#X obj 134 -78 s notes;
#X obj 537 -1 pack 0 0 0;
#X obj 130 -106 pack;
#X obj 535 -31 poly 3 3;
#X obj 540 30 route 1 2 3;
#X obj 563 -111 spigot;
#X obj 596 -133 tgl 15 0 empty empty empty 17 7 0 10 -262144 -1 -1
0 1;
#X obj 498 -110 spigot;
#X obj 528 -133 tgl 15 0 empty empty empty 17 7 0 10 -262144 -1 -1
1 1;
#X obj 713 -159 ctlin 17;
#X msg 660 -135 0;
#X msg 661 -80 0;
#X msg 662 -102 1;
#X msg 673 -160 1;
#X obj 706 -79 sel 0 1;
#X obj 713 -138 / 64;
#X obj 713 -117 i;
#X floatatom 759 -97 5 0 0 0 - - -;
#X obj 132 31 / 16;
#X obj 136 74 sel 0 1 2 3 4 5 6 7;
#X obj 346 76 sel 0 1 2 3 4 5 6 7, f 21;
#X obj 694 67 sel 0 1 2 3 4 5 6 7, f 21;
#X obj 132 6 ctlin 74;
#X obj 352 14 ctlin 71;
#X obj 697 0 ctlin 76;
#X obj 354 35 / 16;
#X obj 698 21 / 16;
#X msg 355 226 534.6;
#X msg 354 247 803.6;
#X msg 135 257 534.7;
#X obj 78 -174 / 10;
#X msg 684 253 54.03;
#X msg 133 103 54.0195;
#X msg 351 105 35;
#X msg 684 100 3000;
#X obj 738 530 / 600;
#X msg 355 266 4000;
#X connect 0 0 14 0;
#X connect 1 0 46 0;
#X connect 2 0 46 1;
#X connect 2 0 51 0;
#X connect 3 0 46 2;
#X connect 3 0 52 0;
#X connect 5 0 1 0;
#X connect 5 0 12 0;
#X connect 5 0 82 0;
#X connect 5 0 48 0;
#X connect 7 0 46 0;
#X connect 8 0 2 1;
#X connect 8 0 3 1;
#X connect 10 0 2 0;
#X connect 11 0 46 3;
#X connect 11 0 52 0;
#X connect 12 0 8 0;
#X connect 13 0 20 0;
#X connect 14 0 46 0;
#X connect 15 0 4 0;
#X connect 16 0 14 3;
#X connect 16 0 19 0;
#X connect 17 0 18 0;
#X connect 18 0 14 1;
#X connect 19 0 14 3;
#X connect 20 0 14 2;
#X connect 21 0 10 0;
#X connect 22 0 10 0;
#X connect 23 0 10 0;
#X connect 24 0 86 0;
#X connect 24 1 86 1;
#X connect 25 0 105 0;
#X connect 26 0 10 0;
#X connect 27 0 10 0;
#X connect 28 0 103 0;
#X connect 29 0 65 0;
#X connect 30 0 31 0;
#X connect 31 0 11 0;
#X connect 32 0 31 0;
#X connect 33 0 31 0;
#X connect 34 0 31 0;
#X connect 35 0 31 0;
#X connect 36 0 31 0;
#X connect 37 0 65 0;
#X connect 38 0 65 0;
#X connect 39 0 65 0;
#X connect 40 0 65 0;
#X connect 41 0 104 0;
#X connect 42 0 10 0;
#X connect 43 0 17 0;
#X connect 43 0 70 0;
#X connect 44 0 13 0;
#X connect 45 0 16 0;
#X connect 47 0 60 0;
#X connect 48 0 17 0;
#X connect 49 0 104 0;
#X connect 49 0 105 0;
#X connect 51 0 50 0;
#X connect 52 0 50 1;
#X connect 53 0 119 0;
#X connect 54 0 68 0;
#X connect 55 0 54 0;
#X connect 56 0 37 0;
#X connect 57 0 56 0;
#X connect 58 0 31 0;
#X connect 59 0 58 0;
#X connect 60 0 8 0;
#X connect 61 0 54 0;
#X connect 61 0 17 0;
#X connect 62 0 61 0;
#X connect 62 0 64 0;
#X connect 62 0 69 0;
#X connect 63 0 72 0;
#X connect 64 0 56 0;
#X connect 64 0 16 0;
#X connect 65 0 3 0;
#X connect 66 0 67 0;
#X connect 67 0 52 1;
#X connect 67 0 51 1;
#X connect 68 0 10 0;
#X connect 69 0 58 0;
#X connect 69 0 13 0;
#X connect 70 0 62 0;
#X connect 70 0 63 0;
#X connect 71 0 87 0;
#X connect 71 1 87 1;
#X connect 72 0 74 0;
#X connect 74 0 62 1;
#X connect 74 0 73 0;
#X connect 75 0 76 0;
#X connect 75 0 62 0;
#X connect 75 0 79 0;
#X connect 75 0 92 0;
#X connect 76 0 63 0;
#X connect 77 0 78 0;
#X connect 77 0 80 0;
#X connect 78 0 81 0;
#X connect 79 0 81 1;
#X connect 80 0 70 0;
#X connect 80 1 62 0;
#X connect 80 2 62 0;
#X connect 80 3 62 0;
#X connect 81 0 63 0;
#X connect 82 0 4 0;
#X connect 83 0 89 0;
#X connect 83 0 91 0;
#X connect 85 0 88 0;
#X connect 86 0 84 0;
#X connect 87 0 85 0;
#X connect 87 1 85 1;
#X connect 88 0 54 0;
#X connect 88 1 56 0;
#X connect 88 2 58 0;
#X connect 89 0 71 0;
#X connect 90 0 89 1;
#X connect 91 0 54 0;
#X connect 92 0 91 1;
#X connect 93 0 99 0;
#X connect 94 0 90 0;
#X connect 95 0 92 0;
#X connect 96 0 90 0;
#X connect 97 0 92 0;
#X connect 98 0 94 0;
#X connect 98 0 97 0;
#X connect 98 1 96 0;
#X connect 98 1 95 0;
#X connect 99 0 100 0;
#X connect 100 0 101 0;
#X connect 100 0 98 0;
#X connect 102 0 28 0;
#X connect 103 0 116 0;
#X connect 103 0 70 0;
#X connect 103 1 21 0;
#X connect 103 2 26 0;
#X connect 103 3 27 0;
#X connect 103 4 22 0;
#X connect 103 5 23 0;
#X connect 103 6 42 0;
#X connect 103 7 113 0;
#X connect 104 0 117 0;
#X connect 104 1 38 0;
#X connect 104 2 39 0;
#X connect 104 3 40 0;
#X connect 104 4 29 0;
#X connect 104 5 111 0;
#X connect 104 6 112 0;
#X connect 104 7 120 0;
#X connect 105 0 118 0;
#X connect 105 1 32 0;
#X connect 105 2 33 0;
#X connect 105 3 34 0;
#X connect 105 4 35 0;
#X connect 105 5 36 0;
#X connect 105 6 30 0;
#X connect 105 7 115 0;
#X connect 106 0 102 0;
#X connect 107 0 109 0;
#X connect 108 0 110 0;
#X connect 109 0 41 0;
#X connect 110 0 25 0;
#X connect 111 0 65 0;
#X connect 112 0 65 0;
#X connect 113 0 10 0;
#X connect 115 0 54 0;
#X connect 116 0 54 0;
#X connect 117 0 56 0;
#X connect 118 0 31 0;
#X connect 119 0 52 1;
#X connect 119 0 51 1;
#X connect 120 0 65 0;
