#N canvas 24 11 752 713 10;
#X obj 255 24 catch~ sum-bus-right;
#X obj 38 21 catch~ sum-bus-left;
#X obj 133 384 pack 0 50;
#X obj 133 344 + 100;
#X obj 133 364 dbtorms;
#X obj 133 403 line~;
#X obj 99 465 *~;
#X obj 205 466 *~;
#X obj 99 629 outlet~;
#X obj 206 630 outlet~;
#X obj 99 523 *~;
#X obj 205 524 *~;
#X obj 124 252 freeverb~;
#X msg 270 135 roomsize \$1;
#X msg 124 103 width \$1;
#X msg 382 189 wet \$1;
#X obj 351 235 expr 1 - $f1;
#X msg 351 263 dry \$1;
#X msg 7 179 damping \$1;
#X obj 133 322 r OS_reverbgain;
#X obj 270 364 r OS_Amp;
#X obj 382 165 r OS_WetDry;
#X obj 270 111 r OS_RevSize;
#X obj 124 79 r OS_RevWidth;
#X obj 7 155 r OS_RevDamp;
#X obj 136 489 line~;
#X obj 136 470 pack 0 500;
#X obj 372 340 r OS_t_Amp;
#X obj 270 404 f;
#X obj 372 372 t b f;
#X connect 0 0 12 1;
#X connect 1 0 12 0;
#X connect 2 0 5 0;
#X connect 3 0 4 0;
#X connect 4 0 2 0;
#X connect 5 0 6 1;
#X connect 5 0 7 1;
#X connect 6 0 10 0;
#X connect 7 0 11 0;
#X connect 10 0 8 0;
#X connect 11 0 9 0;
#X connect 12 0 6 0;
#X connect 12 1 7 0;
#X connect 13 0 12 0;
#X connect 14 0 12 0;
#X connect 15 0 12 0;
#X connect 16 0 17 0;
#X connect 17 0 12 0;
#X connect 18 0 12 0;
#X connect 19 0 3 0;
#X connect 20 0 28 0;
#X connect 21 0 15 0;
#X connect 21 0 16 0;
#X connect 22 0 13 0;
#X connect 23 0 14 0;
#X connect 24 0 18 0;
#X connect 25 0 10 1;
#X connect 25 0 11 1;
#X connect 26 0 25 0;
#X connect 27 0 29 0;
#X connect 28 0 26 0;
#X connect 29 0 28 0;
#X connect 29 1 26 1;
