#N canvas 0 0 710 282 10;
#X text 564 141 Volume;
#X text 482 143 Hi-fr Damp;
#X obj 560 163 r OS_Amp0;
#X obj 560 225 s OS_Amp;
#X obj 485 165 r OS_damp0;
#X obj 485 196 / 100;
#X obj 485 224 s OS_damp;
#X obj 315 196 / 100;
#X obj 315 224 s OS_f0;
#X obj 315 164 r OS_f00;
#X text 390 142 Fr Ofset;
#X obj 393 164 r OS_f_offset0;
#X obj 393 223 s OS_f_offset;
#X obj 231 196 / 100;
#X text 228 143 PAN LFO;
#X obj 231 164 r OS_LFO_f0;
#X obj 231 224 s OS_LFO_f;
#X obj 20 83 / 100;
#X text 17 30 Gain;
#X obj 18 195 / 100;
#X text 15 142 Wet/Dry;
#X obj 18 163 r OS_WetDry0;
#X obj 18 223 s OS_WetDry;
#X text 61 90 comment;
#X obj 129 82 / 100;
#X text 126 29 Room Size;
#X obj 20 111 s OS_reverbgain;
#X obj 129 50 r OS_RevSize0;
#X obj 129 110 s OS_RevSize;
#X obj 227 83 / 100;
#X text 224 30 Damp;
#X obj 227 51 r OS_RevDamp0;
#X obj 227 111 s OS_RevDamp;
#X obj 126 196 / 100;
#X text 123 143 Width;
#X obj 126 164 r OS_RevWidth0;
#X obj 126 224 s OS_RevWidth;
#X obj 393 195 / 1000;
#X obj 560 197 / 1000;
#X obj 20 51 r OS_revgain0;
#X text 336 47 Receive integers from GUI and transform to internal
floating variables (developed to have more resolution in GriPD interface)
;
#X connect 2 0 38 0;
#X connect 4 0 5 0;
#X connect 5 0 6 0;
#X connect 7 0 8 0;
#X connect 9 0 7 0;
#X connect 11 0 37 0;
#X connect 13 0 16 0;
#X connect 15 0 13 0;
#X connect 17 0 26 0;
#X connect 19 0 22 0;
#X connect 21 0 19 0;
#X connect 24 0 28 0;
#X connect 27 0 24 0;
#X connect 29 0 32 0;
#X connect 31 0 29 0;
#X connect 33 0 36 0;
#X connect 35 0 33 0;
#X connect 37 0 12 0;
#X connect 38 0 3 0;
#X connect 39 0 17 0;
