#N canvas 929 190 1011 709 10;
#X obj 32 15 loadbang;
#X obj 364 15 r OS_preset;
#X obj 364 200 route 0 1 2 3 4 5 6 7;
#X obj 420 611 symbol;
#X symbolatom 420 647 10 0 0 0 - - OS_pres_name;
#X msg 133 554 Bubbles;
#X msg 7 554 GhostVoices;
#X msg 254 555 Drone;
#X msg 379 559 Windy;
#X msg 512 552 OuterSpace;
#X msg 761 546 InvertMe;
#X obj 364 175 f;
#X obj 364 114 del 500;
#X msg 364 144 bang;
#X obj 364 79 t b b f;
#X msg 513 141 \; OS_t_Amp 500 \; OS_Amp0 0;
#X msg 641 551 LiftMeUp;
#X text 717 104 All the variables begin with OS_;
#X text 716 135 Typically \, if a variable ends with a 0 it is sent
to the interface slider. Then it will be normalized.;
#X msg 886 547 Falling;
#X obj 242 18 r OS_trigger;
#X obj 242 74 select 1;
#X obj 242 108 del 500;
#X obj 364 47 f;
#X msg 9 247 \; pd dsp 1 \; OS_metro 100 \; OS_LFOspread 50 \; OS_LFO_f0
10 \; OS_f00 3000 \; OS_Q 80 \; OS_revgain0 2500 \; OS_f_offset0 1000
\; OS_attack_t 27000 \; OS_decay_t 27000 \; OS_damp0 100 \; OS_WetDry0
60 \; OS_retr_onoff 0 \; OS_polyphony 42 \; OS_RevSize0 9 \; OS_RevDamp0
50 \; OS_RevWidth0 60 \; OS_Amp0 6000 \; OS_freq_detune 0 \; OS_v_dens
1 \;;
#X msg 131 260 \; OS_metro 100 \; OS_LFOspread 70 \; OS_LFO_f0 20 \;
OS_f00 4000 \; OS_Q 30 \; OS_revgain0 1000 \; OS_f_offset0 1300 \;
OS_attack_t 100 \; OS_decay_t 200 \; OS_damp0 120 \; OS_WetDry0 18
\; OS_retr_onoff 0 \; OS_polyphony 19 \; OS_RevSize0 56 \; OS_RevDamp0
30 \; OS_RevWidth0 33 \; OS_Amp0 7000 \; OS_freq_detune 0 \; OS_v_dens
1 \;;
#X msg 254 247 \; OS_metro 100 \; OS_LFOspread 70 \; OS_LFO_f0 20 \;
OS_f00 4000 \; OS_Q 30 \; OS_revgain0 1000 \; OS_f_offset0 1300 \;
OS_attack_t 7000 \; OS_decay_t 7000 \; OS_damp0 120 \; OS_WetDry0 50
\; OS_retr_onoff 1 \; OS_polyphony 19 \; OS_RevSize0 75 \; OS_RevDamp0
30 \; OS_RevWidth0 80 \; OS_Amp0 7000 \; OS_freq_detune 0 \; OS_v_dens
1 \; OS_retrigg 500 \;;
#X msg 380 261 \; OS_metro 100 \; OS_LFOspread 80 \; OS_LFO_f0 8 \;
OS_f00 1600 \; OS_Q 8 \; OS_revgain0 1000 \; OS_f_offset0 1300 \; OS_attack_t
3000 \; OS_decay_t 7000 \; OS_damp0 135 \; OS_WetDry0 30 \; OS_retr_onoff
0 \; OS_polyphony 19 \; OS_RevSize0 85 \; OS_RevDamp0 30 \; OS_RevWidth0
99 \; OS_Amp0 7000 \; OS_freq_detune 0 \; OS_v_dens 1 \;;
#X msg 509 261 \; OS_metro 100 \; OS_LFOspread 90 \; OS_LFO_f0 10 \;
OS_f00 3600 \; OS_Q 110 \; OS_revgain0 1000 \; OS_f_offset0 1300 \;
OS_attack_t 100 \; OS_decay_t 7000 \; OS_damp0 120 \; OS_WetDry0 50
\; OS_retr_onoff 0 \; OS_polyphony 28 \; OS_RevSize0 99 \; OS_RevDamp0
30 \; OS_RevWidth0 80 \; OS_Amp0 7000 \; OS_freq_detune 0 \; OS_v_dens
1 \;;
#X msg 637 263 \; OS_metro 100 \; OS_LFOspread 77 \; OS_LFO_f0 7 \;
OS_f00 6402 \; OS_Q 95 \; OS_revgain0 1000 \; OS_f_offset0 1233 \;
OS_attack_t 10000 \; OS_decay_t 4044 \; OS_damp0 108 \; OS_WetDry0
83 \; OS_retr_onoff 0 \; OS_polyphony 24 \; OS_RevSize0 47 \; OS_RevDamp0
35 \; OS_RevWidth0 88 \; OS_Amp0 7000 \; OS_freq_detune 12 \; OS_v_dens
1 \;;
#X msg 759 264 \; OS_metro 500 \; OS_LFOspread 50 \; OS_LFO_f0 50 \;
OS_f00 3000 \; OS_Q 80 \; OS_revgain0 1000 \; OS_f_offset0 1300 \;
OS_attack_t 1000 \; OS_decay_t 100 \; OS_damp0 95 \; OS_WetDry0 30
\; OS_retr_onoff 0 \; OS_polyphony 28 \; OS_RevSize0 30 \; OS_RevDamp0
20 \; OS_RevWidth0 80 \; OS_Amp0 7000 \; OS_freq_detune 0 \; OS_v_dens
1 \;;
#X msg 885 250 \; OS_metro 100 \; OS_LFOspread 90 \; OS_LFO_f0 10 \;
OS_f00 3600 \; OS_Q 110 \; OS_revgain0 1000 \; OS_f_offset0 1300 \;
OS_attack_t 100 \; OS_decay_t 7000 \; OS_damp0 120 \; OS_WetDry0 75
\; OS_retr_onoff 0 \; OS_polyphony 28 \; OS_RevSize0 99 \; OS_RevDamp0
30 \; OS_RevWidth0 80 \; OS_Amp0 7000 \; OS_freq_detune 6 \; OS_v_dens
1 \; OS_retrigg 700 \;;
#X connect 0 0 25 0;
#X connect 0 0 5 0;
#X connect 1 0 23 0;
#X connect 2 0 24 0;
#X connect 2 0 6 0;
#X connect 2 1 25 0;
#X connect 2 1 5 0;
#X connect 2 2 26 0;
#X connect 2 2 7 0;
#X connect 2 3 27 0;
#X connect 2 3 8 0;
#X connect 2 4 28 0;
#X connect 2 4 9 0;
#X connect 2 5 29 0;
#X connect 2 5 16 0;
#X connect 2 6 30 0;
#X connect 2 6 10 0;
#X connect 2 7 31 0;
#X connect 2 7 19 0;
#X connect 3 0 4 0;
#X connect 5 0 3 0;
#X connect 6 0 3 0;
#X connect 7 0 3 0;
#X connect 8 0 3 0;
#X connect 9 0 3 0;
#X connect 10 0 3 0;
#X connect 11 0 2 0;
#X connect 12 0 13 0;
#X connect 13 0 11 0;
#X connect 14 0 12 0;
#X connect 14 1 15 0;
#X connect 14 2 11 1;
#X connect 16 0 3 0;
#X connect 19 0 3 0;
#X connect 20 0 21 0;
#X connect 21 0 22 0;
#X connect 22 0 23 0;
#X connect 23 0 14 0;
#X coords 0 0 1 1 105 30 0;
