#N canvas 168 345 883 617 10;
#X text 23 63 writes the values to the array:;
#N canvas 50 229 950 652 writer 1;
#X obj 109 110 tabwrite ParameterSave;
#X obj 252 86 loadbang;
#X obj 109 166 tabwrite ParameterSave;
#X obj 252 142 loadbang;
#X obj 109 239 tabwrite ParameterSave;
#X obj 252 215 loadbang;
#X obj 109 290 tabwrite ParameterSave;
#X obj 252 266 loadbang;
#X obj 109 359 tabwrite ParameterSave;
#X obj 252 335 loadbang;
#X obj 110 410 tabwrite ParameterSave;
#X obj 253 386 loadbang;
#X obj 109 479 tabwrite ParameterSave;
#X obj 252 455 loadbang;
#X obj 110 535 tabwrite ParameterSave;
#X obj 253 511 loadbang;
#X msg 291 535 7;
#X msg 290 110 0;
#X msg 290 166 1;
#X msg 290 239 2;
#X msg 290 290 3;
#X msg 290 359 4;
#X msg 291 410 5;
#X msg 290 479 6;
#X obj 361 113 tabwrite ParameterSave;
#X obj 504 89 loadbang;
#X msg 542 113 8;
#X obj 361 164 tabwrite ParameterSave;
#X obj 504 140 loadbang;
#X msg 542 164 9;
#X obj 359 236 tabwrite ParameterSave;
#X obj 502 212 loadbang;
#X msg 540 236 10;
#X obj 359 289 tabwrite ParameterSave;
#X obj 502 265 loadbang;
#X msg 540 289 11;
#X obj 356 358 tabwrite ParameterSave;
#X obj 500 334 loadbang;
#X msg 538 358 12;
#X obj 355 412 tabwrite ParameterSave;
#X obj 499 388 loadbang;
#X msg 537 412 13;
#X obj 356 482 tabwrite ParameterSave;
#X obj 499 458 loadbang;
#X msg 537 482 14;
#X obj 356 532 tabwrite ParameterSave;
#X obj 499 508 loadbang;
#X msg 537 532 15;
#X obj 639 117 tabwrite ParameterSave;
#X obj 782 93 loadbang;
#X msg 820 117 16;
#X obj 639 166 tabwrite ParameterSave;
#X obj 782 142 loadbang;
#X msg 820 166 17;
#X obj 640 244 tabwrite ParameterSave;
#X obj 783 220 loadbang;
#X msg 821 244 18;
#X obj 109 85 r OS_metro;
#X obj 109 141 r OS_LFOspread;
#X obj 109 214 r OS_LFO_f0;
#X obj 109 265 r OS_f00;
#X obj 109 333 r OS_Q;
#X obj 110 385 r OS_revgain0;
#X obj 109 454 r OS_f_offset0;
#X obj 110 510 r OS_attack_t;
#X obj 361 88 r OS_decay_t;
#X obj 361 139 r OS_damp0;
#X obj 359 211 r OS_WetDry0;
#X obj 359 264 r OS_retr_onoff;
#X obj 356 333 r OS_polyphony;
#X obj 355 387 r OS_RevSize0;
#X obj 356 456 r OS_RevDamp0;
#X obj 356 507 r OS_RevWidth0;
#X obj 639 92 r OS_Amp0;
#X obj 639 141 r OS_freq_detune;
#X obj 640 219 r OS_v_dens;
#X floatatom 47 300 5 0 0 0 - - -;
#X floatatom 56 115 5 0 0 0 - - -;
#X floatatom 594 118 5 0 0 0 - - -;
#X obj 643 308 tabwrite ParameterSave;
#X obj 786 284 loadbang;
#X obj 643 283 r OS_retrigg;
#X msg 824 308 19;
#X floatatom 603 310 5 0 0 0 - - -;
#X connect 1 0 17 0;
#X connect 3 0 18 0;
#X connect 5 0 19 0;
#X connect 7 0 20 0;
#X connect 9 0 21 0;
#X connect 11 0 22 0;
#X connect 13 0 23 0;
#X connect 15 0 16 0;
#X connect 16 0 14 1;
#X connect 17 0 0 1;
#X connect 18 0 2 1;
#X connect 19 0 4 1;
#X connect 20 0 6 1;
#X connect 21 0 8 1;
#X connect 22 0 10 1;
#X connect 23 0 12 1;
#X connect 25 0 26 0;
#X connect 26 0 24 1;
#X connect 28 0 29 0;
#X connect 29 0 27 1;
#X connect 31 0 32 0;
#X connect 32 0 30 1;
#X connect 34 0 35 0;
#X connect 35 0 33 1;
#X connect 37 0 38 0;
#X connect 38 0 36 1;
#X connect 40 0 41 0;
#X connect 41 0 39 1;
#X connect 43 0 44 0;
#X connect 44 0 42 1;
#X connect 46 0 47 0;
#X connect 47 0 45 1;
#X connect 49 0 50 0;
#X connect 50 0 48 1;
#X connect 52 0 53 0;
#X connect 53 0 51 1;
#X connect 55 0 56 0;
#X connect 56 0 54 1;
#X connect 57 0 0 0;
#X connect 57 0 77 0;
#X connect 58 0 2 0;
#X connect 59 0 4 0;
#X connect 60 0 6 0;
#X connect 60 0 76 0;
#X connect 61 0 8 0;
#X connect 62 0 10 0;
#X connect 63 0 12 0;
#X connect 64 0 14 0;
#X connect 65 0 24 0;
#X connect 66 0 27 0;
#X connect 67 0 30 0;
#X connect 68 0 33 0;
#X connect 69 0 36 0;
#X connect 70 0 39 0;
#X connect 71 0 42 0;
#X connect 72 0 45 0;
#X connect 73 0 48 0;
#X connect 73 0 78 0;
#X connect 74 0 51 0;
#X connect 75 0 54 0;
#X connect 80 0 82 0;
#X connect 81 0 79 0;
#X connect 81 0 83 0;
#X connect 82 0 79 1;
#X restore 322 59 pd writer;
#N canvas 228 59 812 644 reader 0;
#X msg 43 117 0;
#X obj 43 140 tabread ParameterSave;
#X obj 43 216 tabread ParameterSave;
#X obj 44 303 tabread ParameterSave;
#X obj 44 376 tabread ParameterSave;
#X obj 45 542 tabread ParameterSave;
#X obj 46 469 tabread ParameterSave;
#X obj 240 136 tabread ParameterSave;
#X obj 242 216 tabread ParameterSave;
#X msg 43 193 1;
#X msg 44 280 2;
#X msg 44 353 3;
#X obj 244 290 tabread ParameterSave;
#X obj 244 367 tabread ParameterSave;
#X obj 245 455 tabread ParameterSave;
#X obj 245 527 tabread ParameterSave;
#X obj 243 617 tabread ParameterSave;
#X obj 512 137 tabread ParameterSave;
#X obj 514 214 tabread ParameterSave;
#X obj 514 288 tabread ParameterSave;
#X obj 516 381 tabread ParameterSave;
#X obj 516 452 tabread ParameterSave;
#X obj 276 29 inlet;
#X obj 43 164 s OS_metro;
#X obj 43 239 s OS_LFOspread;
#X obj 44 326 s OS_LFO_f0;
#X obj 45 565 s OS_revgain0;
#X obj 240 159 s OS_attack_t;
#X obj 242 239 s OS_decay_t;
#X obj 244 313 s OS_damp0;
#X obj 244 390 s OS_WetDry0;
#X obj 245 477 s OS_retr_onoff;
#X obj 245 549 s OS_polyphony;
#X obj 243 639 s OS_RevSize0;
#X obj 512 159 s OS_RevDamp0;
#X obj 44 400 s OS_f00;
#X msg 45 519 5;
#X obj 46 491 s OS_Q;
#X msg 46 446 4;
#X msg 242 193 8;
#X msg 244 267 9;
#X msg 244 344 10;
#X msg 245 432 11;
#X msg 245 504 12;
#X msg 243 594 13;
#X msg 512 114 14;
#X msg 514 191 15;
#X msg 514 265 16;
#X msg 516 358 17;
#X msg 516 429 18;
#X msg 240 113 7;
#X obj 46 619 tabread ParameterSave;
#X msg 46 596 6;
#X obj 46 642 s OS_f_offset0;
#X obj 514 237 s OS_RevWidth0;
#X obj 516 404 s OS_freq_detune;
#X obj 516 475 s OS_v_dens;
#X floatatom 336 243 5 0 0 0 - - -;
#X floatatom 326 184 5 0 0 0 - - -;
#X obj 130 53 bng 15 250 50 0 empty empty empty 0 -6 0 8 -262144 -1
-1;
#X text 516 310 do not connect this!;
#X obj 517 529 tabread ParameterSave;
#X msg 517 506 19;
#X obj 517 552 s OS_retrigg;
#X connect 0 0 1 0;
#X connect 1 0 23 0;
#X connect 2 0 24 0;
#X connect 3 0 25 0;
#X connect 4 0 35 0;
#X connect 5 0 26 0;
#X connect 6 0 37 0;
#X connect 7 0 27 0;
#X connect 7 0 58 0;
#X connect 8 0 28 0;
#X connect 8 0 57 0;
#X connect 9 0 2 0;
#X connect 10 0 3 0;
#X connect 11 0 4 0;
#X connect 12 0 29 0;
#X connect 13 0 30 0;
#X connect 14 0 31 0;
#X connect 15 0 32 0;
#X connect 16 0 33 0;
#X connect 17 0 34 0;
#X connect 18 0 54 0;
#X connect 20 0 55 0;
#X connect 21 0 56 0;
#X connect 22 0 0 0;
#X connect 22 0 9 0;
#X connect 22 0 10 0;
#X connect 22 0 11 0;
#X connect 22 0 36 0;
#X connect 22 0 38 0;
#X connect 22 0 50 0;
#X connect 22 0 39 0;
#X connect 22 0 40 0;
#X connect 22 0 41 0;
#X connect 22 0 42 0;
#X connect 22 0 43 0;
#X connect 22 0 44 0;
#X connect 22 0 45 0;
#X connect 22 0 46 0;
#X connect 22 0 47 0;
#X connect 22 0 48 0;
#X connect 22 0 49 0;
#X connect 22 0 52 0;
#X connect 22 0 59 0;
#X connect 22 0 62 0;
#X connect 36 0 5 0;
#X connect 38 0 6 0;
#X connect 39 0 8 0;
#X connect 40 0 12 0;
#X connect 41 0 13 0;
#X connect 42 0 14 0;
#X connect 43 0 15 0;
#X connect 44 0 16 0;
#X connect 45 0 17 0;
#X connect 46 0 18 0;
#X connect 47 0 19 0;
#X connect 48 0 20 0;
#X connect 49 0 21 0;
#X connect 50 0 7 0;
#X connect 51 0 53 0;
#X connect 52 0 51 0;
#X connect 61 0 63 0;
#X connect 62 0 61 0;
#X restore 294 403 pd reader;
#X obj 22 371 table ParameterSave 20;
#X obj 23 121 r OS_ParSave;
#X obj 278 106 r OS_ParLoad;
#X obj 23 162 savepanel;
#X obj 23 238 symbol;
#X obj 23 200 t b s;
#X msg 23 281 \; ParameterSave write \$1 \;;
#X obj 310 302 symbol;
#X obj 278 220 openpanel;
#X msg 310 343 \; ParameterSave read \$1;
#X text 26 6 STATE SAVING;
#X msg 374 183 \; OS_t_Amp 300 \; OS_Amp0 0 \;;
#X obj 278 137 t b b;
#X obj 278 257 t b b b s;
#X obj 278 439 del 1000;
#X text 21 31 Saves The Parameters In An Array (idea from G. Holzmann's
GenGran);
#X msg 278 465 \; OS_t_Amp 1000 \; OS_Amp0 300 \;;
#X symbolatom 458 399 12 0 0 0 - - OS_pres_name;
#X obj 373 303 splitfilename /;
#X connect 4 0 6 0;
#X connect 5 0 15 0;
#X connect 6 0 8 0;
#X connect 7 0 9 0;
#X connect 8 0 7 0;
#X connect 8 1 7 1;
#X connect 10 0 12 0;
#X connect 11 0 16 0;
#X connect 15 0 11 0;
#X connect 15 1 14 0;
#X connect 16 0 17 0;
#X connect 16 1 2 0;
#X connect 16 2 10 0;
#X connect 16 3 10 1;
#X connect 16 3 21 0;
#X connect 17 0 19 0;
#X connect 21 1 20 0;
