#N canvas 784 260 1011 709 10;
#X obj 376 17 inlet~;
#X obj 469 107 line~;
#X obj 375 139 *~;
#X text 116 60 SOUND GENERATOR;
#X obj 469 77 pack 0 1000;
#X obj 469 19 r OS_trigger;
#X obj 581 65 select 1;
#X obj 624 89 bng 15 250 50 0 empty empty empty 0 -6 0 8 -262144 -1
-1;
#X obj 469 48 t f f;
#X obj 624 117 delay 1000;
#X text 730 152 set polyphony to 1 when ON/OFF is set to OFF;
#X msg 624 147 \; OS_polyphony 1 \; OS_Amp0 0 \;;
#X obj 135 214 voice_n 2;
#X obj 39 215 voice_n 1;
#X obj 39 327 voice_n 33;
#X obj 345 421 voice_n 60;
#X obj 39 272 voice_n 17;
#X obj 39 355 voice_n 41;
#X obj 39 243 voice_n 9;
#X obj 39 387 voice_n 49;
#X obj 765 220 voice_n 8;
#X obj 39 300 voice_n 25;
#X obj 135 271 voice_n 18;
#X obj 39 416 voice_n 57;
#X obj 765 360 voice_n 48;
#X obj 563 304 voice_n 30;
#X obj 135 299 voice_n 26;
#X obj 239 273 voice_n 19;
#X obj 239 216 voice_n 3;
#X obj 345 220 voice_n 4;
#X obj 458 220 voice_n 5;
#X obj 563 219 voice_n 6;
#X obj 665 217 voice_n 7;
#X obj 135 242 voice_n 10;
#X obj 239 244 voice_n 11;
#X obj 345 248 voice_n 12;
#X obj 458 248 voice_n 13;
#X obj 563 247 voice_n 14;
#X obj 665 245 voice_n 15;
#X obj 765 248 voice_n 16;
#X obj 345 277 voice_n 20;
#X obj 458 277 voice_n 21;
#X obj 563 276 voice_n 22;
#X obj 665 274 voice_n 23;
#X obj 765 277 voice_n 24;
#X obj 239 301 voice_n 27;
#X obj 345 305 voice_n 28;
#X obj 458 305 voice_n 29;
#X obj 665 302 voice_n 31;
#X obj 765 305 voice_n 32;
#X obj 135 326 voice_n 34;
#X obj 239 328 voice_n 35;
#X obj 345 332 voice_n 36;
#X obj 458 332 voice_n 37;
#X obj 563 331 voice_n 38;
#X obj 665 329 voice_n 39;
#X obj 765 332 voice_n 40;
#X obj 135 354 voice_n 42;
#X obj 239 356 voice_n 43;
#X obj 345 360 voice_n 44;
#X obj 458 360 voice_n 45;
#X obj 563 359 voice_n 46;
#X obj 665 357 voice_n 47;
#X obj 135 387 voice_n 50;
#X obj 239 389 voice_n 51;
#X obj 345 393 voice_n 52;
#X obj 458 393 voice_n 53;
#X obj 563 392 voice_n 54;
#X obj 665 390 voice_n 55;
#X obj 765 393 voice_n 56;
#X obj 135 415 voice_n 58;
#X obj 239 417 voice_n 59;
#X obj 458 421 voice_n 61;
#X obj 563 420 voice_n 62;
#X obj 665 418 voice_n 63;
#X obj 765 421 voice_n 64;
#X connect 0 0 2 0;
#X connect 1 0 2 1;
#X connect 2 0 12 0;
#X connect 2 0 13 0;
#X connect 2 0 14 0;
#X connect 2 0 15 0;
#X connect 2 0 16 0;
#X connect 2 0 17 0;
#X connect 2 0 18 0;
#X connect 2 0 19 0;
#X connect 2 0 20 0;
#X connect 2 0 21 0;
#X connect 2 0 22 0;
#X connect 2 0 23 0;
#X connect 2 0 24 0;
#X connect 2 0 25 0;
#X connect 2 0 26 0;
#X connect 2 0 27 0;
#X connect 2 0 28 0;
#X connect 2 0 29 0;
#X connect 2 0 30 0;
#X connect 2 0 31 0;
#X connect 2 0 32 0;
#X connect 2 0 33 0;
#X connect 2 0 34 0;
#X connect 2 0 35 0;
#X connect 2 0 36 0;
#X connect 2 0 37 0;
#X connect 2 0 38 0;
#X connect 2 0 39 0;
#X connect 2 0 40 0;
#X connect 2 0 42 0;
#X connect 2 0 43 0;
#X connect 2 0 44 0;
#X connect 2 0 45 0;
#X connect 2 0 46 0;
#X connect 2 0 47 0;
#X connect 2 0 48 0;
#X connect 2 0 49 0;
#X connect 2 0 50 0;
#X connect 2 0 51 0;
#X connect 2 0 52 0;
#X connect 2 0 53 0;
#X connect 2 0 54 0;
#X connect 2 0 55 0;
#X connect 2 0 56 0;
#X connect 2 0 57 0;
#X connect 2 0 58 0;
#X connect 2 0 59 0;
#X connect 2 0 60 0;
#X connect 2 0 61 0;
#X connect 2 0 62 0;
#X connect 2 0 63 0;
#X connect 2 0 64 0;
#X connect 2 0 65 0;
#X connect 2 0 66 0;
#X connect 2 0 67 0;
#X connect 2 0 68 0;
#X connect 2 0 69 0;
#X connect 2 0 70 0;
#X connect 2 0 71 0;
#X connect 2 0 72 0;
#X connect 2 0 73 0;
#X connect 2 0 74 0;
#X connect 2 0 75 0;
#X connect 4 0 1 0;
#X connect 5 0 8 0;
#X connect 6 1 7 0;
#X connect 7 0 9 0;
#X connect 8 0 4 0;
#X connect 8 1 6 0;
#X connect 9 0 11 0;
