#N canvas 3 86 1522 754 12;
#X obj 167 174 metro;
#X msg 177 124 tempo \$1 permin;
#X floatatom 180 90 5 0 0 0 - - -;
#X obj 192 229 bng 15 250 50 0 empty empty empty 17 7 0 10 -262144
-1 -1;
#X obj 129 258 f;
#X obj 157 255 + 1;
#X floatatom 130 290 5 0 0 0 - - -;
#X obj 140 346 % 8, f 4;
#X floatatom 188 380 5 0 0 0 - - -;
#X obj 426 378 bng 15 250 50 0 empty empty empty 17 7 0 10 -262144
-1 -1;
#X obj 453 378 bng 15 250 50 0 empty empty empty 17 7 0 10 -262144
-1 -1;
#X obj 479 377 bng 15 250 50 0 empty empty empty 17 7 0 10 -262144
-1 -1;
#X obj 504 378 bng 15 250 50 0 empty empty empty 17 7 0 10 -262144
-1 -1;
#X obj 530 378 bng 15 250 50 0 empty empty empty 17 7 0 10 -262144
-1 -1;
#X obj 557 378 bng 15 250 50 0 empty empty empty 17 7 0 10 -262144
-1 -1;
#X obj 586 378 bng 15 250 50 0 empty empty empty 17 7 0 10 -262144
-1 -1;
#X obj 613 378 bng 15 250 50 0 empty empty empty 17 7 0 10 -262144
-1 -1;
#X floatatom 455 500 5 0 100 0 - - -;
#X obj 1443 546 *~;
#X obj 1470 641 dac~;
#X obj 1501 295 adc~;
#X obj 1531 539 *~;
#X obj 430 640 line;
#X floatatom 430 693 5 0 0 0 - - -;
#X floatatom 277 536 5 0 100 0 - - -;
#X obj 660 674 /;
#X msg 370 530 100;
#X floatatom 656 714 5 0 0 0 - - -;
#X obj 1444 188 ctlin 88;
#X obj 1470 423 *~;
#X obj 1523 424 *~;
#X floatatom 1450 260 5 0 1 0 - - -;
#X obj 47 13 ctlin 89;
#X obj 208 437 ctlin 90;
#X obj 42 154 ctlin 91;
#X obj 260 170 ctlin 92;
#X obj 332 171 ctlin 93;
#X obj 331 200 / 127;
#X obj 329 227 * 100;
#X obj 261 200 / 127;
#X obj 259 227 * 100;
#X obj 212 471 / 127;
#X obj 1447 228 / 127;
#X obj 92 59 * 5;
#X obj 150 -30 loadbang;
#X msg 1390 120 0.5;
#X msg 322 383 50;
#X msg 165 48 240;
#X obj 401 200 / 127;
#X obj 399 227 * 100;
#X obj 470 199 / 127;
#X obj 468 226 * 100;
#X obj 402 171 ctlin 94;
#X obj 471 170 ctlin 95;
#X obj 539 199 / 127;
#X obj 537 226 * 100;
#X obj 540 170 ctlin 96;
#X obj 612 203 / 127;
#X obj 610 230 * 100;
#X obj 682 203 / 127;
#X obj 680 230 * 100;
#X obj 610 170 ctlin 97;
#X obj 752 203 / 127;
#X obj 750 230 * 100;
#X obj 683 174 ctlin 98;
#X obj 753 174 ctlin 99;
#X obj 891 210 / 127;
#X obj 889 237 * 100;
#X obj 821 210 / 127;
#X obj 819 237 * 100;
#X obj 961 210 / 127;
#X obj 959 237 * 100;
#X obj 1030 209 / 127;
#X obj 1028 236 * 100;
#X obj 1099 209 / 127;
#X obj 1097 236 * 100;
#X obj 1172 213 / 127;
#X obj 1170 240 * 100;
#X obj 1242 213 / 127;
#X obj 1240 240 * 100;
#X obj 1312 213 / 127;
#X obj 1310 240 * 100;
#X obj 820 180 ctlin 100;
#X obj 892 181 ctlin 101;
#X obj 962 181 ctlin 102;
#X obj 1031 180 ctlin 103;
#X obj 1100 180 ctlin 104;
#X obj 1170 180 ctlin 105;
#X obj 1240 180 ctlin 106;
#X obj 1313 184 ctlin 107;
#X obj 530 310 select 0 1 2 3 4 5 6 7 8 9 10 11 12 13 14 15;
#X obj 820 380 bng 15 250 50 0 empty empty empty 17 7 0 10 -262144
-1 -1;
#X obj 847 380 bng 15 250 50 0 empty empty empty 17 7 0 10 -262144
-1 -1;
#X obj 874 380 bng 15 250 50 0 empty empty empty 17 7 0 10 -262144
-1 -1;
#X obj 898 380 bng 15 250 50 0 empty empty empty 17 7 0 10 -262144
-1 -1;
#X obj 924 380 bng 15 250 50 0 empty empty empty 17 7 0 10 -262144
-1 -1;
#X obj 951 380 bng 15 250 50 0 empty empty empty 17 7 0 10 -262144
-1 -1;
#X obj 980 380 bng 15 250 50 0 empty empty empty 17 7 0 10 -262144
-1 -1;
#X obj 1007 380 bng 15 250 50 0 empty empty empty 17 7 0 10 -262144
-1 -1;
#X floatatom 53 292 5 1 16 0 - - -;
#X msg 151 526 10;
#X obj 38 205 div 8;
#X obj 46 246 + 1;
#X text 52 -7 Tempo;
#X obj 212 495 * 100;
#X obj 417 464 f;
#X floatatom 410 501 5 0 0 0 - - -;
#X obj 451 465 f;
#X obj 487 464 f;
#X floatatom 495 499 5 0 100 0 - - -;
#X obj 525 464 f;
#X floatatom 534 500 5 0 100 0 - - -;
#X floatatom 626 499 5 0 100 0 - - -;
#X obj 588 463 f;
#X floatatom 581 500 5 0 0 0 - - -;
#X obj 622 464 f;
#X obj 658 463 f;
#X floatatom 666 498 5 0 100 0 - - -;
#X obj 696 463 f;
#X floatatom 705 499 5 0 100 0 - - -;
#X floatatom 817 501 5 0 100 0 - - -;
#X obj 779 465 f;
#X floatatom 772 502 5 0 0 0 - - -;
#X obj 813 466 f;
#X obj 849 465 f;
#X floatatom 857 500 5 0 100 0 - - -;
#X obj 887 465 f;
#X floatatom 896 501 5 0 100 0 - - -;
#X floatatom 994 505 5 0 100 0 - - -;
#X obj 956 469 f;
#X floatatom 949 506 5 0 0 0 - - -;
#X obj 990 470 f;
#X obj 1026 469 f;
#X floatatom 1034 504 5 0 100 0 - - -;
#X obj 1064 469 f;
#X floatatom 1073 505 5 0 100 0 - - -;
#X obj 229 600 f;
#X connect 0 0 3 0;
#X connect 1 0 0 0;
#X connect 2 0 1 0;
#X connect 3 0 4 0;
#X connect 3 0 26 0;
#X connect 3 0 136 0;
#X connect 4 0 5 0;
#X connect 4 0 6 0;
#X connect 5 0 4 1;
#X connect 6 0 7 0;
#X connect 7 0 8 0;
#X connect 8 0 90 0;
#X connect 9 0 105 0;
#X connect 10 0 107 0;
#X connect 11 0 108 0;
#X connect 12 0 110 0;
#X connect 13 0 113 0;
#X connect 14 0 115 0;
#X connect 15 0 116 0;
#X connect 16 0 118 0;
#X connect 18 0 19 0;
#X connect 20 0 29 0;
#X connect 20 1 30 0;
#X connect 21 0 19 1;
#X connect 22 0 23 0;
#X connect 22 0 25 0;
#X connect 25 0 27 0;
#X connect 25 0 18 1;
#X connect 25 0 21 1;
#X connect 26 0 25 1;
#X connect 28 0 42 0;
#X connect 29 0 18 0;
#X connect 30 0 21 0;
#X connect 31 0 29 1;
#X connect 31 0 30 1;
#X connect 32 0 43 0;
#X connect 33 0 41 0;
#X connect 34 0 101 0;
#X connect 35 0 39 0;
#X connect 36 0 37 0;
#X connect 37 0 38 0;
#X connect 38 0 107 1;
#X connect 39 0 40 0;
#X connect 40 0 105 1;
#X connect 41 0 104 0;
#X connect 42 0 31 0;
#X connect 43 0 2 0;
#X connect 44 0 47 0;
#X connect 44 0 0 0;
#X connect 44 0 45 0;
#X connect 44 0 46 0;
#X connect 44 0 100 0;
#X connect 45 0 31 0;
#X connect 46 0 105 1;
#X connect 46 0 108 1;
#X connect 46 0 113 1;
#X connect 46 0 116 1;
#X connect 46 0 121 1;
#X connect 46 0 129 1;
#X connect 46 0 132 1;
#X connect 46 0 124 1;
#X connect 47 0 2 0;
#X connect 48 0 49 0;
#X connect 49 0 108 1;
#X connect 50 0 51 0;
#X connect 51 0 110 1;
#X connect 52 0 48 0;
#X connect 53 0 50 0;
#X connect 54 0 55 0;
#X connect 55 0 113 1;
#X connect 56 0 54 0;
#X connect 57 0 58 0;
#X connect 58 0 115 1;
#X connect 59 0 60 0;
#X connect 60 0 116 1;
#X connect 61 0 57 0;
#X connect 62 0 63 0;
#X connect 63 0 118 1;
#X connect 64 0 59 0;
#X connect 65 0 62 0;
#X connect 66 0 67 0;
#X connect 67 0 123 1;
#X connect 68 0 69 0;
#X connect 69 0 121 1;
#X connect 70 0 71 0;
#X connect 71 0 124 1;
#X connect 72 0 73 0;
#X connect 73 0 126 1;
#X connect 74 0 75 0;
#X connect 75 0 129 1;
#X connect 76 0 77 0;
#X connect 77 0 131 1;
#X connect 78 0 79 0;
#X connect 79 0 132 1;
#X connect 80 0 81 0;
#X connect 81 0 134 1;
#X connect 82 0 68 0;
#X connect 83 0 66 0;
#X connect 84 0 70 0;
#X connect 85 0 72 0;
#X connect 86 0 74 0;
#X connect 87 0 76 0;
#X connect 88 0 78 0;
#X connect 89 0 80 0;
#X connect 90 0 9 0;
#X connect 90 1 10 0;
#X connect 90 2 11 0;
#X connect 90 3 12 0;
#X connect 90 4 13 0;
#X connect 90 5 14 0;
#X connect 90 6 15 0;
#X connect 90 7 16 0;
#X connect 90 8 91 0;
#X connect 90 9 92 0;
#X connect 90 10 93 0;
#X connect 90 11 94 0;
#X connect 90 12 95 0;
#X connect 90 13 96 0;
#X connect 90 14 97 0;
#X connect 90 15 98 0;
#X connect 91 0 121 0;
#X connect 92 0 123 0;
#X connect 93 0 124 0;
#X connect 94 0 126 0;
#X connect 95 0 129 0;
#X connect 96 0 131 0;
#X connect 97 0 132 0;
#X connect 98 0 134 0;
#X connect 99 0 7 1;
#X connect 100 0 136 1;
#X connect 101 0 102 0;
#X connect 102 0 99 0;
#X connect 104 0 24 0;
#X connect 104 0 136 1;
#X connect 105 0 22 0;
#X connect 105 0 106 0;
#X connect 107 0 22 0;
#X connect 107 0 17 0;
#X connect 108 0 22 0;
#X connect 108 0 109 0;
#X connect 110 0 111 0;
#X connect 110 0 22 0;
#X connect 113 0 114 0;
#X connect 113 0 22 0;
#X connect 115 0 112 0;
#X connect 115 0 22 0;
#X connect 116 0 117 0;
#X connect 116 0 22 0;
#X connect 118 0 119 0;
#X connect 118 0 22 0;
#X connect 121 0 122 0;
#X connect 121 0 22 0;
#X connect 123 0 120 0;
#X connect 123 0 22 0;
#X connect 124 0 125 0;
#X connect 124 0 22 0;
#X connect 126 0 127 0;
#X connect 126 0 22 0;
#X connect 129 0 130 0;
#X connect 129 0 22 0;
#X connect 131 0 128 0;
#X connect 131 0 22 0;
#X connect 132 0 133 0;
#X connect 132 0 22 0;
#X connect 134 0 135 0;
#X connect 134 0 22 0;
#X connect 136 0 22 1;
