#N canvas 429 495 1109 502 10;
#X declare -path ./rj;
#X obj 57 225 pack 0 0 0, f 11;
#X obj 57 251 route 1 2 3 4 5 6 7 8, f 46;
#X obj 728 172 i;
#X obj 728 134 + 5;
#X obj 728 112 * 2000;
#X obj 411 149 i;
#X obj 544 123 * 100;
#X obj 544 148 i;
#X obj 590 150 s mod;
#X obj 366 296 voice;
#X obj 411 116 * 100;
#X obj 590 124 * 4;
#X obj 766 172 s decay;
#X obj 883 133 i;
#X obj 902 190 s transpose;
#X obj 145 129 r transpose;
#X floatatom 145 151 5 0 0 0 - - -, f 5;
#X obj 89 171 + 0;
#X obj 883 111 * 24;
#X obj 883 155 - 12;
#X obj 88 193 - 12;
#X text 510 24 Fender Rhodes style voice using rjdj rhodey abstraction
\, which is itself based on the STK Rhodey code;
#X text 56 54 basic polyphonic patch with 8 voices and sequencer;
#X obj 57 389 *~ 0.3;
#X obj 57 129 poly 8 1, f 11;
#X obj 459 116 s tone;
#X obj 411 209 s rhod-tone-label;
#X obj 544 213 s rhod-mod-label;
#X obj 728 232 s rhod-decay-label;
#X obj 883 242 s rhod-trans-label;
#X obj 57 443 throw~ rhod-outL;
#X obj 182 443 throw~ rhod-outR;
#X obj 411 81 r rhod-tone;
#X obj 544 80 r rhod-mod;
#X obj 728 80 r rhod-decay;
#X obj 883 78 r rhod-trans;
#X obj 233 296 voice;
#X obj 277 296 voice;
#X obj 103 297 voice;
#X obj 145 297 voice;
#X obj 187 297 voice;
#X obj 323 296 voice;
#X msg 544 183 Modulation \$1 %;
#X msg 411 185 Tone \$1 %;
#X msg 728 205 Decay Time \$1 ms;
#X msg 883 216 Transpose \$1;
#X obj 57 84 r rhod-notes-in;
#X obj 57 297 voice;
#X connect 0 0 1 0;
#X connect 1 0 47 0;
#X connect 1 1 38 0;
#X connect 1 2 39 0;
#X connect 1 3 40 0;
#X connect 1 4 36 0;
#X connect 1 5 37 0;
#X connect 1 6 41 0;
#X connect 1 7 9 0;
#X connect 2 0 44 0;
#X connect 3 0 2 0;
#X connect 3 0 12 0;
#X connect 4 0 3 0;
#X connect 5 0 43 0;
#X connect 6 0 7 0;
#X connect 7 0 42 0;
#X connect 9 0 23 0;
#X connect 10 0 5 0;
#X connect 11 0 8 0;
#X connect 13 0 19 0;
#X connect 15 0 16 0;
#X connect 16 0 17 1;
#X connect 17 0 20 0;
#X connect 18 0 13 0;
#X connect 19 0 14 0;
#X connect 19 0 45 0;
#X connect 20 0 0 1;
#X connect 23 0 30 0;
#X connect 23 0 31 0;
#X connect 24 0 0 0;
#X connect 24 1 17 0;
#X connect 24 2 0 2;
#X connect 32 0 10 0;
#X connect 32 0 25 0;
#X connect 33 0 6 0;
#X connect 33 0 11 0;
#X connect 34 0 4 0;
#X connect 35 0 18 0;
#X connect 36 0 23 0;
#X connect 37 0 23 0;
#X connect 38 0 23 0;
#X connect 39 0 23 0;
#X connect 40 0 23 0;
#X connect 41 0 23 0;
#X connect 42 0 27 0;
#X connect 43 0 26 0;
#X connect 44 0 28 0;
#X connect 45 0 29 0;
#X connect 46 0 24 0;
#X connect 47 0 23 0;
