#N canvas 816 54 506 555 10;
#N canvas 533 206 369 429 adsr 0;
#X obj 101 101 cnv 15 137 176 empty empty AMP_ENV 3 11 0 13 -258049
-262144 0;
#X obj 109 147 vsl 13 117 0 1 0 0 empty amp_a_init a 0 -9 0 10 -262144
-1 -262144 2320 1;
#X obj 141 147 vsl 13 117 0 1 0 0 empty amp_d_init d 0 -9 0 10 -262144
-1 -262144 2320 1;
#X obj 205 147 vsl 13 117 0 1 0 0 empty amp_r_init r 0 -9 0 10 -262144
-1 -262144 4640 1;
#X obj 109 285 s amp_a;
#X obj 173 285 s amp_s;
#X obj 141 309 s amp_d;
#X obj 205 309 s amp_r;
#X obj 173 147 vsl 13 117 0 1 0 0 empty amp_s_init s 0 -9 0 10 -262144
-1 -262144 4640 1;
#X obj 58 71 / 127;
#X obj 118 73 / 127;
#X obj 176 73 / 127;
#X obj 249 73 / 127;
#X obj 50 45 ctlin 25;
#X obj 110 48 ctlin 26;
#X obj 168 47 ctlin 27;
#X obj 241 47 ctlin 28;
#X connect 1 0 4 0;
#X connect 2 0 6 0;
#X connect 3 0 7 0;
#X connect 8 0 5 0;
#X connect 9 0 1 0;
#X connect 10 0 2 0;
#X connect 11 0 8 0;
#X connect 12 0 3 0;
#X connect 13 0 9 0;
#X connect 14 0 10 0;
#X connect 15 0 11 0;
#X connect 16 0 12 0;
#X coords 0 -1 1 1 139 178 1 100 100;
#X restore 321 243 pd adsr;
#N canvas 533 207 434 427 adsr 0;
#X obj 101 101 cnv 15 137 176 empty empty FILTER_ENV 3 11 0 13 -258049
-262144 0;
#X obj 109 147 vsl 13 117 0 1 0 0 empty fq_a_init a 0 -9 0 10 -262144
-1 -262144 2320 1;
#X obj 141 147 vsl 13 117 0 1 0 0 empty fq_d_init d 0 -9 0 10 -262144
-1 -262144 2320 1;
#X obj 205 147 vsl 13 117 0 1 0 0 empty fq_r_init r 0 -9 0 10 -262144
-1 -262144 4640 1;
#X obj 173 147 vsl 13 117 0 1 0 0 empty fq_s_init s 0 -9 0 10 -262144
-1 -262144 1160 1;
#X obj 109 285 s fq_a;
#X obj 141 309 s fq_d;
#X obj 173 285 s fq_s;
#X obj 205 309 s fq_r;
#X obj 58 71 / 127;
#X obj 118 73 / 127;
#X obj 176 73 / 127;
#X obj 249 73 / 127;
#X obj 50 45 ctlin 91;
#X obj 110 48 ctlin 93;
#X obj 168 47 ctlin 82;
#X obj 241 47 ctlin 83;
#X connect 1 0 5 0;
#X connect 2 0 6 0;
#X connect 3 0 8 0;
#X connect 4 0 7 0;
#X connect 9 0 1 0;
#X connect 10 0 2 0;
#X connect 11 0 4 0;
#X connect 12 0 3 0;
#X connect 13 0 9 0;
#X connect 14 0 10 0;
#X connect 15 0 11 0;
#X connect 16 0 12 0;
#X coords 0 -1 1 1 139 178 1 100 100;
#X restore 172 243 pd adsr;
#X obj 56 141 hsl 104 13 0 1 0 0 osc_mix osc_mix_init osc_mix 5 8 0
10 -262144 -258049 -1 0 1;
#N canvas 413 316 371 292 lfo 0;
#X obj 101 101 cnv 15 137 97 empty empty LFO 3 11 0 13 -258049 -262144
0;
#X obj 112 175 hsl 104 13 0 1 0 0 lfo_depth lfo_depth_init depth -2
-8 0 10 -262144 -1 -262144 0 1;
#X obj 112 143 hsl 104 13 0.01 1 1 0 lfo_rate lfo_rate_init rate -2
-8 0 10 -262144 -1 -262144 0 1;
#X obj 44 110 / 127;
#X obj 20 180 / 127;
#X obj 31 87 ctlin 21;
#X obj 12 155 ctlin 22;
#X connect 3 0 2 0;
#X connect 4 0 1 0;
#X connect 5 0 3 0;
#X connect 6 0 4 0;
#X coords 0 -1 1 1 139 99 2 100 100;
#X restore 23 322 pd lfo;
#X obj 354 111 hsl 104 13 0 1 0 0 vol vol_init vol 5 8 0 10 -262144
-258049 -1 10300 1;
#X text 23 139 ////;
#X text 321 109 ////;
#X text 24 142 ////;
#X text 322 112 ////;
#X text 22 119 www.behance.net/aodnamr;
#X text 22 109 Subtractive Synthesizer/Four Voices;
#N canvas 413 313 374 296 delay 0;
#X obj 101 101 cnv 15 137 97 empty empty DELAY 3 11 0 13 -258049 -262144
0;
#X obj 112 143 hsl 104 13 0 1 0 0 del_feedback del_feedback_init feedback
-2 -8 0 10 -262144 -1 -262144 0 1;
#X obj 112 175 hsl 104 13 0 1 0 0 del_time del_time_init time -2 -8
0 10 -262144 -1 -262144 0 1;
#X obj 218 110 tgl 13 0 del_on-off del_on-off_init on -17 8 0 10 -262144
-1 -262144 1 1;
#X obj 20 117 / 127;
#X obj 22 181 / 127;
#X obj 12 91 ctlin 24;
#X obj 14 156 ctlin 23;
#X connect 4 0 1 0;
#X connect 5 0 2 0;
#X connect 6 0 4 0;
#X connect 7 0 5 0;
#X coords 0 -1 1 1 139 99 1 100 100;
#X restore 321 431 pd delay;
#N canvas 414 314 372 294 dist 0;
#X obj 101 101 cnv 15 137 97 empty empty DIST 3 11 0 13 -258049 -262144
0;
#X obj 112 143 hsl 104 13 0 1 0 0 dist_rate dist_rate_init rate -2
-8 0 10 -262144 -1 -262144 10300 1;
#X obj 218 110 tgl 13 0 dist_on-off dist_on-off_init on -17 8 0 10
-262144 -1 -262144 1 1;
#X obj 35 86 / 32;
#X obj 20 49 ctlin 80;
#X connect 3 0 1 0;
#X connect 4 0 3 0;
#X coords 0 -1 1 1 139 99 1 100 100;
#X restore 172 431 pd dist;
#N canvas 413 314 373 294 autopan 0;
#X obj 101 101 cnv 15 137 97 empty empty AUTOPAN 3 11 0 13 -258049
-262144 0;
#X obj 112 143 hsl 104 13 0 1 0 0 apan_rate apan_rate_init rate -2
-8 0 10 -262144 -1 -262144 5150 1;
#X obj 112 175 hsl 104 13 0 1 0 0 apan_depth apan_depth_init depth
-2 -8 0 10 -262144 -1 -262144 0 1;
#X obj 218 110 tgl 13 0 apan_on-off apan_on-off_init on -17 8 0 10
-262144 -1 -262144 1 1;
#X coords 0 -1 1 1 139 99 1 100 100;
#X restore 23 431 pd autopan;
#N canvas 413 315 372 293 filter 0;
#X obj 101 101 cnv 15 137 97 empty empty FILTER 3 11 0 13 -258049 -262144
0;
#X obj 112 143 hsl 104 13 0 1 0 0 freq_filt freq_filt_init frequency
-2 -8 0 10 -262144 -1 -262144 6180 1;
#X obj 112 175 hsl 104 13 0 1 0 0 q_filt q_filt_init q -2 -8 0 10 -262144
-1 -262144 2060 1;
#X obj 41 102 / 127;
#X obj 43 165 / 127;
#X obj 33 76 ctlin 70;
#X obj 35 139 ctlin 71;
#X connect 3 0 1 0;
#X connect 4 0 2 0;
#X connect 5 0 3 0;
#X connect 6 0 4 0;
#X coords 0 -1 1 1 139 99 1 100 100;
#X restore 172 134 pd filter;
#N canvas 545 219 484 321 osc1 0;
#X obj 101 101 cnv 15 137 67 empty empty OSC1 3 11 0 13 -258049 -262144
0;
#X obj 141 145 tgl 13 0 empty empty saw 0 -9 0 10 -262144 -1 -262144
1 1;
#X obj 173 145 tgl 13 0 empty empty sqr 0 -9 0 10 -262144 -1 -262144
0 1;
#X obj 205 145 tgl 13 0 empty empty noi 0 -9 0 10 -262144 -1 -262144
0 1;
#X obj 203 113 hsl 26 13 0 2 0 0 fine1 fine1_init fine 2 8 0 10 -262144
-1 -1 0 1;
#X obj 109 145 tgl 13 0 empty empty sin 0 -9 0 10 -262144 -1 -262144
0 1;
#X msg 122 60 set \$1;
#X msg 176 60 set \$1;
#X msg 241 60 set \$1;
#X msg 305 60 set \$1;
#X msg 94 190 \; sin1 1 \; phasor1 0 \; square1 0 \; noise1 0;
#X msg 173 190 \; sin1 0 \; phasor1 1 \; square1 0 \; noise1 0;
#X msg 255 190 \; sin1 0 \; phasor1 0 \; square1 1 \; noise1 0;
#X msg 338 190 \; sin1 0 \; phasor1 0 \; square1 0 \; noise1 1;
#X obj 176 36 r phasor1;
#X obj 241 36 r square1;
#X obj 305 36 r noise1;
#X obj 122 36 r sin1;
#X obj 367 36 r oscilador_init;
#X obj 367 60 sel 0 1 2 3;
#X obj 20 49 ctlin 73;
#X obj 35 86 / 32;
#X connect 1 0 11 0;
#X connect 2 0 12 0;
#X connect 3 0 13 0;
#X connect 5 0 10 0;
#X connect 6 0 5 0;
#X connect 7 0 1 0;
#X connect 8 0 2 0;
#X connect 9 0 3 0;
#X connect 14 0 7 0;
#X connect 15 0 8 0;
#X connect 16 0 9 0;
#X connect 17 0 6 0;
#X connect 18 0 19 0;
#X connect 19 0 5 0;
#X connect 19 1 1 0;
#X connect 19 2 2 0;
#X connect 19 3 3 0;
#X connect 20 0 21 0;
#X connect 21 0 4 0;
#X coords 0 -1 1 1 139 69 2 100 100;
#X restore 23 164 pd osc1;
#N canvas 545 218 484 322 osc2 0;
#X obj 101 101 cnv 15 137 67 empty empty OSC2 3 11 0 13 -258049 -262144
0;
#X obj 141 145 tgl 13 0 empty empty saw 0 -9 0 10 -262144 -1 -262144
1 1;
#X obj 173 145 tgl 13 0 empty empty sqr 0 -9 0 10 -262144 -1 -262144
0 1;
#X obj 205 145 tgl 13 0 empty empty noi 0 -9 0 10 -262144 -1 -262144
0 1;
#X obj 203 113 hsl 26 13 0 2 0 0 fine2 fine2_init fine 2 8 0 10 -262144
-1 -1 0 1;
#X obj 109 145 tgl 13 0 empty empty sin 0 -9 0 10 -262144 -1 -262144
0 1;
#X msg 122 60 set \$1;
#X msg 176 60 set \$1;
#X msg 241 60 set \$1;
#X msg 305 60 set \$1;
#X msg 94 190 \; sin2 1 \; phasor2 0 \; square2 0 \; noise2 0;
#X msg 173 190 \; sin2 0 \; phasor2 1 \; square2 0 \; noise2 0;
#X msg 255 190 \; sin2 0 \; phasor2 0 \; square2 1 \; noise2 0;
#X msg 338 190 \; sin2 0 \; phasor2 0 \; square2 0 \; noise2 1;
#X obj 176 37 r phasor2;
#X obj 241 37 r square2;
#X obj 305 37 r noise2;
#X obj 122 37 r sin2;
#X obj 367 37 r oscilador_init;
#X obj 367 61 sel 0 1 2 3;
#X obj 35 86 / 32;
#X obj 20 49 ctlin 3;
#X connect 1 0 11 0;
#X connect 2 0 12 0;
#X connect 3 0 13 0;
#X connect 5 0 10 0;
#X connect 6 0 5 0;
#X connect 7 0 1 0;
#X connect 8 0 2 0;
#X connect 9 0 3 0;
#X connect 14 0 7 0;
#X connect 15 0 8 0;
#X connect 16 0 9 0;
#X connect 17 0 6 0;
#X connect 18 0 19 0;
#X connect 19 0 5 0;
#X connect 19 1 1 0;
#X connect 19 2 2 0;
#X connect 19 3 3 0;
#X connect 20 0 4 0;
#X connect 21 0 20 0;
#X coords 0 -1 1 1 139 69 2 100 100;
#X restore 23 243 pd osc2;
#N canvas 921 161 384 473 presets 1;
#X obj 101 101 cnv 15 137 97 empty empty PRESETS 3 11 0 13 -258049
-262144 0;
#X obj 139 77 table presets 24;
#X obj 127 309 f;
#X obj 218 110 tgl 13 0 empty empty save -27 8 0 10 -262144 -1 -262144
0 1;
#X obj 173 372 spigot 1;
#X obj 285 326 spigot;
#X obj 218 345 ==;
#N canvas 545 221 483 413 save 0;
#X obj 76 309 pack 0 0 0 0 0 0 0 0 0 0 0 0 0 0 0 0 0 0 0 0 0 0 0 0
0;
#X obj 18 357 s presets;
#X obj 76 284 bng 15 250 50 0 empty empty empty 17 7 0 10 -262144 -1
-1;
#X obj 89 18 r vol;
#X obj 102 42 r osc_mix;
#X obj 116 66 r osc1;
#X obj 129 90 r osc2;
#X obj 142 114 r fine1;
#X obj 156 138 r fine2;
#X obj 169 162 r amp_a;
#X obj 183 186 r amp_d;
#X obj 196 210 r amp_s;
#X obj 209 234 r amp_r;
#X obj 223 258 r fq_a;
#X obj 236 282 r fq_d;
#X obj 249 18 r fq_s;
#X obj 263 42 r fq_r;
#X obj 276 66 r freq_filt;
#X obj 290 90 r q_filt;
#X obj 303 114 r apan_on-off;
#X obj 316 138 r apan_rate;
#X obj 330 162 r apan_depth;
#X obj 343 186 r dist_on-off;
#X obj 356 210 r dist_rate;
#X obj 370 234 r del_on-off;
#X obj 383 258 r del_feedback;
#X obj 397 282 r del_time;
#X msg 18 333 write presets-\$1.txt;
#X obj 18 267 t f b;
#X obj 18 243 inlet;
#X connect 0 0 1 0;
#X connect 2 0 0 0;
#X connect 3 0 0 1;
#X connect 4 0 0 2;
#X connect 5 0 0 3;
#X connect 6 0 0 4;
#X connect 7 0 0 5;
#X connect 8 0 0 6;
#X connect 9 0 0 7;
#X connect 10 0 0 8;
#X connect 11 0 0 9;
#X connect 12 0 0 10;
#X connect 13 0 0 11;
#X connect 14 0 0 12;
#X connect 15 0 0 13;
#X connect 16 0 0 14;
#X connect 17 0 0 15;
#X connect 18 0 0 16;
#X connect 19 0 0 17;
#X connect 20 0 0 18;
#X connect 21 0 0 19;
#X connect 22 0 0 20;
#X connect 23 0 0 21;
#X connect 24 0 0 22;
#X connect 25 0 0 23;
#X connect 26 0 0 24;
#X connect 27 0 1 0;
#X connect 28 0 27 0;
#X connect 28 1 2 0;
#X connect 29 0 28 0;
#X restore 285 350 pd save;
#N canvas 561 291 368 377 read 0;
#X obj 113 77 inlet;
#X obj 103 217 tabread presets;
#N canvas 560 292 368 375 cuenta 0;
#X obj 141 235 + 1;
#X msg 141 95 bang;
#X obj 141 208 f -1;
#X obj 141 122 t b b;
#X obj 141 176 until;
#X msg 141 149 24;
#X floatatom 141 262 5 0 0 0 - - -;
#X obj 141 68 inlet;
#X obj 141 288 outlet;
#X msg 214 139 -1;
#X connect 0 0 2 1;
#X connect 0 0 6 0;
#X connect 1 0 3 0;
#X connect 2 0 0 0;
#X connect 3 0 5 0;
#X connect 3 1 9 0;
#X connect 4 0 2 0;
#X connect 5 0 4 0;
#X connect 6 0 8 0;
#X connect 7 0 1 0;
#X connect 9 0 2 1;
#X restore 113 166 pd cuenta de 0 a 23;
#X obj 109 244 pack;
#X obj 103 193 t f f;
#N canvas 545 220 483 414 parametros 0;
#X obj 29 32 inlet;
#X obj 29 96 s vol_init;
#X obj 43 120 s osc_mix_init;
#X obj 57 144 s osc1_init;
#X obj 72 168 s osc2_init;
#X obj 86 192 s fine1_init;
#X obj 100 216 s fine2_init;
#X obj 115 240 s amp_a_init;
#X obj 129 264 s amp_d_init;
#X obj 144 288 s amp_s_init;
#X obj 158 312 s amp_r_init;
#X obj 172 336 s fq_a_init;
#X obj 187 360 s fq_d_init;
#X obj 201 96 s fq_s_init;
#X obj 215 120 s fq_r_init;
#X obj 230 144 s freq_filt_init;
#X obj 244 168 s q_filt_init;
#X obj 258 192 s apan_on-off_init;
#X obj 273 216 s apan_rate_init;
#X obj 287 240 s apan_depth_init;
#X obj 302 264 s dist_on-off_init;
#X obj 316 288 s dist_rate_init;
#X obj 330 312 s del_on-off_init;
#X obj 345 336 s del_feedback_init;
#X obj 359 360 s del_time_init;
#X obj 29 56 route 0 1 2 3 4 5 6 7 8 9 10 11 12 13 14 15 16 17 18 19
20 21 22 23;
#X connect 0 0 25 0;
#X connect 25 0 1 0;
#X connect 25 1 2 0;
#X connect 25 2 3 0;
#X connect 25 3 4 0;
#X connect 25 4 5 0;
#X connect 25 5 6 0;
#X connect 25 6 7 0;
#X connect 25 7 8 0;
#X connect 25 8 9 0;
#X connect 25 9 10 0;
#X connect 25 10 11 0;
#X connect 25 11 12 0;
#X connect 25 12 13 0;
#X connect 25 13 14 0;
#X connect 25 14 15 0;
#X connect 25 15 16 0;
#X connect 25 16 17 0;
#X connect 25 17 18 0;
#X connect 25 18 19 0;
#X connect 25 19 20 0;
#X connect 25 20 21 0;
#X connect 25 21 22 0;
#X connect 25 22 23 0;
#X connect 25 23 24 0;
#X restore 103 295 pd parametros;
#X obj 173 142 s presets;
#X msg 173 118 read presets-\$1.txt;
#X obj 113 101 t b f;
#X msg 103 271 \$2 \$1;
#X connect 0 0 8 0;
#X connect 1 0 3 0;
#X connect 2 0 4 0;
#X connect 3 0 9 0;
#X connect 4 0 1 0;
#X connect 4 1 3 1;
#X connect 7 0 6 0;
#X connect 8 0 2 0;
#X connect 8 1 7 0;
#X connect 9 0 5 0;
#X restore 173 396 pd read;
#X obj 109 143 bng 13 250 50 0 empty empty 0 0 -9 0 10 -262144 -1 -262144
;
#X obj 141 143 bng 13 250 50 0 empty empty 1 0 -9 0 10 -262144 -1 -262144
;
#X obj 173 143 bng 13 250 50 0 empty empty 2 0 -9 0 10 -262144 -1 -262144
;
#X obj 205 143 bng 13 250 50 0 empty empty 3 0 -9 0 10 -262144 -1 -262144
;
#X obj 109 175 bng 13 250 50 0 empty empty 4 0 -9 0 10 -262144 -1 -262144
;
#X obj 141 175 bng 13 250 50 0 empty empty 5 0 -9 0 10 -262144 -1 -262144
;
#X obj 173 175 bng 13 250 50 0 empty empty 6 0 -9 0 10 -262144 -1 -262144
;
#X obj 205 175 bng 13 250 50 0 empty empty 7 0 -9 0 10 -262144 -1 -262144
;
#X msg 44 209 0;
#X msg 44 232 4;
#X msg 76 209 1;
#X msg 76 232 5;
#X msg 108 209 2;
#X msg 108 232 6;
#X msg 140 209 3;
#X msg 140 232 7;
#X obj 22 36 ctlin 114;
#X obj 21 69 / 15.5;
#X obj 28 149 i;
#X obj 296 120 i;
#X obj 285 55 / 127;
#X obj 266 11 ctlin 99;
#X connect 2 0 4 0;
#X connect 2 0 5 0;
#X connect 3 0 6 0;
#X connect 3 0 5 1;
#X connect 4 0 8 0;
#X connect 5 0 7 0;
#X connect 6 0 4 1;
#X connect 9 0 17 0;
#X connect 10 0 19 0;
#X connect 11 0 21 0;
#X connect 12 0 23 0;
#X connect 13 0 18 0;
#X connect 14 0 20 0;
#X connect 15 0 22 0;
#X connect 16 0 24 0;
#X connect 17 0 2 0;
#X connect 18 0 2 0;
#X connect 19 0 2 0;
#X connect 20 0 2 0;
#X connect 21 0 2 0;
#X connect 22 0 2 0;
#X connect 23 0 2 0;
#X connect 24 0 2 0;
#X connect 25 0 26 0;
#X connect 26 0 27 0;
#X connect 27 0 2 0;
#X connect 28 0 3 0;
#X connect 29 0 28 0;
#X connect 30 0 29 0;
#X coords 0 -1 1 1 139 99 1 100 100;
#X restore 321 134 pd presets;
#N canvas 312 56 482 479 SYNTH-0 1;
#X obj 68 47 notein;
#X obj 68 81 poly 4;
#X obj 68 110 pack 0 0 0;
#X obj 68 134 route 1 2 3 4;
#X obj 69 229 +~;
#X obj 69 388 dac~;
#X obj 69 365 *~;
#X obj 127 370 *~;
#X floatatom 142 325 5 0 0 0 - - -;
#X obj 142 301 r vol;
#N canvas 460 287 483 321 lfo 0;
#X obj 122 86 snapshot~;
#X msg 103 50 bang;
#X floatatom 141 122 5 0 0 0 - - -;
#X obj 124 157 vsl 13 128 -5000 5000 0 0 empty empty empty 0 -9 0 10
-262144 -1 -1 0 1;
#X obj 141 50 metro 20;
#X obj 141 30 tgl 15 0 empty empty empty 17 7 0 10 -262144 -1 -1 0
1;
#X obj 260 120 osc~ 0.5;
#X floatatom 260 90 5 0 0 0 - - -;
#X obj 259 206 *~;
#X floatatom 349 145 5 0 0 0 - - -;
#X obj 349 190 sig~ 1;
#X obj 260 68 * 20;
#X obj 349 169 * 5000;
#X obj 260 271 s~ lfo_filt;
#X obj 349 121 r lfo_depth;
#X obj 260 44 r lfo_rate;
#X connect 0 0 2 0;
#X connect 1 0 0 0;
#X connect 2 0 3 0;
#X connect 4 0 0 0;
#X connect 5 0 4 0;
#X connect 6 0 8 0;
#X connect 7 0 6 0;
#X connect 8 0 13 0;
#X connect 8 0 0 0;
#X connect 9 0 12 0;
#X connect 10 0 8 1;
#X connect 11 0 7 0;
#X connect 12 0 10 0;
#X connect 14 0 9 0;
#X connect 15 0 11 0;
#X restore 110 206 pd lfo;
#N canvas 460 288 482 319 delay 0;
#X obj 188 128 *~;
#X obj 342 156 pack 0 30;
#X obj 342 179 line~;
#X obj 343 208 vd~ delay 1000;
#X obj 76 62 delwrite~ delay 2000;
#X obj 51 26 inlet~;
#X obj 50 265 outlet~;
#X obj 227 84 r del_feedback;
#X obj 227 111 * 0.9;
#X obj 342 90 r del_time;
#X obj 342 117 * 1800;
#X floatatom 227 134 5 0 0 0 - - -;
#X floatatom 406 134 5 0 0 0 - - -;
#X obj 187 247 *~;
#X floatatom 202 202 5 0 0 0 - - -;
#X obj 202 179 r del_on-off;
#N canvas 870 108 265 224 fade 0;
#X obj 101 65 inlet;
#X obj 101 92 pack 0 30;
#X obj 101 115 line~;
#X obj 101 142 outlet~;
#X connect 0 0 1 0;
#X connect 1 0 2 0;
#X connect 2 0 3 0;
#X restore 202 225 pd fade;
#X connect 0 0 4 0;
#X connect 0 0 6 0;
#X connect 0 0 13 0;
#X connect 1 0 2 0;
#X connect 2 0 3 0;
#X connect 3 0 0 0;
#X connect 5 0 4 0;
#X connect 5 0 6 0;
#X connect 7 0 8 0;
#X connect 8 0 0 1;
#X connect 8 0 11 0;
#X connect 9 0 10 0;
#X connect 10 0 12 0;
#X connect 10 0 1 0;
#X connect 13 0 6 0;
#X connect 14 0 16 0;
#X connect 15 0 14 0;
#X connect 16 0 13 1;
#X restore 69 253 pd delay;
#N canvas 460 288 482 319 distortion 0;
#X obj 144 106 inlet~;
#X obj 143 280 outlet~;
#X obj 234 17 r dist_rate;
#X obj 234 65 pack 0 30;
#X obj 234 89 line~;
#X floatatom 304 58 5 0 0 0 - - -;
#X obj 234 41 * 50;
#X obj 220 124 *~;
#X obj 221 172 /~ 10;
#X obj 221 263 *~;
#X floatatom 236 219 5 0 0 0 - - -;
#X obj 236 196 r dist_on-off;
#X obj 220 148 tanh~;
#N canvas 870 108 265 224 fade 0;
#X obj 101 65 inlet;
#X obj 101 92 pack 0 30;
#X obj 101 115 line~;
#X obj 101 142 outlet~;
#X connect 0 0 1 0;
#X connect 1 0 2 0;
#X connect 2 0 3 0;
#X restore 236 242 pd fade;
#X connect 0 0 1 0;
#X connect 0 0 7 0;
#X connect 2 0 6 0;
#X connect 3 0 4 0;
#X connect 4 0 7 1;
#X connect 6 0 5 0;
#X connect 6 0 3 0;
#X connect 7 0 12 0;
#X connect 8 0 9 0;
#X connect 9 0 1 0;
#X connect 10 0 13 0;
#X connect 11 0 10 0;
#X connect 12 0 8 0;
#X connect 13 0 9 1;
#X restore 69 277 pd distortion;
#N canvas 74 100 368 508 autopan 0;
#X obj 136 95 phasor~ 0.8;
#X obj 137 118 -~ 0.5;
#X obj 137 141 abs~;
#X obj 137 164 -~ 0.25;
#X obj 138 187 *~ 2;
#X floatatom 227 91 5 0 1 0 - - -;
#X obj 143 250 +~ 0.5;
#X obj 66 356 cos~;
#X obj 183 356 cos~;
#X obj 183 333 -~ 0.25;
#X obj 51 406 *~;
#X obj 167 406 *~;
#X obj 65 315 *~ 0.25;
#X floatatom 136 69 5 0 0 0 - - -;
#X obj 52 221 inlet~;
#X obj 50 433 outlet~;
#X obj 166 433 outlet~;
#X obj 136 42 r apan_rate;
#X obj 227 68 r apan_depth;
#X obj 155 221 *~;
#X obj 227 205 *~;
#X floatatom 241 156 5 0 0 0 - - -;
#N canvas 870 108 265 205 fade 0;
#X obj 101 65 inlet;
#X obj 101 92 pack 0 30;
#X obj 101 115 line~;
#X obj 101 142 outlet~;
#X connect 0 0 1 0;
#X connect 1 0 2 0;
#X connect 2 0 3 0;
#X restore 241 178 pd fade;
#X obj 241 133 r apan_on-off;
#X text 148 351 seno;
#X connect 0 0 1 0;
#X connect 1 0 2 0;
#X connect 2 0 3 0;
#X connect 3 0 4 0;
#X connect 4 0 19 0;
#X connect 5 0 20 0;
#X connect 6 0 12 0;
#X connect 7 0 10 1;
#X connect 8 0 11 1;
#X connect 9 0 8 0;
#X connect 10 0 15 0;
#X connect 11 0 16 0;
#X connect 12 0 7 0;
#X connect 12 0 9 0;
#X connect 13 0 0 0;
#X connect 14 0 10 0;
#X connect 14 0 11 0;
#X connect 17 0 13 0;
#X connect 18 0 5 0;
#X connect 19 0 6 0;
#X connect 20 0 19 1;
#X connect 21 0 22 0;
#X connect 22 0 20 1;
#X connect 23 0 21 0;
#X restore 69 301 pd autopan;
#N canvas 870 108 265 205 fade 0;
#X obj 101 65 inlet;
#X obj 101 92 pack 0 30;
#X obj 101 115 line~;
#X obj 101 142 outlet~;
#X connect 0 0 1 0;
#X connect 1 0 2 0;
#X connect 2 0 3 0;
#X restore 142 348 pd fade;
#X obj 276 46 loadbang;
#X text 272 24 default:;
#X obj 105 158 voice;
#X obj 124 182 voice;
#X obj 68 158 voice;
#X obj 86 182 voice;
#X msg 262 89 \; pd dsp 1 \; vol_init 1 \; osc_mix_init 0 \; oscilador_init
1 \; fine1_init 0 \; fine2_init 0 \; freq_filt_init 0.6 \; q_filt_init
0.2 \; lfo_rate_init 0 \; lfo_depth_init 0 \; fq_a_init 0.2 \; fq_d_init
0.2 \; fq_s_init 0.1 \; fq_r_init 0.4 \; amp_a_init 0.2 \; amp_d_init
0.2 \; amp_s_init 0.4 \; amp_r_init 0.4 \; apan_on-off_init 1 \; apan_rate_init
0.5 \; apan_depth_init 0 \; dist_on-off_init 1 \; dist_rate_init 1
\; del_on-off_init 1 \; del_feedback_init 0 \; del_time_init 0;
#X obj 36 15 midiin;
#X obj 196 62 delay 30;
#X connect 0 0 1 0;
#X connect 0 1 1 1;
#X connect 1 0 2 0;
#X connect 1 1 2 1;
#X connect 1 2 2 2;
#X connect 2 0 3 0;
#X connect 3 0 19 0;
#X connect 3 1 20 0;
#X connect 3 2 17 0;
#X connect 3 3 18 0;
#X connect 4 0 11 0;
#X connect 6 0 5 0;
#X connect 7 0 5 1;
#X connect 8 0 14 0;
#X connect 9 0 8 0;
#X connect 11 0 12 0;
#X connect 12 0 13 0;
#X connect 13 0 6 0;
#X connect 13 1 7 0;
#X connect 14 0 7 1;
#X connect 14 0 6 1;
#X connect 15 0 23 0;
#X connect 17 0 4 0;
#X connect 18 0 4 0;
#X connect 19 0 4 0;
#X connect 20 0 4 0;
#X connect 23 0 21 0;
#X restore 23 90 pd SYNTH-0;
#X obj 355 61 ctlin 7;
#X obj 48 64 / 127;
#X obj 40 38 ctlin 72;
#X obj 363 87 / 18;
#X connect 19 0 22 0;
#X connect 20 0 2 0;
#X connect 21 0 20 0;
#X connect 22 0 4 0;
#X coords 0 555 1 554 0 0 0;
