#N canvas 572 76 383 529 10;
#X obj 65 96 mtof;
#X floatatom 65 70 5 0 0 0 - - -;
#X floatatom 65 123 5 0 0 0 - - -;
#X obj 247 449 *~;
#N canvas 560 290 371 380 osciladores 0;
#X obj 64 36 inlet;
#X obj 65 318 outlet~;
#X obj 64 193 *~;
#X obj 172 194 *~;
#X obj 269 133 r osc_mix;
#X floatatom 187 232 5 0 0 0 - - -;
#X obj 269 194 - 1;
#X obj 269 215 abs;
#X floatatom 79 232 5 0 0 0 - - -;
#N canvas 74 100 368 507 osc1 0;
#X obj 50 57 inlet;
#X obj 119 449 outlet~;
#X obj 50 294 *~ 0.1;
#X obj 51 364 *~;
#X obj 188 294 *~ 0.1;
#X obj 187 364 *~;
#X obj 118 294 *~ 0.1;
#X obj 119 364 *~;
#X obj 66 342 tgl 15 0 empty empty empty 17 7 0 10 -262144 -1 -1 0
1;
#X obj 134 342 tgl 15 0 empty empty empty 17 7 0 10 -262144 -1 -1 1
1;
#X obj 202 342 tgl 15 0 empty empty empty 17 7 0 10 -262144 -1 -1 0
1;
#X obj 134 318 r phasor1;
#X obj 50 270 osc~;
#X obj 265 362 *~ 0.1;
#X obj 264 432 *~;
#X obj 279 410 tgl 15 0 empty empty empty 17 7 0 10 -262144 -1 -1 0
1;
#X obj 279 386 r noise1;
#X obj 265 338 noise~;
#X obj 202 318 r square1;
#X floatatom 183 64 5 0 0 0 - - -;
#X obj 142 145 pow 1;
#X obj 142 64 t b f;
#X obj 142 27 r fine1;
#X obj 50 104 t f b;
#X obj 50 162 *;
#X msg 142 121 2;
#X obj 169 87 / 12;
#X obj 66 318 r sin1;
#N canvas 846 278 226 133 saw 0;
#X obj 89 72 -~ 0.5;
#X obj 89 96 *~ 2;
#X obj 89 48 phasor~;
#X obj 89 24 inlet;
#X obj 89 120 outlet~;
#X connect 0 0 1 0;
#X connect 1 0 4 0;
#X connect 2 0 0 0;
#X connect 3 0 2 0;
#X restore 118 270 pd saw;
#N canvas 1088 278 225 133 square 0;
#X obj 69 19 inlet;
#X obj 69 139 outlet~;
#X obj 69 115 blosc~ comparator;
#X obj 69 43 phasor~ 0.5;
#X obj 69 67 expr~ $v1 > 0.5;
#X obj 69 91 -~ 0.5;
#X connect 0 0 3 0;
#X connect 2 0 1 0;
#X connect 3 0 4 0;
#X connect 4 0 5 0;
#X connect 5 0 2 0;
#X restore 188 270 pd square;
#X floatatom 50 81 5 0 0 0 - - -;
#X floatatom 50 186 5 0 0 0 - - -;
#X connect 0 0 30 0;
#X connect 2 0 3 0;
#X connect 3 0 1 0;
#X connect 4 0 5 0;
#X connect 5 0 1 0;
#X connect 6 0 7 0;
#X connect 7 0 1 0;
#X connect 8 0 3 1;
#X connect 9 0 7 1;
#X connect 10 0 5 1;
#X connect 11 0 9 0;
#X connect 12 0 2 0;
#X connect 13 0 14 0;
#X connect 14 0 1 0;
#X connect 15 0 14 1;
#X connect 16 0 15 0;
#X connect 17 0 13 0;
#X connect 18 0 10 0;
#X connect 20 0 24 1;
#X connect 21 0 30 0;
#X connect 21 1 26 0;
#X connect 22 0 21 0;
#X connect 22 0 19 0;
#X connect 23 0 24 0;
#X connect 23 1 25 0;
#X connect 24 0 31 0;
#X connect 25 0 20 0;
#X connect 26 0 20 1;
#X connect 27 0 8 0;
#X connect 28 0 6 0;
#X connect 29 0 4 0;
#X connect 30 0 23 0;
#X connect 31 0 12 0;
#X connect 31 0 28 0;
#X connect 31 0 29 0;
#X restore 64 107 pd osc1;
#N canvas 460 101 368 507 osc2 0;
#X obj 50 57 inlet;
#X obj 119 449 outlet~;
#X obj 50 294 *~ 0.1;
#X obj 51 364 *~;
#X obj 188 294 *~ 0.1;
#X obj 187 364 *~;
#X obj 118 294 *~ 0.1;
#X obj 119 364 *~;
#X obj 66 342 tgl 15 0 empty empty empty 17 7 0 10 -262144 -1 -1 0
1;
#X obj 134 342 tgl 15 0 empty empty empty 17 7 0 10 -262144 -1 -1 1
1;
#X obj 202 342 tgl 15 0 empty empty empty 17 7 0 10 -262144 -1 -1 0
1;
#X obj 50 270 osc~;
#X obj 265 362 *~ 0.1;
#X obj 264 432 *~;
#X obj 279 410 tgl 15 0 empty empty empty 17 7 0 10 -262144 -1 -1 0
1;
#X obj 265 338 noise~;
#X floatatom 183 64 5 0 0 0 - - -;
#X obj 142 145 pow 1;
#X obj 142 64 t b f;
#X obj 50 104 t f b;
#X obj 50 162 *;
#X msg 142 121 2;
#X obj 169 87 / 12;
#X obj 66 318 r sin2;
#X obj 134 318 r phasor2;
#X obj 202 318 r square2;
#X obj 279 386 r noise2;
#X floatatom 50 81 5 0 0 0 - - -;
#X floatatom 50 186 5 0 0 0 - - -;
#X obj 142 27 r fine2;
#N canvas 846 278 226 133 saw 0;
#X obj 89 72 -~ 0.5;
#X obj 89 96 *~ 2;
#X obj 89 48 phasor~;
#X obj 89 24 inlet;
#X obj 89 120 outlet~;
#X connect 0 0 1 0;
#X connect 1 0 4 0;
#X connect 2 0 0 0;
#X connect 3 0 2 0;
#X restore 118 270 pd saw;
#N canvas 1088 278 225 131 square 0;
#X obj 69 19 inlet;
#X obj 69 139 outlet~;
#X obj 69 115 blosc~ comparator;
#X obj 69 43 phasor~ 0.5;
#X obj 69 67 expr~ $v1 > 0.5;
#X obj 69 91 -~ 0.5;
#X connect 0 0 3 0;
#X connect 2 0 1 0;
#X connect 3 0 4 0;
#X connect 4 0 5 0;
#X connect 5 0 2 0;
#X restore 188 270 pd square;
#X connect 0 0 27 0;
#X connect 2 0 3 0;
#X connect 3 0 1 0;
#X connect 4 0 5 0;
#X connect 5 0 1 0;
#X connect 6 0 7 0;
#X connect 7 0 1 0;
#X connect 8 0 3 1;
#X connect 9 0 7 1;
#X connect 10 0 5 1;
#X connect 11 0 2 0;
#X connect 12 0 13 0;
#X connect 13 0 1 0;
#X connect 14 0 13 1;
#X connect 15 0 12 0;
#X connect 17 0 20 1;
#X connect 18 0 27 0;
#X connect 18 1 22 0;
#X connect 19 0 20 0;
#X connect 19 1 21 0;
#X connect 20 0 28 0;
#X connect 21 0 17 0;
#X connect 22 0 17 1;
#X connect 23 0 8 0;
#X connect 24 0 9 0;
#X connect 25 0 10 0;
#X connect 26 0 14 0;
#X connect 27 0 19 0;
#X connect 28 0 11 0;
#X connect 28 0 31 0;
#X connect 28 0 30 0;
#X connect 29 0 18 0;
#X connect 29 0 16 0;
#X connect 30 0 6 0;
#X connect 31 0 4 0;
#X restore 172 107 pd osc2;
#X connect 0 0 9 0;
#X connect 0 0 10 0;
#X connect 2 0 1 0;
#X connect 3 0 1 0;
#X connect 4 0 5 0;
#X connect 4 0 6 0;
#X connect 5 0 3 1;
#X connect 6 0 7 0;
#X connect 7 0 8 0;
#X connect 8 0 2 1;
#X connect 9 0 2 0;
#X connect 10 0 3 0;
#X restore 187 215 pd osciladores;
#X obj 65 17 inlet;
#X obj 65 43 unpack;
#X obj 205 351 > 0;
#N canvas 733 143 482 320 amp_env 0;
#X obj 58 38 inlet;
#X obj 58 254 vline~;
#X obj 58 62 sel 1 0;
#X obj 58 278 outlet~;
#X floatatom 78 110 5 0 0 1 attack - -;
#X floatatom 98 129 5 0 1 1 sustain_level - -;
#X floatatom 118 148 5 0 0 1 decay - -;
#X msg 58 210 0 \, 1 \$2 \, \$3 \$4 \$2;
#X msg 58 90 bang;
#X floatatom 139 166 5 0 0 1 release - -;
#X obj 58 188 pack 0 0 0 0 0;
#X msg 191 205 \$5;
#X obj 146 237 pack 0 0;
#X msg 146 79 bang;
#X obj 256 77 vsl 13 128 0 1 0 0 empty empty a 0 -9 0 10 -262144 -1
-1 2540 1;
#X obj 300 77 vsl 13 128 0 1 0 0 empty empty d 0 -9 0 10 -262144 -1
-1 2540 1;
#X obj 344 77 vsl 13 128 0 1 0 0 empty empty s 0 -9 0 10 -262144 -1
-1 5080 1;
#X obj 388 77 vsl 13 128 0 1 0 0 empty empty r 0 -9 0 10 -262144 -1
-1 5080 1;
#X obj 256 222 * 4995;
#X obj 256 244 + 5;
#X floatatom 256 272 5 0 0 0 - - -;
#X obj 300 222 * 4995;
#X obj 300 244 + 5;
#X floatatom 300 272 5 0 0 0 - - -;
#X obj 388 222 * 4995;
#X obj 388 244 + 5;
#X floatatom 388 272 5 0 0 0 - - -;
#X obj 256 27 r amp_a;
#X obj 300 49 r amp_d;
#X obj 344 27 r amp_s;
#X obj 388 49 r amp_r;
#X connect 0 0 2 0;
#X connect 1 0 3 0;
#X connect 2 0 8 0;
#X connect 2 1 13 0;
#X connect 4 0 10 1;
#X connect 5 0 10 2;
#X connect 6 0 10 3;
#X connect 7 0 1 0;
#X connect 8 0 10 0;
#X connect 9 0 10 4;
#X connect 10 0 7 0;
#X connect 10 0 11 0;
#X connect 11 0 12 1;
#X connect 12 0 1 0;
#X connect 13 0 12 0;
#X connect 14 0 18 0;
#X connect 15 0 21 0;
#X connect 16 0 5 0;
#X connect 17 0 24 0;
#X connect 18 0 19 0;
#X connect 19 0 20 0;
#X connect 20 0 4 0;
#X connect 21 0 22 0;
#X connect 22 0 23 0;
#X connect 23 0 6 0;
#X connect 24 0 25 0;
#X connect 25 0 26 0;
#X connect 26 0 9 0;
#X connect 27 0 14 0;
#X connect 28 0 15 0;
#X connect 29 0 16 0;
#X connect 30 0 17 0;
#X restore 205 375 pd amp_env;
#X obj 247 473 outlet~;
#N canvas 561 291 369 378 filter 1;
#X obj 109 29 inlet~;
#X obj 109 330 outlet~;
#X obj 109 306 vcf~;
#X floatatom 119 118 5 0 0 0 - - -;
#X floatatom 234 290 5 0 0 0 - - -;
#X obj 119 141 sig~;
#X obj 188 53 r freq_filt;
#X obj 188 77 * 11950;
#X obj 188 101 + 50;
#X obj 234 209 r q_filt;
#X obj 234 233 * 9;
#X obj 234 257 + 1;
#X obj 119 196 +~;
#X obj 119 281 *~;
#X obj 135 233 inlet;
#X obj 134 172 r~ lfo_filt;
#N canvas 733 144 482 320 filter_env 0;
#X obj 58 38 inlet;
#X obj 58 254 vline~;
#X obj 58 62 sel 1 0;
#X obj 58 278 outlet~;
#X floatatom 78 110 5 0 0 1 attack - -;
#X floatatom 98 129 5 0 1 1 sustain_level - -;
#X floatatom 118 148 5 0 0 1 decay - -;
#X msg 58 210 0 \, 1 \$2 \, \$3 \$4 \$2;
#X msg 58 90 bang;
#X floatatom 139 166 5 0 0 1 release - -;
#X obj 58 188 pack 0 0 0 0 0;
#X msg 191 205 \$5;
#X obj 146 237 pack 0 0;
#X msg 146 79 bang;
#X obj 256 77 vsl 13 128 0 1 0 0 empty empty a 0 -9 0 10 -262144 -1
-1 2540 1;
#X obj 300 77 vsl 13 128 0 1 0 0 empty empty d 0 -9 0 10 -262144 -1
-1 2540 1;
#X obj 344 77 vsl 13 128 0 1 0 0 empty empty s 0 -9 0 10 -262144 -1
-1 1270 1;
#X obj 388 77 vsl 13 128 0 1 0 0 empty empty r 0 -9 0 10 -262144 -1
-1 5080 1;
#X obj 256 222 * 4995;
#X obj 256 244 + 5;
#X floatatom 256 272 5 0 0 0 - - -;
#X obj 300 222 * 4995;
#X obj 300 244 + 5;
#X floatatom 300 272 5 0 0 0 - - -;
#X obj 388 222 * 4995;
#X obj 388 244 + 5;
#X floatatom 388 272 5 0 0 0 - - -;
#X obj 256 27 r fq_a;
#X obj 300 49 r fq_d;
#X obj 344 27 r fq_s;
#X obj 388 49 r fq_r;
#X connect 0 0 2 0;
#X connect 1 0 3 0;
#X connect 2 0 8 0;
#X connect 2 1 13 0;
#X connect 4 0 10 1;
#X connect 5 0 10 2;
#X connect 6 0 10 3;
#X connect 7 0 1 0;
#X connect 8 0 10 0;
#X connect 9 0 10 4;
#X connect 10 0 7 0;
#X connect 10 0 11 0;
#X connect 11 0 12 1;
#X connect 12 0 1 0;
#X connect 13 0 12 0;
#X connect 14 0 18 0;
#X connect 15 0 21 0;
#X connect 16 0 5 0;
#X connect 17 0 24 0;
#X connect 18 0 19 0;
#X connect 19 0 20 0;
#X connect 20 0 4 0;
#X connect 21 0 22 0;
#X connect 22 0 23 0;
#X connect 23 0 6 0;
#X connect 24 0 25 0;
#X connect 25 0 26 0;
#X connect 26 0 9 0;
#X connect 27 0 14 0;
#X connect 28 0 15 0;
#X connect 29 0 16 0;
#X connect 30 0 17 0;
#X restore 135 257 pd filter_env;
#X connect 0 0 2 0;
#X connect 2 0 1 0;
#X connect 3 0 5 0;
#X connect 4 0 2 2;
#X connect 5 0 12 0;
#X connect 6 0 7 0;
#X connect 7 0 8 0;
#X connect 8 0 3 0;
#X connect 9 0 10 0;
#X connect 10 0 11 0;
#X connect 11 0 4 0;
#X connect 12 0 13 0;
#X connect 13 0 2 1;
#X connect 14 0 16 0;
#X connect 15 0 12 1;
#X connect 16 0 13 1;
#X restore 187 241 pd filter;
#X connect 0 0 2 0;
#X connect 1 0 0 0;
#X connect 2 0 4 0;
#X connect 3 0 9 0;
#X connect 4 0 10 0;
#X connect 5 0 6 0;
#X connect 6 0 1 0;
#X connect 6 1 7 0;
#X connect 7 0 8 0;
#X connect 7 0 10 1;
#X connect 8 0 3 1;
#X connect 10 0 3 0;
