#N canvas -5 0 449 986 10;
#X obj 280 135 ctlin 7;
#X obj 74 135 ctlin 18;
#X obj 74 336 + 40;
#X obj 165 136 ctlin 19;
#X obj 121 472 *~;
#X obj 74 357 osc~;
#X obj 165 357 osc~;
#X obj 121 493 dac~;
#X obj 74 166 vsl 15 128 0 127 0 0 empty empty empty 0 -9 0 10 -262144
-1 -1 1600 1;
#X obj 165 168 vsl 15 128 0 127 0 0 empty empty empty 0 -9 0 10 -262144
-1 -1 3600 1;
#X obj 280 168 vsl 15 128 0 127 0 0 empty empty empty 0 -9 0 10 -262144
-1 -1 2000 1;
#X obj 74 315 * 10;
#X obj 165 315 * 10;
#X obj 165 336 + 42;
#X obj 75 380 *~ 0.2;
#X obj 165 379 *~ 0.2;
#X floatatom 33 356 5 0 0 0 - - -;
#X floatatom 129 358 5 0 0 0 - - -;
#X obj 280 335 / 127;
#X floatatom 280 363 5 0 0 0 - - -;
#X floatatom 241 304 5 0 0 0 - - -;
#X floatatom 129 302 5 0 0 0 - - -;
#X floatatom 32 303 5 0 0 0 - - -;
#X text 80 114 OSC 1;
#X text 172 115 OSC 2;
#X text 281 115 Volume;
#X obj 153 23 loadbang;
#X msg 36 137 16;
#X msg 134 136 36;
#X msg 248 133 20;
#X connect 0 0 10 0;
#X connect 1 0 8 0;
#X connect 2 0 5 0;
#X connect 2 0 16 0;
#X connect 3 0 9 0;
#X connect 4 0 7 0;
#X connect 5 0 14 0;
#X connect 6 0 15 0;
#X connect 8 0 11 0;
#X connect 8 0 22 0;
#X connect 9 0 12 0;
#X connect 9 0 21 0;
#X connect 10 0 18 0;
#X connect 10 0 20 0;
#X connect 11 0 2 0;
#X connect 12 0 13 0;
#X connect 13 0 6 0;
#X connect 13 0 17 0;
#X connect 14 0 4 0;
#X connect 15 0 4 0;
#X connect 18 0 19 0;
#X connect 19 0 4 1;
#X connect 26 0 27 0;
#X connect 26 0 28 0;
#X connect 26 0 29 0;
#X connect 27 0 8 0;
#X connect 28 0 9 0;
#X connect 29 0 10 0;
