#N canvas 376 346 1085 443 10;
#X obj 165 197 grids, f 38;
#X obj 379 26 vsl 15 128 0 127 0 0 empty empty empty 0 -9 0 10 -262144
-1 -1 0 1;
#X text 382 5 random;
#X obj 334 26 vsl 15 128 0 127 0 0 empty empty empty 0 -9 0 10 -262144
-1 -1 0 1;
#X text 322 1 map y;
#X obj 291 26 vsl 15 128 0 127 0 0 empty empty empty 0 -9 0 10 -262144
-1 -1 0 1;
#X text 276 1 map x;
#X obj 248 27 vsl 15 128 0 127 0 0 empty empty empty 0 -9 0 10 -262144
-1 -1 0 1;
#X text 231 2 hihat;
#X obj 206 27 vsl 15 128 0 127 0 0 empty empty empty 0 -9 0 10 -262144
-1 -1 0 1;
#X text 185 1 snare;
#X obj 164 26 vsl 15 128 0 127 0 0 empty empty empty 0 -9 0 10 -262144
-1 -1 0 1;
#X obj 62 97 f;
#X obj 95 124 + 1;
#X obj 166 228 bng 15 250 50 0 empty empty empty 17 7 0 10 -262144
-1 -1;
#X obj 213 229 bng 15 250 50 0 empty empty empty 17 7 0 10 -262144
-1 -1;
#X obj 255 230 bng 15 250 50 0 empty empty empty 17 7 0 10 -262144
-1 -1;
#X obj 300 230 bng 15 250 50 0 empty empty empty 17 7 0 10 -262144
-1 -1;
#X obj 345 231 bng 15 250 50 0 empty empty empty 17 7 0 10 -262144
-1 -1;
#X obj 390 232 bng 15 250 50 0 empty empty empty 17 7 0 10 -262144
-1 -1;
#X obj 185 419 efficient-kick;
#X msg 185 389 1;
#X obj 172 498 *~;
#X obj 388 419 efficient-snare;
#X msg 363 386 1;
#X obj 503 423 efficient-fmhh;
#X msg 466 382 1;
#X obj 365 495 *~;
#X obj 505 502 *~;
#X obj 228 467 / 127;
#X obj 560 473 / 127;
#X obj 314 450 / 127;
#X obj 4 -67 master-metronome;
#X obj 3 -132 tgl 15 0 empty empty empty 17 7 0 10 -262144 -1 -1 1
1;
#X floatatom 99 -121 5 0 0 0 - - -;
#X obj 37 -217 loadbang;
#X msg 3 -177 1;
#X obj 264 670 dac~;
#X msg 55 -178 127;
#X text -14 -146 on/off;
#X obj 497 224 vline~;
#X obj 497 193 / 127;
#X obj 521 36 vsl 15 128 0 127 0 0 empty empty empty 0 -9 0 10 -262144
-1 -1 6000 1;
#X obj 118 -313 vsl 15 64 0 127 0 0 empty empty empty 0 -9 0 10 -262144
-1 -1 0 1;
#X text 111 -339 tempo;
#X obj 102 -181 * 2;
#X floatatom 158 -198 5 0 0 0 - - -;
#X obj 250 624 *~;
#X obj 29 257 vsl 15 128 0 127 0 0 empty empty empty 0 -9 0 10 -262144
-1 -1 6000 1;
#X obj 51 470 vline~;
#X obj 27 415 / 127;
#X obj 562 224 vline~;
#X obj 562 193 / 127;
#X obj 627 34 vsl 15 128 0 127 0 0 empty empty empty 0 -9 0 10 -262144
-1 -1 6000 1;
#X obj 628 224 vline~;
#X obj 628 193 / 127;
#X obj 724 33 vsl 15 128 0 127 0 0 empty empty empty 0 -9 0 10 -262144
-1 -1 6000 1;
#X obj 13 173 ctlin 7;
#X text 2 229 masster volume;
#X text 144 1 kick;
#X text 483 7 kick volume;
#X text 594 7 snare volume;
#X text 707 7 hihat volume;
#X obj 495 -27 ctlin 74;
#X obj 591 -27 ctlin 71;
#X obj 698 -27 ctlin 76;
#X obj 671 335 ctlin;
#X floatatom 705 385 5 0 0 0 - - -;
#X obj 167 -335 ctlin 114;
#X obj 455 -106 ctlin 18;
#X obj 534 -113 ctlin 19;
#X obj 609 -109 ctlin 16;
#X obj 228 -113 ctlin 93;
#X obj 302 -114 ctlin 73;
#X obj 382 -120 ctlin 75;
#X obj -213 -480 bng 15 250 50 0 empty empty empty 17 7 0 10 -262144
-1 -1;
#X obj -61 -370 vsl 15 64 0 127 0 0 empty empty empty 0 -9 0 10 -262144
-1 -1 0 1;
#X obj -75 -220 i;
#X obj -92 -188 moses 2;
#X obj -72 -164 spigot;
#X obj -33 -196 < 1;
#X obj -5 -332 ctlin 77;
#X text -69 -400 on/off;
#X floatatom -131 -245 5 0 0 0 - - -;
#X obj -13 -261 / 64;
#X floatatom -14 -231 5 0 0 0 - - -;
#X obj 101 -151 + 0;
#X obj 96 -94 moses 10;
#X msg 465 44 60;
#X msg 78 48 -1;
#X connect 0 0 14 0;
#X connect 0 0 29 0;
#X connect 0 1 15 0;
#X connect 0 1 31 0;
#X connect 0 2 16 0;
#X connect 0 2 30 0;
#X connect 0 3 17 0;
#X connect 0 4 18 0;
#X connect 0 5 19 0;
#X connect 1 0 0 6;
#X connect 3 0 0 5;
#X connect 5 0 0 4;
#X connect 7 0 0 3;
#X connect 9 0 0 2;
#X connect 11 0 0 1;
#X connect 12 0 13 0;
#X connect 12 0 0 0;
#X connect 13 0 12 1;
#X connect 14 0 21 0;
#X connect 15 0 24 0;
#X connect 16 0 26 0;
#X connect 20 0 22 0;
#X connect 21 0 20 0;
#X connect 22 0 47 0;
#X connect 23 0 27 0;
#X connect 24 0 23 0;
#X connect 25 0 28 0;
#X connect 26 0 25 0;
#X connect 27 0 47 0;
#X connect 28 0 47 0;
#X connect 29 0 22 1;
#X connect 29 0 47 1;
#X connect 30 0 28 1;
#X connect 31 0 27 1;
#X connect 32 0 12 0;
#X connect 33 0 32 0;
#X connect 34 0 87 0;
#X connect 35 0 36 0;
#X connect 35 0 38 0;
#X connect 35 0 88 0;
#X connect 36 0 33 0;
#X connect 38 0 34 0;
#X connect 40 0 22 1;
#X connect 41 0 40 0;
#X connect 42 0 41 0;
#X connect 43 0 45 0;
#X connect 43 0 46 0;
#X connect 45 0 86 0;
#X connect 47 0 37 0;
#X connect 47 0 37 1;
#X connect 48 0 50 0;
#X connect 49 0 47 1;
#X connect 50 0 49 0;
#X connect 51 0 27 1;
#X connect 52 0 51 0;
#X connect 53 0 52 0;
#X connect 54 0 28 1;
#X connect 55 0 54 0;
#X connect 56 0 55 0;
#X connect 57 0 48 0;
#X connect 63 0 42 0;
#X connect 64 0 53 0;
#X connect 65 0 56 0;
#X connect 66 1 67 0;
#X connect 68 0 43 0;
#X connect 69 0 5 0;
#X connect 70 0 3 0;
#X connect 71 0 1 0;
#X connect 72 0 11 0;
#X connect 73 0 9 0;
#X connect 74 0 7 0;
#X connect 76 0 83 0;
#X connect 76 0 84 0;
#X connect 77 0 78 0;
#X connect 78 0 79 0;
#X connect 79 0 33 0;
#X connect 79 0 89 0;
#X connect 80 0 79 1;
#X connect 81 0 76 0;
#X connect 84 0 77 0;
#X connect 84 0 85 0;
#X connect 84 0 80 0;
#X connect 86 0 34 0;
#X connect 87 1 32 1;
#X connect 88 0 42 0;
#X connect 88 0 53 0;
#X connect 88 0 56 0;
#X connect 88 0 48 0;
#X connect 89 0 12 1;
