#N canvas 20 0 846 649 10;
#X obj 103 407 random 100;
#X obj 37 290 random 10000;
#X obj 321 198 random 10000;
#X obj 333 543 random 100;
#X obj 647 318 random 100;
#X obj 457 213 random 100;
#X obj 230 448 random 100;
#X text 377 19 Random Preset Parameters;
#X obj 219 8 r OS_random;
#X msg 226 376 \; OS_Q \$1;
#X msg 151 259 \; OS_LFO_f0 \$1;
#X msg 560 514 \; OS_f_offset0 \$1;
#X msg 420 380 \; OS_decay_t \$1;
#X msg 321 258 \; OS_attack_t \$1;
#X msg 333 567 \; OS_WetDry0 \$1;
#X msg 440 530 \; OS_damp0 \$1;
#X msg 230 472 \; OS_RevWidth0 \$1;
#X msg 457 237 \; OS_RevDamp0 \$1;
#X msg 647 342 \; OS_RevSize0 \$1;
#X msg 103 434 \; OS_LFOspread \$1;
#X msg 37 349 \; OS_f00 \$1;
#X obj 420 355 expr $f1 + 100;
#X obj 420 324 random 9900;
#X obj 321 229 expr $f1 + 100;
#X obj 535 336 expr $f1 + 500;
#X obj 535 304 random 1500;
#X obj 226 306 random 95;
#X obj 226 338 expr $f1 + 5;
#X obj 440 500 expr $f1 + 50;
#X obj 440 471 random 100;
#X obj 560 486 expr $f1 + 100;
#X obj 37 320 expr $f1 + 2000;
#X msg 535 365 \; OS_retrigg \$1;
#X obj 560 458 random 1900;
#X text 379 43 TO DO: Random Seed initialization;
#X obj 219 104 del 1000;
#X obj 36 167 del 500;
#X msg 316 72 \; OS_t_Amp 300 \; OS_Amp0 0 \;;
#X msg 684 275 \; OS_retr_onoff 0 \;;
#X obj 219 140 t b b b b b b b b b b b b b b b b b;
#X msg 574 172 \; OS_freq_detune 0;
#X obj 151 235 random 50;
#X text 480 588 Note: some offset are added in order to avoid critical
parameters;
#X msg 219 38 bang;
#X msg 36 193 \; OS_t_Amp 1000 \; OS_Amp0 300 \;;
#X msg 633 220 \; OS_polyphony 24;
#X connect 0 0 19 0;
#X connect 1 0 31 0;
#X connect 2 0 23 0;
#X connect 3 0 14 0;
#X connect 4 0 18 0;
#X connect 5 0 17 0;
#X connect 6 0 16 0;
#X connect 8 0 43 0;
#X connect 21 0 12 0;
#X connect 22 0 21 0;
#X connect 23 0 13 0;
#X connect 24 0 32 0;
#X connect 25 0 24 0;
#X connect 26 0 27 0;
#X connect 27 0 9 0;
#X connect 28 0 15 0;
#X connect 29 0 28 0;
#X connect 30 0 11 0;
#X connect 31 0 20 0;
#X connect 33 0 30 0;
#X connect 35 0 39 0;
#X connect 36 0 44 0;
#X connect 39 0 36 0;
#X connect 39 1 1 0;
#X connect 39 2 41 0;
#X connect 39 3 0 0;
#X connect 39 4 26 0;
#X connect 39 5 6 0;
#X connect 39 6 3 0;
#X connect 39 7 2 0;
#X connect 39 8 29 0;
#X connect 39 9 22 0;
#X connect 39 10 33 0;
#X connect 39 11 25 0;
#X connect 39 12 5 0;
#X connect 39 13 4 0;
#X connect 39 14 38 0;
#X connect 39 15 45 0;
#X connect 39 16 40 0;
#X connect 41 0 10 0;
#X connect 43 0 37 0;
#X connect 43 0 35 0;
