#N canvas 984 111 1011 696 10;
#X obj 246 447 bp~ 100 10;
#X obj 245 9 inlet~;
#X text 5 286 Fundamental Freq;
#X obj 246 483 bp~ 100 10;
#X obj 20 411 * \$1;
#X obj 20 447 *;
#X obj 771 352 random 1000;
#X obj 556 453 line~;
#X obj 771 404 del 200;
#X obj 556 417 pack 1 2;
#X obj 785 510 pack 0 100;
#X obj 822 444 random 1000;
#X msg 771 441 0;
#X obj 917 261 +;
#X obj 246 517 *~;
#X text 157 8 noise input;
#X obj 556 356 sqrt;
#X obj 556 387 sqrt;
#X obj 557 491 *~;
#X obj 556 520 *~;
#X text 493 544 Quartic Amplitude Envelope;
#X text 786 531 decay;
#X text 512 433 attack;
#X text 797 175 attack time;
#X text 893 176 decay time;
#X text 13 9 VOICE;
#X obj 556 271 \$1;
#X text 795 118 damping of high freq;
#X obj 556 308 expr pow(1/$f1 \, $f2);
#X text 497 235 triggering of amplitude envelope;
#X obj 393 142 metro 500;
#X obj 32 174 moses \$2;
#X obj 31 127 f;
#X obj 31 85 \$1;
#X obj 132 89 t b f;
#X text 553 9 initial trigger event;
#X floatatom 154 170 5 0 0 0 - - -;
#X obj 31 47 loadbang;
#X obj 132 63 r OS_polyphony;
#X obj 20 311 r OS_f0;
#X obj 349 407 r OS_Q;
#X obj 127 310 r OS_f_offset;
#X obj 393 55 r OS_retr_onoff;
#X obj 451 107 r OS_retrigg;
#X obj 556 33 r OS_trigger;
#X obj 798 137 r OS_damp;
#X obj 799 196 r OS_attack_t;
#X obj 883 196 r OS_decay_t;
#X obj 127 335 t b f;
#X obj 20 381 f;
#X obj 285 224 r OS_freq_detune;
#X text 153 189 Voice Number;
#X obj 285 342 pack 1 2;
#X obj 208 378 line;
#X msg 31 210 1;
#X msg 74 211 0;
#X obj 31 241 switch~;
#X text 17 535 Center Freq = f0 * n * Df + detune;
#X obj 285 262 expr pow(2 \, $f1/12);
#X obj 208 404 *;
#X msg 309 303 1;
#X obj 434 265 t b f;
#X obj 403 224 t b f;
#X obj 694 65 r OS_v_dens;
#X obj 694 91 expr ($f1-1)*100;
#X text 696 41 voice density;
#X obj 602 125 delay;
#X text 284 198 BPF frequency detune;
#X text 348 385 BPF Q (Resonance);
#X text 18 516 BPF Center Freq [Hz];
#X text 128 288 f_offset (Df);
#X obj 681 177 +;
#X msg 556 194 bang;
#X text 391 36 retrig ON/OFF;
#X text 450 87 retrig speed;
#X text 848 218 (upper values);
#X obj 556 86 select 1;
#X obj 583 159 delay 100;
#X text 601 181 AZDEBUG;
#X obj 246 591 panner1;
#X floatatom 161 120 5 0 0 0 - - -;
#X floatatom 110 119 5 0 0 0 - - -;
#X floatatom 7 148 5 0 0 0 - - -;
#X obj 127 254 tgl 15 0 empty empty empty 17 7 0 10 -262144 -1 -1 1
1;
#X connect 0 0 3 0;
#X connect 1 0 0 0;
#X connect 3 0 14 0;
#X connect 4 0 5 0;
#X connect 5 0 59 1;
#X connect 6 0 9 1;
#X connect 6 0 13 1;
#X connect 6 0 8 0;
#X connect 6 0 62 0;
#X connect 7 0 18 0;
#X connect 7 0 18 1;
#X connect 8 0 11 0;
#X connect 8 0 12 0;
#X connect 9 0 7 0;
#X connect 10 0 7 0;
#X connect 11 0 10 1;
#X connect 11 0 13 0;
#X connect 11 0 61 0;
#X connect 12 0 10 0;
#X connect 13 0 71 0;
#X connect 14 0 79 0;
#X connect 16 0 17 0;
#X connect 17 0 9 0;
#X connect 18 0 19 0;
#X connect 18 0 19 1;
#X connect 19 0 14 1;
#X connect 26 0 28 0;
#X connect 28 0 16 0;
#X connect 30 0 72 0;
#X connect 31 0 54 0;
#X connect 31 1 55 0;
#X connect 32 0 31 0;
#X connect 32 0 82 0;
#X connect 33 0 32 0;
#X connect 33 0 36 0;
#X connect 34 0 32 0;
#X connect 34 0 81 0;
#X connect 34 1 31 1;
#X connect 34 1 80 0;
#X connect 37 0 33 0;
#X connect 38 0 34 0;
#X connect 39 0 49 0;
#X connect 40 0 0 2;
#X connect 40 0 3 2;
#X connect 41 0 48 0;
#X connect 42 0 30 0;
#X connect 43 0 30 1;
#X connect 44 0 76 0;
#X connect 45 0 28 1;
#X connect 46 0 6 1;
#X connect 47 0 11 1;
#X connect 48 0 49 0;
#X connect 48 1 5 1;
#X connect 49 0 4 0;
#X connect 50 0 58 0;
#X connect 52 0 53 0;
#X connect 53 0 59 0;
#X connect 54 0 56 0;
#X connect 54 0 83 0;
#X connect 55 0 56 0;
#X connect 55 0 83 0;
#X connect 58 0 52 0;
#X connect 59 0 0 1;
#X connect 59 0 3 1;
#X connect 60 0 52 0;
#X connect 61 0 60 0;
#X connect 61 1 52 1;
#X connect 62 0 58 0;
#X connect 62 1 52 1;
#X connect 63 0 64 0;
#X connect 64 0 71 1;
#X connect 66 0 77 0;
#X connect 71 0 66 0;
#X connect 72 0 6 0;
#X connect 72 0 26 0;
#X connect 76 0 72 0;
#X connect 77 0 72 0;
#X coords 0 0 1 1 85 60 0;
