#N canvas 289 283 834 702 10;
#X declare -lib Gem;
#X declare -lib zexy;
#X obj 94 32 gemhead 100;
#X obj 94 53 t a b;
#X obj 89 102 color 1 1 1;
#X obj 89 144 translateXYZ 0 0 0;
#X obj 89 165 t a a a;
#X obj 40 201 GEMglEnd;
#X obj 103 202 repeat 400;
#X obj 158 165 GEMglBegin;
#X obj 103 223 t a b;
#X obj 102 398 GEMglVertex3f 0 0 0;
#X obj 216 12 loadbang;
#X msg 216 81 3;
#X obj 129 248 f;
#X obj 129 277 t f f f;
#X obj 130 298 expr ($f1/400);
#X obj 160 248 + 1;
#X obj 191 247 % 400;
#X msg 165 81 4;
#X obj 186 358 tabread scope;
#X obj 353 291 gemwin;
#X msg 266 191 destroy;
#X obj 419 3 declare -lib Gem;
#X obj 417 26 declare -lib zexy;
#X obj 519 146 * 0.83;
#X msg 406 261 reset \, dimen \$1 \$2 \, offset \$3 \$4 \, create \,
1;
#X obj 487 235 pack f f f f;
#X obj 449 145 t b f;
#X obj 478 193 f;
#X obj 574 154 delay 1000;
#X obj 664 158 delay 1000;
#N canvas 889 537 758 358 scope 0;
#N canvas 0 0 450 300 (subpatch) 0;
#X array scope 1024 float 0;
#X coords 0 1 1023 -1 200 140 1;
#X restore 12 40 graph;
#X obj 498 25 inlet~;
#X floatatom 167 23 7 0 0 0 samples - -;
#X obj 244 2 loadbang;
#X msg 244 44 1024;
#X obj 281 79 samplerate~;
#X obj 281 103 / 1000;
#X obj 236 127 pack f f;
#X obj 272 139 /;
#X obj 420 76 expr~ $v1>0;
#X msg 507 199 1;
#X msg 421 190 0;
#X obj 507 180 delay 10;
#X obj 421 142 t b b;
#X obj 272 166 * 3;
#X obj 244 21 t b b;
#X obj 236 202 max 100;
#X obj 448 231 spigot 1;
#X obj 499 269 tabwrite~ scope;
#X obj 421 114 cyclone/edge~;
#X connect 1 0 9 0;
#X connect 1 0 18 0;
#X connect 2 0 7 0;
#X connect 3 0 15 0;
#X connect 4 0 2 0;
#X connect 5 0 6 0;
#X connect 6 0 7 1;
#X connect 7 0 8 0;
#X connect 8 0 14 0;
#X connect 9 0 19 0;
#X connect 10 0 17 1;
#X connect 11 0 17 1;
#X connect 12 0 10 0;
#X connect 13 0 11 0;
#X connect 13 1 17 0;
#X connect 14 0 16 0;
#X connect 15 0 4 0;
#X connect 15 1 5 0;
#X connect 16 0 12 1;
#X connect 17 0 12 0;
#X connect 17 0 18 0;
#X connect 19 0 13 0;
#X coords 0 -1 1 1 204 173 1 10 10;
#X restore 424 415 pd scope;
#X obj 386 336 adc~;
#X obj 380 382 *~;
#X obj 418 384 *~;
#X obj 310 368 / 22;
#X obj 315 335 ctlin 74;
#X obj 449 79 ctlin 71;
#X obj 574 80 ctlin 76;
#X obj 664 77 ctlin 77;
#X obj 378 77 * 6;
#X obj 449 123 + 100;
#X obj 664 101 * 4;
#X obj 574 103 * 6;
#X obj 515 197 t b f;
#X obj 574 130 t b f;
#X obj 664 128 t b f;
#X floatatom 377 116 5 0 0 0 - - -;
#X obj 448 170 delay 1000;
#X obj 423 231 print;
#X obj 393 194 delay 600;
#X obj 519 169 i;
#X msg 319 230 240 160 280 220;
#X obj 89 123 GEMglLineWidth 0.5;
#X obj 142 323 k_range 1 0 -9.9 1.8;
#X msg 268 309 42;
#X connect 0 0 1 0;
#X connect 1 0 2 0;
#X connect 2 0 52 0;
#X connect 3 0 4 0;
#X connect 4 0 5 0;
#X connect 4 1 6 0;
#X connect 4 2 7 0;
#X connect 6 0 8 0;
#X connect 8 0 9 0;
#X connect 8 1 12 0;
#X connect 10 0 11 0;
#X connect 10 0 17 0;
#X connect 10 0 51 0;
#X connect 10 0 54 0;
#X connect 11 0 7 1;
#X connect 12 0 15 0;
#X connect 12 0 13 0;
#X connect 13 0 14 0;
#X connect 13 2 18 0;
#X connect 14 0 53 0;
#X connect 15 0 16 0;
#X connect 16 0 12 1;
#X connect 17 0 3 1;
#X connect 18 0 9 2;
#X connect 20 0 19 0;
#X connect 23 0 50 0;
#X connect 24 0 19 0;
#X connect 25 0 24 0;
#X connect 25 0 48 0;
#X connect 26 0 47 0;
#X connect 26 0 49 0;
#X connect 26 1 27 1;
#X connect 26 1 23 0;
#X connect 27 0 25 0;
#X connect 28 0 25 0;
#X connect 29 0 25 0;
#X connect 31 0 32 0;
#X connect 31 1 33 0;
#X connect 32 0 30 0;
#X connect 33 0 30 0;
#X connect 34 0 33 1;
#X connect 34 0 32 1;
#X connect 35 0 34 0;
#X connect 36 0 39 0;
#X connect 36 0 46 0;
#X connect 37 0 42 0;
#X connect 38 0 41 0;
#X connect 39 0 40 0;
#X connect 40 0 26 0;
#X connect 41 0 45 0;
#X connect 42 0 44 0;
#X connect 43 1 25 1;
#X connect 44 0 28 0;
#X connect 44 0 49 0;
#X connect 44 1 25 2;
#X connect 45 0 29 0;
#X connect 45 0 49 0;
#X connect 45 1 25 3;
#X connect 47 0 27 0;
#X connect 49 0 20 0;
#X connect 50 0 43 0;
#X connect 51 0 24 0;
#X connect 52 0 3 0;
#X connect 53 0 9 1;
#X connect 54 0 34 0;
