#N canvas 50 548 518 191 12;
#X obj 28 67 adc~;
#X obj 28 149 dac~;
#X obj 108 82 readsf~;
#X msg 79 56 1;
#X obj 108 4 bng 15 250 50 0 empty empty empty 17 7 0 10 #fcfcfc #000000
#000000;
#X obj 28 111 voice_prism_conv;
#X msg 109 23 open /home/weichselbaumj/music_dev/pd_sandbox/fatties.wav
;
#X connect 0 0 5 0;
#X connect 0 1 5 0;
#X connect 2 0 5 0;
#X connect 3 0 2 0;
#X connect 4 0 6 0;
#X connect 5 0 1 0;
#X connect 5 0 1 1;
#X connect 6 0 2 0;
#X connect 6 0 3 0;
