#N canvas 1213 551 450 426 12;
#X obj 260 48 inlet;
#X obj 203 99 unpack;
#X obj 96 312 outlet~;
#X obj 30 45 inlet~;
#X text 260 18 midi note;
#X obj 120 163 pitch_shifter_conv \$1;
#X obj 190 227 *~;
#X floatatom 283 235 5 0 0 0 - - -, f 5;
#X obj 289 120 moses 1;
#X msg 341 158 1 100;
#X msg 288 158 0 100;
#X obj 286 202 line;
#X connect 0 0 1 0;
#X connect 1 0 5 1;
#X connect 1 1 8 0;
#X connect 3 0 5 0;
#X connect 5 0 6 0;
#X connect 6 0 2 0;
#X connect 8 0 10 0;
#X connect 8 1 9 0;
#X connect 9 0 11 0;
#X connect 10 0 11 0;
#X connect 11 0 7 0;
#X connect 11 0 6 1;
