#N canvas 771 260 286 286 10;
#X obj 92 87 pack 0 0 0;
#X obj 92 18 notein;
#X obj 9 192 unpack;
#X obj 81 191 unpack;
#X obj 146 191 unpack;
#X obj 206 195 unpack;
#X floatatom 207 228 5 0 0 0 - - -, f 5;
#X floatatom 216 254 5 0 0 0 - - -, f 5;
#X floatatom 155 250 5 0 0 0 - - -, f 5;
#X floatatom 146 224 5 0 0 0 - - -, f 5;
#X floatatom 93 248 5 0 0 0 - - -, f 5;
#X floatatom 81 222 5 0 0 0 - - -, f 5;
#X floatatom 21 249 5 0 0 0 - - -, f 5;
#X floatatom 9 225 5 0 0 0 - - -, f 5;
#X obj 23 168 outlet;
#X obj 87 167 outlet;
#X obj 152 168 outlet;
#X obj 214 173 outlet;
#X obj 92 54 poly 4 1;
#X obj 93 117 route 1 2 3 4;
#X connect 0 0 19 0;
#X connect 1 0 18 0;
#X connect 1 1 18 1;
#X connect 2 0 13 0;
#X connect 2 1 12 0;
#X connect 3 0 11 0;
#X connect 3 1 10 0;
#X connect 4 0 9 0;
#X connect 4 1 8 0;
#X connect 5 0 6 0;
#X connect 5 1 7 0;
#X connect 18 0 0 0;
#X connect 18 1 0 1;
#X connect 18 2 0 2;
#X connect 19 0 2 0;
#X connect 19 0 14 0;
#X connect 19 1 3 0;
#X connect 19 1 15 0;
#X connect 19 2 4 0;
#X connect 19 2 16 0;
#X connect 19 3 5 0;
#X connect 19 3 17 0;
